{
.formatVersion = 3;
axes = (
{
name = Weight;
tag = wght;
},
{
name = Italic;
tag = ital;
}
);
classes = (
{
code = "A O Scedilla Tcedilla aacute abreve acircumflex adieresis agrave amacron aogonek aring atilde j o scedilla tcedilla u uacute ubreve ucircumflex udieresis ugrave uhungarumlaut umacron uogonek uring utilde acyr zero.numerator one.numerator two.numerator three.numerator four.numerator five.numerator six.numerator seven.numerator eight.numerator nine.numerator exclamdown questiondown hyphen softhyphen endash emdash quoteright guillemotleft guillemotright guilsinglleft guilsinglright cent dollar Euro hryvnia ruble sterling tenge yen cent.tab dollar.tab Euro.tab hryvnia.tab ruble.tab sterling.tab tenge.tab yen.tab at dieresiscomb dotaccentcomb gravecomb acutecomb hungarumlautcomb circumflexcomb caroncomb brevecomb ringcomb tildecomb macroncomb commaaccentcomb cedillacomb ogonekcomb brevecombcy descendercy.alt";
name = aalt;
},
{
code = "ordfeminine ordmasculine Scommaaccent Tcommaaccent dotlessj ordmasculine scommaaccent tcommaaccent zero.denominator one.denominator two.denominator three.denominator four.denominator five.denominator six.denominator seven.denominator eight.denominator nine.denominator exclamdown.case questiondown.case hyphen.case softhyphen.case endash.case emdash.case quoteright.case guillemotleft.case guillemotright.case guilsinglleft.case guilsinglright.case cent.tab dollar.tab Euro.tab hryvnia.tab ruble.tab sterling.tab tenge.tab yen.tab cent dollar Euro hryvnia ruble sterling tenge yen at.case dieresiscomb.case dotaccentcomb.case gravecomb.case acutecomb.case hungarumlautcomb.case circumflexcomb.case caroncomb.case brevecomb.case ringcomb.case tildecomb.case macroncomb.case commaaccentcomb.case cedillacomb.case ogonekcomb.case brevecombcy.case descendercy.alt.case";
name = aalt2;
},
{

glyphs = (
{
glyphname = .notdef;
layers = (
{
layerId = "C6F2FD9D-3429-4F2B-9903-30CCFB382AAD";
shapes = (
{
closed = 1;
nodes = (
(394,-16,o),
(484,2,o),
(536,50,o),
(556,134,o),
(556,199,qs),
(556,491,ls),
(556,561,o),
(536,650,o),
(484,701,o),
(394,721,o),
(323,721,qs),
(253,721,o),
(163,702,o),
(111,652,o),
(90,564,o),
(90,496,qs),
(88,199,ls),
(88,134,o),
(107,50,o),
(160,2,o),
(251,-16,o),
(323,-16,qs)
);
},
{
closed = 1;
nodes = (
(209,97,l),
(209,277,l),
(223,279,o),
(249,281,o),
(263,281,qs),
(277,281,o),
(305,277,o),
(327,264,o),
(341,240,o),
(341,220,qs),
(341,202,o),
(329,178,o),
(310,163,o),
(285,156,o),
(271,156,qs),
(251,156,l),
(251,97,l)
);
},
{
closed = 1;
nodes = (
(264,192,ls),
(277,191,o),
(298,203,o),
(298,221,qs),
(298,236,o),
(278,246,o),
(265,246,qs),
(262,246,o),
(255,245,o),
(251,244,q),
(251,193,l)
);
},
{
closed = 1;
nodes = (
(362,94,o),
(347,106,o),
(347,118,qs),
(347,124,o),
(349,136,o),
(351,142,qs),
(370,210,l),
(351,210,l),
(351,221,l),
(357,226,o),
(371,235,o),
(377,238,q),
(382,257,l),
(389,264,o),
(409,269,o),
(415,269,q),
(420,265,l),
(412,238,l),
(443,238,l),
(445,234,o),
(439,214,o),
(436,210,q),
(406,210,l),
(390,151,ls),
(389,147,o),
(388,140,o),
(388,135,qs),
(388,130,o),
(394,123,o),
(399,123,qs),
(405,123,o),
(417,126,o),
(423,129,q),
(423,114,l),
(412,105,o),
(386,94,o),
(372,94,qs)
);
},
{
closed = 1;
nodes = (
(308,428,l),
(308,538,l),
(315,534,o),
(328,529,o),
(335,527,q),
(335,428,l)
);
},
{
closed = 1;
nodes = (
(293,364,o),
(242,386,o),
(205,424,o),
(183,475,o),
(183,504,qs),
(183,533,o),
(205,584,o),
(242,622,o),
(293,644,o),
(322,644,qs),
(351,644,o),
(401,622,o),
(439,584,o),
(461,533,o),
(461,504,qs),
(461,474,o),
(439,423,o),
(402,386,o),
(351,364,o),
(322,364,qs)
);
},
{
closed = 1;
nodes = (
(346,391,o),
(388,408,o),
(419,438,o),
(436,480,o),
(436,504,qs),
(436,528,o),
(418,569,o),
(388,599,o),
(346,617,o),
(322,617,qs),
(298,617,o),
(256,599,o),
(225,569,o),
(208,528,o),
(208,504,qs),
(208,480,o),
(225,439,o),
(256,408,o),
(298,391,o),
(322,391,qs)
);
},
{
closed = 1;
nodes = (
(257,535,l),
(256,558,o),
(275,579,o),
(291,579,qs),
(299,579,o),
(315,573,o),
(323,568,q),
(330,565,o),
(343,559,o),
(348,559,qs),
(356,559,o),
(362,570,o),
(362,581,q),
(383,581,l),
(385,555,o),
(366,535,o),
(351,535,qs),
(343,535,o),
(327,542,o),
(319,547,q),
(311,550,o),
(299,556,o),
(293,556,qs),
(286,556,o),
(278,547,o),
(278,535,q)
);
}
);
width = 643;
},
{
layerId = "6FC0E451-EFB7-4D7C-9E66-A10B69A48177";
shapes = (
{
closed = 1;
nodes = (
(394,-16,o),
(484,2,o),
(536,50,o),
(556,134,o),
(556,199,qs),
(556,491,ls),
(556,561,o),
(536,650,o),
(484,701,o),
(394,721,o),
(323,721,qs),
(253,721,o),
(163,702,o),
(111,652,o),
(90,564,o),
(90,496,qs),
(88,199,ls),
(88,134,o),
(107,50,o),
(160,2,o),
(251,-16,o),
(323,-16,qs)
);
},
{
closed = 1;
nodes = (
(209,97,l),
(209,277,l),
(223,279,o),
(249,281,o),
(263,281,qs),
(277,281,o),
(305,277,o),
(327,264,o),
(341,240,o),
(341,220,qs),
(341,202,o),
(329,178,o),
(310,163,o),
(285,156,o),
(271,156,qs),
(251,156,l),
(251,97,l)
);
},
{
closed = 1;
nodes = (
(264,192,ls),
(277,191,o),
(298,203,o),
(298,221,qs),
(298,236,o),
(278,246,o),
(265,246,qs),
(262,246,o),
(255,245,o),
(251,244,q),
(251,193,l)
);
},
{
closed = 1;
nodes = (
(362,94,o),
(347,106,o),
(347,118,qs),
(347,124,o),
(349,136,o),
(351,142,qs),
(370,210,l),
(351,210,l),
(351,221,l),
(357,226,o),
(371,235,o),
(377,238,q),
(382,257,l),
(389,264,o),
(409,269,o),
(415,269,q),
(420,265,l),
(412,238,l),
(443,238,l),
(445,234,o),
(439,214,o),
(436,210,q),
(406,210,l),
(390,151,ls),
(389,147,o),
(388,140,o),
(388,135,qs),
(388,130,o),
(394,123,o),
(399,123,qs),
(405,123,o),
(417,126,o),
(423,129,q),
(423,114,l),
(412,105,o),
(386,94,o),
(372,94,qs)
);
},
{
closed = 1;
nodes = (
(308,428,l),
(308,538,l),
(315,534,o),
(328,529,o),
(335,527,q),
(335,428,l)
);
},
{
closed = 1;
nodes = (
(293,364,o),
(242,386,o),
(205,424,o),
(183,475,o),
(183,504,qs),
(183,533,o),
(205,584,o),
(242,622,o),
(293,644,o),
(322,644,qs),
(351,644,o),
(401,622,o),
(439,584,o),
(461,533,o),
(461,504,qs),
(461,474,o),
(439,423,o),
(402,386,o),
(351,364,o),
(322,364,qs)
);
},
{
closed = 1;
nodes = (
(346,391,o),
(388,408,o),
(419,438,o),
(436,480,o),
(436,504,qs),
(436,528,o),
(418,569,o),
(388,599,o),
(346,617,o),
(322,617,qs),
(298,617,o),
(256,599,o),
(225,569,o),
(208,528,o),
(208,504,qs),
(208,480,o),
(225,439,o),
(256,408,o),
(298,391,o),
(322,391,qs)
);
},
{
closed = 1;
nodes = (
(257,535,l),
(256,558,o),
(275,579,o),
(291,579,qs),
(299,579,o),
(315,573,o),
(323,568,q),
(330,565,o),
(343,559,o),
(348,559,qs),
(356,559,o),
(362,570,o),
(362,581,q),
(383,581,l),
(385,555,o),
(366,535,o),
(351,535,qs),
(343,535,o),
(327,542,o),
(319,547,q),
(311,550,o),
(299,556,o),
(293,556,qs),
(286,556,o),
(278,547,o),
(278,535,q)
);
}
);
width = 643;
},
{
layerId = "A6FAFB92-F521-4DD4-A95F-C39B9C67A836";
shapes = (
{
closed = 1;
nodes = (
(394,-16,o),
(484,2,o),
(536,50,o),
(556,134,o),
(556,199,qs),
(556,491,ls),
(556,561,o),
(536,650,o),
(484,701,o),
(394,721,o),
(323,721,qs),
(253,721,o),
(163,702,o),
(111,652,o),
(90,564,o),
(90,496,q),
(88,199,l),
(88,134,o),
(107,50,o),
(160,2,o),
(251,-16,o),
(323,-16,qs)
);
},
{
closed = 1;
nodes = (
(209,97,l),
(209,277,l),
(223,279,o),
(249,281,o),
(263,281,qs),
(277,281,o),
(305,277,o),
(327,264,o),
(341,240,o),
(341,220,qs),
(341,202,o),
(329,178,o),
(310,163,o),
(285,156,o),
(271,156,qs),
(251,156,l),
(251,97,l)
);
},
{
closed = 1;
nodes = (
(264,192,ls),
(277,191,o),
(298,203,o),
(298,221,qs),
(298,236,o),
(278,246,o),
(265,246,qs),
(262,246,o),
(255,245,o),
(251,244,q),
(251,193,l)
);
},
{
closed = 1;
nodes = (
(362,94,o),
(347,106,o),
(347,118,qs),
(347,124,o),
(349,136,o),
(351,142,qs),
(370,210,l),
(351,210,l),
(351,221,l),
(357,226,o),
(371,235,o),
(377,238,q),
(382,257,l),
(389,264,o),
(409,269,o),
(415,269,q),
(420,265,l),
(412,238,l),
(443,238,l),
(445,234,o),
(439,214,o),
(436,210,q),
(406,210,l),
(390,151,ls),
(389,147,o),
(388,140,o),
(388,135,qs),
(388,130,o),
(394,123,o),
(399,123,qs),
(405,123,o),
(417,126,o),
(423,129,q),
(423,114,l),
(412,105,o),
(386,94,o),
(372,94,qs)
);
},
{
closed = 1;
nodes = (
(308,428,l),
(308,538,l),
(315,534,o),
(328,529,o),
(335,527,q),
(335,428,l)
);
},
{
closed = 1;
nodes = (
(293,364,o),
(242,386,o),
(205,424,o),
(183,475,o),
(183,504,qs),
(183,533,o),
(205,584,o),
(242,622,o),
(293,644,o),
(322,644,qs),
(351,644,o),
(401,622,o),
(439,584,o),
(461,533,o),
(461,504,qs),
(461,474,o),
(439,423,o),
(402,386,o),
(351,364,o),
(322,364,qs)
);
},
{
closed = 1;
nodes = (
(346,391,o),
(388,408,o),
(419,438,o),
(436,480,o),
(436,504,qs),
(436,528,o),
(418,569,o),
(388,599,o),
(346,617,o),
(322,617,qs),
(298,617,o),
(256,599,o),
(225,569,o),
(208,528,o),
(208,504,qs),
(208,480,o),
(225,439,o),
(256,408,o),
(298,391,o),
(322,391,qs)
);
},
{
closed = 1;
nodes = (
(257,535,l),
(256,558,o),
(275,579,o),
(291,579,qs),
(299,579,o),
(315,573,o),
(323,568,q),
(330,565,o),
(343,559,o),
(348,559,qs),
(356,559,o),
(362,570,o),
(362,581,q),
(383,581,l),
(385,555,o),
(366,535,o),
(351,535,qs),
(343,535,o),
(327,542,o),
(319,547,q),
(311,550,o),
(299,556,o),
(293,556,qs),
(286,556,o),
(278,547,o),
(278,535,q)
);
}
);
width = 643;
},
{
layerId = "EB11814A-7CD7-4F83-85D3-A70914269335";
shapes = (
{
closed = 1;
nodes = (
(394,-16,o),
(484,2,o),
(536,50,o),
(556,134,o),
(556,199,qs),
(556,491,ls),
(556,561,o),
(536,650,o),
(484,701,o),
(394,721,o),
(323,721,qs),
(253,721,o),
(163,702,o),
(111,652,o),
(90,564,o),
(90,496,q),
(88,199,l),
(88,134,o),
(107,50,o),
(160,2,o),
(251,-16,o),
(323,-16,qs)
);
},
{
closed = 1;
nodes = (
(209,97,l),
(209,277,l),
(223,279,o),
(249,281,o),
(263,281,qs),
(277,281,o),
(305,277,o),
(327,264,o),
(341,240,o),
(341,220,qs),
(341,202,o),
(329,178,o),
(310,163,o),
(285,156,o),
(271,156,qs),
(251,156,l),
(251,97,l)
);
},
{
closed = 1;
nodes = (
(264,192,ls),
(277,191,o),
(298,203,o),
(298,221,qs),
(298,236,o),
(278,246,o),
(265,246,qs),
(262,246,o),
(255,245,o),
(251,244,q),
(251,193,l)
);
},
{
closed = 1;
nodes = (
(362,94,o),
(347,106,o),
(347,118,qs),
(347,124,o),
(349,136,o),
(351,142,qs),
(370,210,l),
(351,210,l),
(351,221,l),
(357,226,o),
(371,235,o),
(377,238,q),
(382,257,l),
(389,264,o),
(409,269,o),
(415,269,q),
(420,265,l),
(412,238,l),
(443,238,l),
(445,234,o),
(439,214,o),
(436,210,q),
(406,210,l),
(390,151,ls),
(389,147,o),
(388,140,o),
(388,135,qs),
(388,130,o),
(394,123,o),
(399,123,qs),
(405,123,o),
(417,126,o),
(423,129,q),
(423,114,l),
(412,105,o),
(386,94,o),
(372,94,qs)
);
},
{
closed = 1;
nodes = (
(308,428,l),
(308,538,l),
(315,534,o),
(328,529,o),
(335,527,q),
(335,428,l)
);
},
{
closed = 1;
nodes = (
(293,364,o),
(242,386,o),
(205,424,o),
(183,475,o),
(183,504,qs),
(183,533,o),
(205,584,o),
(242,622,o),
(293,644,o),
(322,644,qs),
(351,644,o),
(401,622,o),
(439,584,o),
(461,533,o),
(461,504,qs),
(461,474,o),
(439,423,o),
(402,386,o),
(351,364,o),
(322,364,qs)
);
},
{
closed = 1;
nodes = (
(346,391,o),
(388,408,o),
(419,438,o),
(436,480,o),
(436,504,qs),
(436,528,o),
(418,569,o),
(388,599,o),
(346,617,o),
(322,617,qs),
(298,617,o),
(256,599,o),
(225,569,o),
(208,528,o),
(208,504,qs),
(208,480,o),
(225,439,o),
(256,408,o),
(298,391,o),
(322,391,qs)
);
},
{
closed = 1;
nodes = (
(257,535,l),
(256,558,o),
(275,579,o),
(291,579,qs),
(299,579,o),
(315,573,o),
(323,568,q),
(330,565,o),
(343,559,o),
(348,559,qs),
(356,559,o),
(362,570,o),
(362,581,q),
(383,581,l),
(385,555,o),
(366,535,o),
(351,535,qs),
(343,535,o),
(327,542,o),
(319,547,q),
(311,550,o),
(299,556,o),
(293,556,qs),
(286,556,o),
(278,547,o),
(278,535,q)
);
}
);
width = 643;
}
);
},
{
glyphname = A;
layers = (
{
layerId = "F6B38B84-4AA5-4989-9E13-2A308B5F1025";
shapes = (
{
closed = 1;
nodes = (
(-51,0,l),
(124,0,l),
(371.545,508,l),
(339.545,508,l),
(460,0,l),
(649,0,l),
(460.562,700,l),
(307.562,700,l)
);
},
{
closed = 1;
nodes = (
(150.386,123,l),
(468.386,123,l),
(485.773,262,l),
(167.773,262,l)
);
}
);
width = 666;
},
{
layerId = "FF7033E7-E079-48F6-9418-777F925FA922";
shapes = (
{
closed = 1;
nodes = (
(-40,0,l),
(111,0,l),
(376.672,533,l),
(342.672,533,l),
(476,0,l),
(638,0,l),
(446.562,700,l),
(322.562,700,l)
);
},
{
closed = 1;
nodes = (
(150.763,142,l),
(473.763,142,l),
(488.898,263,l),
(165.898,263,l)
);
}
);
width = 666;
},
{
layerId = "C6F2FD9D-3429-4F2B-9903-30CCFB382AAD";
shapes = (
{
closed = 1;
nodes = (
(-8,0,l),
(72,0,l),
(394.054,616,l),
(353.054,616,l),
(523,0,l),
(606,0,l),
(404.562,700,l),
(365.562,700,l)
);
},
{
closed = 1;
nodes = (
(152.017,192,l),
(488.017,192,l),
(496.773,262,l),
(160.773,262,l)
);
}
);
width = 666;
},
{
layerId = "6FC0E451-EFB7-4D7C-9E66-A10B69A48177";
shapes = (
{
closed = 1;
nodes = (
(11,0,l),
(45,0,l),
(385,643,l),
(372,643,l),
(554,0,l),
(587,0,l),
(390,700,l),
(383,700,l)
);
},
{
closed = 1;
nodes = (
(154,233,l),
(498,233,l),
(502,265,l),
(158,265,l)
);
}
);
width = 666;
},
{
layerId = "FDA1CA61-DAB6-440F-86AE-A1833308297E";
shapes = (
{
closed = 1;
nodes = (
(-17,0,l),
(158,0,l),
(342,508,l),
(310,508,l),
(494,0,l),
(683,0,l),
(407,700,l),
(254,700,l)
);
},
{
closed = 1;
nodes = (
(169,123,l),
(487,123,l),
(487,262,l),
(169,262,l)
);
}
);
width = 666;
},
{
layerId = "C0F60499-8BC0-4CEA-B9B1-C7852A3AB7A6";
shapes = (
{
closed = 1;
nodes = (
(-6,0,l),
(145,0,l),
(344,533,l),
(310,533,l),
(510,0,l),
(672,0,l),
(393,700,l),
(269,700,l)
);
},
{
closed = 1;
nodes = (
(167,142,l),
(490,142,l),
(490,263,l),
(167,263,l)
);
}
);
width = 666;
},
{
layerId = "A6FAFB92-F521-4DD4-A95F-C39B9C67A836";
shapes = (
{
closed = 1;
nodes = (
(26,0,l),
(106,0,l),
(351,616,l),
(310,616,l),
(557,0,l),
(640,0,l),
(351,700,l),
(312,700,l)
);
},
{
closed = 1;
nodes = (
(162,192,l),
(498,192,l),
(498,262,l),
(162,262,l)
);
}
);
width = 666;
},
{
layerId = "EB11814A-7CD7-4F83-85D3-A70914269335";
shapes = (
{
closed = 1;
nodes = (
(45,0,l),
(79,0,l),
(339,643,l),
(326,643,l),
(588,0,l),
(621,0,l),
(336,700,l),
(329,700,l)
);
},
{
closed = 1;
nodes = (
(159,233,l),
(503,233,l),
(503,265,l),
(159,265,l)
);
}
);
width = 666;
}
);
leftKerningGroup = A2;
rightKerningGroup = A;
unicode = 65;
},
{
glyphname = AE;
layers = (
{
layerId = "F6B38B84-4AA5-4989-9E13-2A308B5F1025";
shapes = (
{
closed = 1;
nodes = (
(642.401,299,l),
(802.401,299,l),
(820.539,444,l),
(660.539,444,l),
(673.799,550,l),
(885.799,550,l),
(904.562,700,l),
(512.562,700,l),
(-6,0,l),
(166,0,l),
(479.163,433,l),
(425,0,l),
(827,0,l),
(845.763,150,l),
(623.763,150,l)
);
},
{
closed = 1;
nodes = (
(472.398,259,l),
(338.398,259,l),
(222.384,99,l),
(452.384,99,l)
);
}
);
width = 943;
},
{
layerId = "FF7033E7-E079-48F6-9418-777F925FA922";
shapes = (
{
closed = 1;
nodes = (
(629.777,310,l),
(806.777,310,l),
(822.413,435,l),
(645.413,435,l),
(662.425,571,l),
(891.425,571,l),
(907.562,700,l),
(524.562,700,l),
(-7,0,l),
(143,0,l),
(495.917,471,l),
(437,0,l),
(830,0,l),
(846.136,129,l),
(607.136,129,l)
);
},
{
closed = 1;
nodes = (
(485.023,264,l),
(326.023,264,l),
(222.886,127,l),
(467.886,127,l)
);
}
);
width = 943;
},
{
layerId = "C6F2FD9D-3429-4F2B-9903-30CCFB382AAD";
shapes = (
{
closed = 1;
nodes = (
(584.53,340,l),
(815.53,340,l),
(824.286,410,l),
(593.286,410,l),
(620.806,630,l),
(900.806,630,l),
(909.562,700,l),
(555.562,700,l),
(-12,0,l),
(78,0,l),
(540.051,576,l),
(468,0,l),
(832,0,l),
(840.756,70,l),
(550.756,70,l)
);
},
{
closed = 1;
nodes = (
(517.649,277,l),
(282.649,277,l),
(225.893,207,l),
(508.893,207,l)
);
}
);
width = 943;
},
{
layerId = "6FC0E451-EFB7-4D7C-9E66-A10B69A48177";
shapes = (
{
closed = 1;
nodes = (
(548,364,l),
(810,364,l),
(814,397,l),
(552,397,l),
(586,669,l),
(899,669,l),
(903,700,l),
(559,700,l),
(-23,0,l),
(13,0,l),
(550,648,l),
(469,0,l),
(825,0,l),
(829,31,l),
(506,31,l)
);
},
{
closed = 1;
nodes = (
(517,260,l),
(218,260,l),
(192,228,l),
(513,228,l)
);
}
);
width = 943;
},
{
layerId = "FDA1CA61-DAB6-440F-86AE-A1833308297E";
shapes = (
{
closed = 1;
nodes = (
(639,299,l),
(799,299,l),
(799,444,l),
(639,444,l),
(639,550,l),
(851,550,l),
(851,700,l),
(459,700,l),
(28,0,l),
(200,0,l),
(459,433,l),
(459,0,l),
(861,0,l),
(861,150,l),
(639,150,l)
);
},
{
closed = 1;
nodes = (
(474,259,l),
(340,259,l),
(244,99,l),
(474,99,l)
);
}
);
width = 943;
},
{
layerId = "C0F60499-8BC0-4CEA-B9B1-C7852A3AB7A6";
shapes = (
{
closed = 1;
nodes = (
(625,310,l),
(802,310,l),
(802,435,l),
(625,435,l),
(625,571,l),
(854,571,l),
(854,700,l),
(471,700,l),
(27,0,l),
(177,0,l),
(471,471,l),
(471,0,l),
(864,0,l),
(864,129,l),
(625,129,l)
);
},
{
closed = 1;
nodes = (
(486,264,l),
(327,264,l),
(241,127,l),
(486,127,l)
);
}
);
width = 943;
},
{
layerId = "A6FAFB92-F521-4DD4-A95F-C39B9C67A836";
shapes = (
{
closed = 1;
nodes = (
(576,340,l),
(807,340,l),
(807,410,l),
(576,410,l),
(576,630,l),
(856,630,l),
(856,700,l),
(502,700,l),
(22,0,l),
(112,0,l),
(502,576,l),
(502,0,l),
(866,0,l),
(866,70,l),
(576,70,l)
);
},
{
closed = 1;
nodes = (
(517,277,l),
(282,277,l),
(234,207,l),
(517,207,l)
);
}
);
width = 943;
},
{
layerId = "EB11814A-7CD7-4F83-85D3-A70914269335";
shapes = (
{
closed = 1;
nodes = (
(536,364,l),
(798,364,l),
(798,397,l),
(536,397,l),
(536,669,l),
(849,669,l),
(849,700,l),
(505,700,l),
(11,0,l),
(47,0,l),
(503,648,l),
(503,0,l),
(859,0,l),
(859,31,l),
(536,31,l)
);
},
{
closed = 1;
nodes = (
(518,260,l),
(219,260,l),
(197,228,l),
(518,228,l)
);
}
);
width = 943;
}
);
rightKerningGroup = E;
unicode = 198;
},
{
glyphname = B;
layers = (
{
layerId = "F6B38B84-4AA5-4989-9E13-2A308B5F1025";
shapes = (
{
closed = 1;
nodes = (
(14,0,l),
(296,0,ls),
(437,0,o),
(559.381,67,o),
(577.894,215,cs),
(584.899,271,o),
(570.403,315,o),
(539.155,345,cs),
(506.908,375,o),
(456.91,391,o),
(393.035,392,c),
(375.657,357,l),
(485.532,364,o),
(561.287,418,o),
(575.297,530,cs),
(581.301,578,o),
(568.805,622,o),
(536.558,652,cs),
(503.31,682,o),
(449.562,700,o),
(370.562,700,cs),
(101.562,700,l)
);
},
{
closed = 1;
nodes = (
(203.006,72,l),
(270.804,614,l),
(195.799,550,l),
(331.799,550,ls),
(374.799,550,o),
(397.672,533,o),
(392.293,490,cs),
(386.289,442,o),
(359.787,422,o),
(312.787,422,cs),
(179.787,422,l),
(163.526,292,l),
(314.526,292,ls),
(343.526,292,o),
(364.775,286,o),
(377.274,274,cs),
(389.773,262,o),
(393.772,246,o),
(390.895,223,cs),
(382.889,159,o),
(328.763,150,o),
(274.763,150,cs),
(145.763,150,l)
);
}
);
width = 600;
},
{
layerId = "FF7033E7-E079-48F6-9418-777F925FA922";
shapes = (
{
closed = 1;
nodes = (
(30,0,l),
(286,0,ls),
(427,0,o),
(548.256,66,o),
(566.769,214,cs),
(573.649,269,o),
(559.153,313,o),
(528.03,344,cs),
(495.908,375,o),
(447.91,391,o),
(384.91,391,c),
(374.407,363,l),
(478.658,373,o),
(546.538,428,o),
(559.672,533,cs),
(565.676,581,o),
(554.055,624,o),
(521.683,653,cs),
(489.31,682,o),
(437.562,700,o),
(364.562,700,cs),
(117.562,700,l)
);
},
{
closed = 1;
nodes = (
(189.879,47,l),
(264.432,643,l),
(197.3,570,l),
(325.3,570,ls),
(381.3,570,o),
(408.548,548,o),
(402.419,499,cs),
(395.164,441,o),
(358.537,420,o),
(303.537,420,cs),
(182.537,420,l),
(168.277,306,l),
(311.277,306,ls),
(346.277,306,o),
(371.401,299,o),
(387.525,284,cs),
(403.649,269,o),
(410.022,248,o),
(406.519,220,cs),
(397.138,145,o),
(334.261,130,o),
(268.261,130,cs),
(142.261,130,l)
);
}
);
width = 600;
},
{
layerId = "C6F2FD9D-3429-4F2B-9903-30CCFB382AAD";
shapes = (
{
closed = 1;
nodes = (
(80,0,l),
(260,0,ls),
(396,0,o),
(513.881,63,o),
(532.018,208,cs),
(538.648,261,o),
(525.402,307,o),
(497.53,340,cs),
(469.533,372,o),
(427.91,391,o),
(377.285,394,c),
(381.784,382,l),
(460.661,405,o),
(502.165,457,o),
(512.047,536,cs),
(518.177,585,o),
(504.305,626,o),
(474.933,655,cs),
(445.435,683,o),
(398.562,700,o),
(341.562,700,cs),
(167.562,700,l)
);
},
{
closed = 1;
nodes = (
(156.003,32,l),
(235.559,668,l),
(203.806,630,l),
(306.806,630,ls),
(403.806,630,o),
(443.428,595,o),
(434.796,526,cs),
(424.164,441,o),
(357.661,413,o),
(279.661,413,cs),
(190.661,413,l),
(182.155,345,l),
(302.155,345,ls),
(351.155,345,o),
(392.905,335,o),
(421.153,313,cs),
(449.401,291,o),
(462.148,257,o),
(456.519,212,cs),
(442.634,101,o),
(351.756,70,o),
(250.756,70,cs),
(133.756,70,l)
);
}
);
width = 600;
},
{
layerId = "6FC0E451-EFB7-4D7C-9E66-A10B69A48177";
shapes = (
{
closed = 1;
nodes = (
(103,0,l),
(243,0,ls),
(381,0,o),
(499,55,o),
(515,197,cs),
(523,266,o),
(500,315,o),
(460,345,cs),
(419,375,o),
(360,385,o),
(299,385,c),
(279,367,l),
(398,378,o),
(494,415,o),
(512,539,cs),
(519,588,o),
(506,629,o),
(474,657,cs),
(442,684,o),
(396,700,o),
(331,700,cs),
(191,700,l)
);
},
{
closed = 1;
nodes = (
(139,21,l),
(221,677,l),
(206,669,l),
(325,669,ls),
(448,669,o),
(490,618,o),
(479,535,cs),
(464,425,o),
(363,396,o),
(262,396,cs),
(180,396,l),
(176,364,l),
(284,364,ls),
(341,364,o),
(396,352,o),
(432,325,cs),
(468,297,o),
(489,254,o),
(481,193,c),
(469,72,o),
(355,31,o),
(243,31,cs),
(126,31,l)
);
}
);
width = 600;
},
{
layerId = "FDA1CA61-DAB6-440F-86AE-A1833308297E";
shapes = (
{
closed = 1;
nodes = (
(48,0,l),
(330,0,ls),
(460,0,o),
(585,73,o),
(585,215,cs),
(585,271,o),
(565,315,o),
(530,345,cs),
(494,375,o),
(442,391,o),
(378,392,c),
(365,357,l),
(466,363,o),
(543,424,o),
(543,530,cs),
(543,578,o),
(525,622,o),
(489,652,cs),
(452,682,o),
(396,700,o),
(317,700,cs),
(48,700,l)
);
},
{
closed = 1;
nodes = (
(228,72,l),
(228,614,l),
(161,550,l),
(297,550,ls),
(340,550,o),
(365,533,o),
(365,490,cs),
(365,445,o),
(338,422,o),
(294,422,cs),
(161,422,l),
(161,292,l),
(312,292,ls),
(341,292,o),
(363,286,o),
(377,274,cs),
(391,262,o),
(397,246,o),
(397,223,cs),
(397,160,o),
(341,150,o),
(290,150,cs),
(161,150,l)
);
}
);
width = 600;
},
{
layerId = "C0F60499-8BC0-4CEA-B9B1-C7852A3AB7A6";
shapes = (
{
closed = 1;
nodes = (
(64,0,l),
(320,0,ls),
(450,0,o),
(574,72,o),
(574,214,cs),
(574,269,o),
(554,313,o),
(519,344,cs),
(483,375,o),
(433,391,o),
(370,391,c),
(363,363,l),
(458,372,o),
(527,435,o),
(527,533,cs),
(527,581,o),
(510,624,o),
(474,653,cs),
(438,682,o),
(384,700,o),
(311,700,cs),
(64,700,l)
);
},
{
closed = 1;
nodes = (
(218,47,l),
(218,643,l),
(160,570,l),
(288,570,ls),
(344,570,o),
(374,548,o),
(374,499,cs),
(374,443,o),
(337,420,o),
(285,420,cs),
(164,420,l),
(164,306,l),
(307,306,ls),
(342,306,o),
(368,299,o),
(386,284,cs),
(404,269,o),
(413,248,o),
(413,220,cs),
(413,146,o),
(347,130,o),
(286,130,cs),
(160,130,l)
);
}
);
width = 600;
},
{
layerId = "A6FAFB92-F521-4DD4-A95F-C39B9C67A836";
shapes = (
{
closed = 1;
nodes = (
(114,0,l),
(294,0,ls),
(420,0,o),
(540,69,o),
(540,208,cs),
(540,261,o),
(521,307,o),
(489,340,cs),
(457,372,o),
(413,391,o),
(362,394,c),
(368,382,l),
(437,403,o),
(479,465,o),
(479,536,cs),
(479,585,o),
(460,626,o),
(427,655,cs),
(394,683,o),
(345,700,o),
(288,700,cs),
(114,700,l)
);
},
{
closed = 1;
nodes = (
(186,32,l),
(186,668,l),
(159,630,l),
(262,630,ls),
(359,630,o),
(403,595,o),
(403,526,cs),
(403,443,o),
(335,413,o),
(262,413,cs),
(173,413,l),
(173,345,l),
(293,345,ls),
(342,345,o),
(385,335,o),
(416,313,cs),
(447,291,o),
(464,257,o),
(464,212,cs),
(464,103,o),
(370,70,o),
(276,70,cs),
(159,70,l)
);
}
);
width = 600;
},
{
layerId = "EB11814A-7CD7-4F83-85D3-A70914269335";
shapes = (
{
closed = 1;
nodes = (
(137,0,l),
(277,0,ls),
(399,0,o),
(524,59,o),
(524,197,cs),
(524,266,o),
(495,315,o),
(451,345,cs),
(406,375,o),
(346,385,o),
(285,385,c),
(267,367,l),
(368,377,o),
(479,418,o),
(479,539,cs),
(479,588,o),
(461,629,o),
(426,657,c),
(390,684,o),
(342,700,o),
(277,700,cs),
(137,700,l)
);
},
{
closed = 1;
nodes = (
(170,21,l),
(170,677,l),
(156,669,l),
(275,669,ls),
(398,669,o),
(446,618,o),
(446,535,cs),
(446,425,o),
(336,396,o),
(246,396,cs),
(164,396,l),
(164,364,l),
(272,364,ls),
(329,364,o),
(386,352,o),
(426,325,c),
(465,297,o),
(491,254,o),
(491,193,cs),
(491,73,o),
(375,31,o),
(273,31,cs),
(156,31,l)
);
}
);
width = 600;
}
);
unicode = 66;
},
{
glyphname = C;
layers = (
{
layerId = "F6B38B84-4AA5-4989-9E13-2A308B5F1025";
shapes = (
{
closed = 1;
nodes = (
(437.124,-7,o),
(488.25,2,o),
(534.127,17,cs),
(579.003,32,o),
(616.63,53,o),
(644.632,77,c),
(589.018,200,l),
(563.391,179,o),
(535.64,165,o),
(507.764,158,cs),
(479.888,151,o),
(453.638,149,o),
(433.638,149,cs),
(305.638,149,o),
(228.77,222,o),
(245.281,354,cs),
(261.793,486,o),
(339.424,555,o),
(471.424,555,cs),
(518.424,555,o),
(570.798,542,o),
(613.92,511,c),
(697.306,634,l),
(642.31,682,o),
(569.813,710,o),
(473.813,710,cs),
(230.813,710,o),
(83.926,583,o),
(54.531,348,cs),
(26.636,125,o),
(164.124,-7,o),
(381.124,-7,cs)
);
}
);
width = 705;
},
{
layerId = "FF7033E7-E079-48F6-9418-777F925FA922";
shapes = (
{
closed = 1;
nodes = (
(442.999,-8,o),
(493.125,1,o),
(537.001,16,cs),
(580.878,31,o),
(616.38,51,o),
(644.257,74,c),
(594.641,181,l),
(568.014,160,o),
(539.263,146,o),
(510.262,138,cs),
(481.261,130,o),
(452.886,127,o),
(428.886,127,cs),
(289.886,127,o),
(202.269,210,o),
(220.156,353,cs),
(237.669,493,o),
(333.051,576,o),
(475.051,576,cs),
(528.051,576,o),
(582.175,561,o),
(625.172,529,c),
(698.681,637,l),
(644.56,684,o),
(573.813,710,o),
(477.813,710,cs),
(235.813,710,o),
(86.676,581,o),
(57.531,348,cs),
(29.761,126,o),
(170.999,-8,o),
(386.999,-8,cs)
);
}
);
width = 705;
},
{
layerId = "C6F2FD9D-3429-4F2B-9903-30CCFB382AAD";
shapes = (
{
closed = 1;
nodes = (
(458.749,-10,o),
(505.875,-1,o),
(545.501,12,cs),
(585.127,25,o),
(617.504,44,o),
(643.881,63,c),
(612.761,126,l),
(582.884,103,o),
(551.008,88,o),
(517.632,77,cs),
(484.256,66,o),
(449.755,62,o),
(414.755,62,cs),
(247.755,62,o),
(125.141,177,o),
(146.656,349,cs),
(169.172,529,o),
(294.806,638,o),
(482.806,638,cs),
(551.806,638,o),
(612.305,618,o),
(658.801,582,c),
(702.932,647,l),
(651.56,684,o),
(580.813,710,o),
(488.813,710,cs),
(248.813,710,o),
(99.676,581,o),
(70.656,349,cs),
(43.261,130,o),
(190.749,-10,o),
(403.749,-10,cs)
);
}
);
width = 705;
},
{
layerId = "6FC0E451-EFB7-4D7C-9E66-A10B69A48177";
shapes = (
{
closed = 1;
nodes = (
(429,-10,o),
(476,-1,o),
(519,14,cs),
(562,29,o),
(600,47,o),
(625,67,c),
(610,94,l),
(579,71,o),
(541,53,o),
(502,41,cs),
(463,29,o),
(422,22,o),
(379,22,cs),
(180,22,o),
(71,158,o),
(94,352,cs),
(120,568,o),
(249,678,o),
(473,678,cs),
(552,678,o),
(621,654,o),
(666,617,c),
(690,644,l),
(639,681,o),
(573,710,o),
(477,710,cs),
(236,710,o),
(88,583,o),
(60,352,cs),
(33,131,o),
(162,-10,o),
(384,-10,cs)
);
}
);
width = 705;
},
{
layerId = "FDA1CA61-DAB6-440F-86AE-A1833308297E";
shapes = (
{
closed = 1;
nodes = (
(472,-7,o),
(522,2,o),
(566,17,cs),
(609,32,o),
(644,53,o),
(669,77,c),
(598,200,l),
(575,179,o),
(549,165,o),
(522,158,cs),
(495,151,o),
(469,149,o),
(449,149,cs),
(321,149,o),
(235,222,o),
(235,354,cs),
(235,474,o),
(316,555,o),
(436,555,cs),
(483,555,o),
(537,542,o),
(584,511,c),
(652,634,l),
(591,682,o),
(515,710,o),
(419,710,cs),
(204,710,o),
(45,567,o),
(45,348,cs),
(45,125,o),
(199,-7,o),
(416,-7,cs)
);
}
);
width = 705;
},
{
layerId = "C0F60499-8BC0-4CEA-B9B1-C7852A3AB7A6";
shapes = (
{
closed = 1;
nodes = (
(478,-8,o),
(527,1,o),
(569,16,cs),
(611,31,o),
(644,51,o),
(669,74,c),
(606,181,l),
(582,160,o),
(555,146,o),
(527,138,cs),
(499,130,o),
(471,127,o),
(447,127,cs),
(308,127,o),
(210,210,o),
(210,353,cs),
(210,486,o),
(306,576,o),
(437,576,cs),
(490,576,o),
(546,561,o),
(593,529,c),
(653,637,l),
(593,684,o),
(519,710,o),
(423,710,cs),
(209,710,o),
(48,566,o),
(48,348,cs),
(48,126,o),
(206,-8,o),
(422,-8,cs)
);
}
);
width = 705;
},
{
layerId = "A6FAFB92-F521-4DD4-A95F-C39B9C67A836";
shapes = (
{
closed = 1;
nodes = (
(494,-10,o),
(540,-1,o),
(578,12,cs),
(616,25,o),
(646,44,o),
(670,63,c),
(631,126,l),
(604,103,o),
(574,88,o),
(542,77,cs),
(510,66,o),
(476,62,o),
(441,62,cs),
(274,62,o),
(137,177,o),
(137,349,cs),
(137,520,o),
(269,638,o),
(437,638,cs),
(506,638,o),
(569,618,o),
(620,582,c),
(656,647,l),
(600,684,o),
(526,710,o),
(434,710,cs),
(222,710,o),
(61,565,o),
(61,349,cs),
(61,130,o),
(226,-10,o),
(439,-10,cs)
);
}
);
width = 705;
},
{
layerId = "EB11814A-7CD7-4F83-85D3-A70914269335";
shapes = (
{
closed = 1;
nodes = (
(464,-10,o),
(511,-1,o),
(552,14,cs),
(592,29,o),
(627,47,o),
(651,67,c),
(632,94,l),
(604,71,o),
(568,53,o),
(531,41,cs),
(494,29,o),
(453,22,o),
(410,22,cs),
(215,22,o),
(84,158,o),
(84,352,cs),
(84,551,o),
(227,678,o),
(422,678,cs),
(501,678,o),
(572,654,o),
(623,617,c),
(643,644,l),
(588,681,o),
(518,710,o),
(422,710,cs),
(213,710,o),
(50,566,o),
(50,352,cs),
(50,130,o),
(200,-10,o),
(419,-10,cs)
);
}
);
width = 705;
}
);
leftKerningGroup = C2;
rightKerningGroup = C;
unicode = 67;
},
{
glyphname = D;
layers = (
{
layerId = "F6B38B84-4AA5-4989-9E13-2A308B5F1025";
shapes = (
{
closed = 1;
nodes = (
(125.763,150,l),
(106,0,l),
(275,0,ls),
(535,0,o),
(679.76,118,o),
(709.281,354,cs),
(722.29,458,o),
(701.048,544,o),
(645.678,605,cs),
(590.184,665,o),
(502.562,700,o),
(382.562,700,cs),
(194.562,700,l),
(175.799,550,l),
(332.799,550,ls),
(393.799,550,o),
(446.047,536,o),
(479.17,505,cs),
(512.167,473,o),
(528.037,424,o),
(519.406,355,cs),
(501.143,209,o),
(430.763,150,o),
(276.763,150,cs)
);
},
{
closed = 1;
nodes = (
(297.562,700,l),
(117.562,700,l),
(30,0,l),
(210,0,l)
);
}
);
width = 729;
},
{
layerId = "FF7033E7-E079-48F6-9418-777F925FA922";
shapes = (
{
closed = 1;
nodes = (
(126.261,130,l),
(109,0,l),
(273,0,ls),
(529,0,o),
(672.886,119,o),
(702.406,355,cs),
(715.416,459,o),
(694.173,545,o),
(638.678,605,cs),
(582.184,665,o),
(494.562,700,o),
(374.562,700,cs),
(197.562,700,l),
(181.3,570,l),
(333.3,570,ls),
(402.3,570,o),
(459.174,553,o),
(495.796,518,cs),
(532.293,482,o),
(549.538,428,o),
(540.156,353,cs),
(520.767,198,o),
(440.261,130,o),
(274.261,130,cs)
);
},
{
closed = 1;
nodes = (
(284.562,700,l),
(130.562,700,l),
(43,0,l),
(197,0,l)
);
}
);
width = 729;
},
{
layerId = "C6F2FD9D-3429-4F2B-9903-30CCFB382AAD";
shapes = (
{
closed = 1;
nodes = (
(125.756,70,l),
(116,0,l),
(261,0,ls),
(493,0,o),
(648.135,113,o),
(677.781,350,cs),
(690.79,454,o),
(665.673,541,o),
(609.428,603,cs),
(552.184,665,o),
(462.562,700,o),
(346.562,700,cs),
(204.562,700,l),
(195.806,630,l),
(334.806,630,ls),
(425.806,630,o),
(497.428,603,o),
(544.424,555,cs),
(591.42,507,o),
(612.664,437,o),
(601.656,349,cs),
(577.639,157,o),
(452.756,70,o),
(264.756,70,cs)
);
},
{
closed = 1;
nodes = (
(241.562,700,l),
(167.562,700,l),
(80,0,l),
(154,0,l)
);
}
);
width = 729;
},
{
layerId = "6FC0E451-EFB7-4D7C-9E66-A10B69A48177";
shapes = (
{
closed = 1;
nodes = (
(125,31,l),
(120,0,l),
(260,0,ls),
(521,0,o),
(638,99,o),
(670,358,cs),
(683,462,o),
(655,548,o),
(598,608,cs),
(541,667,o),
(451,700,o),
(339,700,cs),
(209,700,l),
(205,669,l),
(336,669,ls),
(443,669,o),
(523,640,o),
(574,585,cs),
(625,529,o),
(647,450,o),
(635,353,cs),
(606,117,o),
(499,31,o),
(259,31,cs)
);
},
{
closed = 1;
nodes = (
(219,700,l),
(187,700,l),
(99,0,l),
(131,0,l)
);
}
);
width = 729;
},
{
layerId = "FDA1CA61-DAB6-440F-86AE-A1833308297E";
shapes = (
{
closed = 1;
nodes = (
(141,150,l),
(140,0,l),
(309,0,ls),
(532,0,o),
(699,117,o),
(699,354,cs),
(699,458,o),
(667,544,o),
(604,605,cs),
(541,665,o),
(449,700,o),
(329,700,cs),
(141,700,l),
(141,550,l),
(298,550,ls),
(359,550,o),
(413,536,o),
(450,505,cs),
(487,473,o),
(509,424,o),
(509,355,cs),
(509,212,o),
(429,150,o),
(292,150,cs)
);
},
{
closed = 1;
nodes = (
(244,700,l),
(64,700,l),
(64,0,l),
(244,0,l)
);
}
);
width = 729;
},
{
layerId = "C0F60499-8BC0-4CEA-B9B1-C7852A3AB7A6";
shapes = (
{
closed = 1;
nodes = (
(144,130,l),
(143,0,l),
(307,0,ls),
(530,0,o),
(692,121,o),
(692,355,cs),
(692,459,o),
(660,545,o),
(597,605,cs),
(533,665,o),
(441,700,o),
(321,700,cs),
(144,700,l),
(144,570,l),
(296,570,ls),
(365,570,o),
(424,553,o),
(465,518,cs),
(506,482,o),
(530,428,o),
(530,353,cs),
(530,201,o),
(439,130,o),
(292,130,cs)
);
},
{
closed = 1;
nodes = (
(231,700,l),
(77,700,l),
(77,0,l),
(231,0,l)
);
}
);
width = 729;
},
{
layerId = "A6FAFB92-F521-4DD4-A95F-C39B9C67A836";
shapes = (
{
closed = 1;
nodes = (
(151,70,l),
(150,0,l),
(295,0,ls),
(509,0,o),
(668,127,o),
(668,350,cs),
(668,454,o),
(632,541,o),
(568,603,cs),
(503,665,o),
(409,700,o),
(293,700,cs),
(151,700,l),
(151,630,l),
(290,630,ls),
(381,630,o),
(456,603,o),
(509,555,cs),
(562,507,o),
(592,437,o),
(592,349,cs),
(592,168,o),
(464,70,o),
(290,70,cs)
);
},
{
closed = 1;
nodes = (
(188,700,l),
(114,700,l),
(114,0,l),
(188,0,l)
);
}
);
width = 729;
},
{
layerId = "EB11814A-7CD7-4F83-85D3-A70914269335";
shapes = (
{
closed = 1;
nodes = (
(155,31,l),
(154,0,l),
(294,0,ls),
(512,0,o),
(659,137,o),
(659,358,cs),
(659,462,o),
(621,548,o),
(556,608,cs),
(491,667,o),
(397,700,o),
(285,700,cs),
(155,700,l),
(155,669,l),
(286,669,ls),
(393,669,o),
(478,640,o),
(535,585,cs),
(592,529,o),
(625,450,o),
(625,353,cs),
(625,150,o),
(488,31,o),
(289,31,cs)
);
},
{
closed = 1;
nodes = (
(165,700,l),
(133,700,l),
(133,0,l),
(165,0,l)
);
}
);
width = 729;
}
);
rightKerningGroup = D;
unicode = 68;
},
{
glyphname = Eth;
layers = (
{
layerId = "F6B38B84-4AA5-4989-9E13-2A308B5F1025";
shapes = (
{
closed = 1;
nodes = (
(414.789,438,l),
(33.789,438,l),
(15.025,288,l),
(396.025,288,l)
);
},
{
closed = 1;
nodes = (
(125.763,150,l),
(106,0,l),
(275,0,ls),
(516,0,o),
(678.134,105,o),
(709.281,354,cs),
(722.29,458,o),
(701.048,544,o),
(645.678,605,cs),
(590.184,665,o),
(502.562,700,o),
(382.562,700,cs),
(194.562,700,l),
(175.799,550,l),
(332.799,550,ls),
(393.799,550,o),
(446.047,536,o),
(479.17,505,cs),
(512.167,473,o),
(528.037,424,o),
(519.406,355,cs),
(500.518,204,o),
(423.763,150,o),
(276.763,150,cs)
);
},
{
closed = 1;
nodes = (
(297.562,700,l),
(117.562,700,l),
(30,0,l),
(210,0,l)
);
}
);
width = 729;
},
{
layerId = "FF7033E7-E079-48F6-9418-777F925FA922";
shapes = (
{
closed = 1;
nodes = (
(417,432,l),
(36,432,l),
(20,301,l),
(401,301,l)
);
},
{
closed = 1;
nodes = (
(126,130,l),
(109,0,l),
(273,0,ls),
(519,0,o),
(671,108,o),
(702,355,cs),
(715,459,o),
(694,545,o),
(638,605,cs),
(582,665,o),
(495,700,o),
(375,700,cs),
(198,700,l),
(181,570,l),
(333,570,ls),
(402,570,o),
(459,553,o),
(496,518,c),
(532,482,o),
(549,428,o),
(540,353,cs),
(521,192,o),
(435,130,o),
(274,130,cs)
);
},
{
closed = 1;
nodes = (
(285,700,l),
(131,700,l),
(43,0,l),
(197,0,l)
);
}
);
width = 729;
},
{
layerId = "C6F2FD9D-3429-4F2B-9903-30CCFB382AAD";
shapes = (
{
closed = 1;
nodes = (
(423.286,402,l),
(42.286,402,l),
(33.529,332,l),
(414.529,332,l)
);
},
{
closed = 1;
nodes = (
(125.756,70,l),
(116,0,l),
(261,0,ls),
(493,0,o),
(648.135,113,o),
(677.781,350,cs),
(690.79,454,o),
(665.673,541,o),
(609.428,603,cs),
(552.184,665,o),
(462.562,700,o),
(346.562,700,cs),
(204.562,700,l),
(195.806,630,l),
(334.806,630,ls),
(425.806,630,o),
(497.428,603,o),
(544.424,555,cs),
(591.42,507,o),
(612.664,437,o),
(601.656,349,cs),
(577.639,157,o),
(452.756,70,o),
(264.756,70,cs)
);
},
{
closed = 1;
nodes = (
(241.562,700,l),
(167.562,700,l),
(80,0,l),
(154,0,l)
);
}
);
width = 729;
},
{
layerId = "6FC0E451-EFB7-4D7C-9E66-A10B69A48177";
shapes = (
{
closed = 1;
nodes = (
(426,398,l),
(45,398,l),
(41,367,l),
(422,367,l)
);
},
{
closed = 1;
nodes = (
(125,31,l),
(120,0,l),
(260,0,ls),
(500,0,o),
(640,119,o),
(670,358,cs),
(683,462,o),
(655,548,o),
(598,608,cs),
(541,667,o),
(451,700,o),
(339,700,cs),
(209,700,l),
(205,669,l),
(336,669,ls),
(443,669,o),
(523,640,o),
(574,585,cs),
(625,529,o),
(647,450,o),
(635,353,cs),
(608,134,o),
(480,31,o),
(259,31,cs)
);
},
{
closed = 1;
nodes = (
(219,700,l),
(187,700,l),
(99,0,l),
(131,0,l)
);
}
);
width = 729;
},
{
layerId = "FDA1CA61-DAB6-440F-86AE-A1833308297E";
shapes = (
{
closed = 1;
nodes = (
(394,438,l),
(13,438,l),
(13,288,l),
(394,288,l)
);
},
{
closed = 1;
nodes = (
(141,150,l),
(140,0,l),
(309,0,ls),
(532,0,o),
(699,117,o),
(699,354,cs),
(699,458,o),
(667,544,o),
(604,605,cs),
(541,665,o),
(449,700,o),
(329,700,cs),
(141,700,l),
(141,550,l),
(298,550,ls),
(359,550,o),
(413,536,o),
(450,505,cs),
(487,473,o),
(509,424,o),
(509,355,cs),
(509,212,o),
(429,150,o),
(292,150,cs)
);
},
{
closed = 1;
nodes = (
(244,700,l),
(64,700,l),
(64,0,l),
(244,0,l)
);
}
);
width = 729;
},
{
layerId = "C0F60499-8BC0-4CEA-B9B1-C7852A3AB7A6";
shapes = (
{
closed = 1;
nodes = (
(397,432,l),
(16,432,l),
(16,301,l),
(397,301,l)
);
},
{
closed = 1;
nodes = (
(144,130,l),
(143,0,l),
(307,0,ls),
(530,0,o),
(692,121,o),
(692,355,cs),
(692,459,o),
(660,545,o),
(597,605,cs),
(533,665,o),
(441,700,o),
(321,700,cs),
(144,700,l),
(144,570,l),
(296,570,ls),
(365,570,o),
(424,553,o),
(465,518,cs),
(506,482,o),
(530,428,o),
(530,353,cs),
(530,201,o),
(439,130,o),
(292,130,cs)
);
},
{
closed = 1;
nodes = (
(231,700,l),
(77,700,l),
(77,0,l),
(231,0,l)
);
}
);
width = 729;
},
{
layerId = "A6FAFB92-F521-4DD4-A95F-C39B9C67A836";
shapes = (
{
closed = 1;
nodes = (
(407,402,l),
(26,402,l),
(26,332,l),
(407,332,l)
);
},
{
closed = 1;
nodes = (
(151,70,l),
(150,0,l),
(295,0,ls),
(509,0,o),
(668,127,o),
(668,350,cs),
(668,454,o),
(632,541,o),
(568,603,cs),
(503,665,o),
(409,700,o),
(293,700,cs),
(151,700,l),
(151,630,l),
(290,630,ls),
(381,630,o),
(456,603,o),
(509,555,cs),
(562,507,o),
(592,437,o),
(592,349,cs),
(592,168,o),
(464,70,o),
(290,70,cs)
);
},
{
closed = 1;
nodes = (
(188,700,l),
(114,700,l),
(114,0,l),
(188,0,l)
);
}
);
width = 729;
},
{
layerId = "EB11814A-7CD7-4F83-85D3-A70914269335";
shapes = (
{
closed = 1;
nodes = (
(410,398,l),
(29,398,l),
(29,367,l),
(410,367,l)
);
},
{
closed = 1;
nodes = (
(155,31,l),
(154,0,l),
(294,0,ls),
(512,0,o),
(659,137,o),
(659,358,cs),
(659,462,o),
(621,548,o),
(556,608,cs),
(491,667,o),
(397,700,o),
(285,700,cs),
(155,700,l),
(155,669,l),
(286,669,ls),
(393,669,o),
(478,640,o),
(535,585,cs),
(592,529,o),
(625,450,o),
(625,353,cs),
(625,150,o),
(488,31,o),
(289,31,cs)
);
},
{
closed = 1;
nodes = (
(165,700,l),
(133,700,l),
(133,0,l),
(165,0,l)
);
}
);
width = 729;
}
);
rightKerningGroup = D;
unicode = 208;
},
{
glyphname = E;
layers = (
{
layerId = "F6B38B84-4AA5-4989-9E13-2A308B5F1025";
shapes = (
{
closed = 1;
nodes = (
(55,0,l),
(477,0,l),
(495.763,150,l),
(253.763,150,l),
(271.526,292,l),
(460.526,292,l),
(478.664,437,l),
(289.664,437,l),
(303.799,550,l),
(535.799,550,l),
(554.562,700,l),
(142.562,700,l)
);
}
);
width = 564;
},
{
layerId = "FF7033E7-E079-48F6-9418-777F925FA922";
shapes = (
{
closed = 1;
nodes = (
(63,0,l),
(472,0,l),
(488.261,130,l),
(233.261,130,l),
(255.027,304,l),
(456.027,304,l),
(471.913,431,l),
(270.913,431,l),
(288.3,570,l),
(533.3,570,l),
(549.562,700,l),
(150.562,700,l)
);
}
);
width = 564;
},
{
layerId = "C6F2FD9D-3429-4F2B-9903-30CCFB382AAD";
shapes = (
{
closed = 1;
nodes = (
(80,0,l),
(453,0,l),
(461.756,70,l),
(162.756,70,l),
(196.28,338,l),
(436.28,338,l),
(445.036,408,l),
(205.036,408,l),
(232.806,630,l),
(521.806,630,l),
(530.562,700,l),
(167.562,700,l)
);
}
);
width = 564;
},
{
layerId = "6FC0E451-EFB7-4D7C-9E66-A10B69A48177";
shapes = (
{
closed = 1;
nodes = (
(96,0,l),
(449,0,l),
(453,31,l),
(133,31,l),
(175,365,l),
(433,365,l),
(437,396,l),
(179,396,l),
(213,669,l),
(523,669,l),
(527,700,l),
(184,700,l)
);
}
);
width = 564;
},
{
layerId = "FDA1CA61-DAB6-440F-86AE-A1833308297E";
shapes = (
{
closed = 1;
nodes = (
(89,0,l),
(511,0,l),
(511,150,l),
(269,150,l),
(269,292,l),
(458,292,l),
(458,437,l),
(269,437,l),
(269,550,l),
(501,550,l),
(501,700,l),
(89,700,l)
);
}
);
width = 564;
},
{
layerId = "C0F60499-8BC0-4CEA-B9B1-C7852A3AB7A6";
shapes = (
{
closed = 1;
nodes = (
(97,0,l),
(506,0,l),
(506,130,l),
(251,130,l),
(251,304,l),
(452,304,l),
(452,431,l),
(251,431,l),
(251,570,l),
(496,570,l),
(496,700,l),
(97,700,l)
);
}
);
width = 564;
},
{
layerId = "A6FAFB92-F521-4DD4-A95F-C39B9C67A836";
shapes = (
{
closed = 1;
nodes = (
(114,0,l),
(487,0,l),
(487,70,l),
(188,70,l),
(188,338,l),
(428,338,l),
(428,408,l),
(188,408,l),
(188,630,l),
(477,630,l),
(477,700,l),
(114,700,l)
);
}
);
width = 564;
},
{
layerId = "EB11814A-7CD7-4F83-85D3-A70914269335";
shapes = (
{
closed = 1;
nodes = (
(130,0,l),
(483,0,l),
(483,31,l),
(163,31,l),
(163,365,l),
(421,365,l),
(421,396,l),
(163,396,l),
(163,669,l),
(473,669,l),
(473,700,l),
(130,700,l)
);
}
);
width = 564;
}
);
rightKerningGroup = E;
unicode = 69;
},
{
glyphname = F;
layers = (
{
layerId = "F6B38B84-4AA5-4989-9E13-2A308B5F1025";
shapes = (
{
closed = 1;
nodes = (
(53,0,l),
(233,0,l),
(267,272,l),
(459,272,l),
(478,422,l),
(286,422,l),
(302,550,l),
(514,550,l),
(533,700,l),
(141,700,l)
);
}
);
width = 541;
},
{
layerId = "FF7033E7-E079-48F6-9418-777F925FA922";
shapes = (
{
closed = 1;
nodes = (
(60,0,l),
(214,0,l),
(249,281,l),
(457,281,l),
(474,412,l),
(266,412,l),
(285,570,l),
(513,570,l),
(530,700,l),
(148,700,l)
);
}
);
width = 541;
},
{
layerId = "C6F2FD9D-3429-4F2B-9903-30CCFB382AAD";
shapes = (
{
closed = 1;
nodes = (
(80,0,l),
(154,0,l),
(194,316,l),
(455,316,l),
(463,386,l),
(202,386,l),
(233,630,l),
(514,630,l),
(523,700,l),
(168,700,l)
);
}
);
width = 541;
},
{
layerId = "6FC0E451-EFB7-4D7C-9E66-A10B69A48177";
shapes = (
{
closed = 1;
nodes = (
(96,0,l),
(129,0,l),
(171,337,l),
(457,337,l),
(461,369,l),
(175,369,l),
(213,669,l),
(519,669,l),
(523,700,l),
(184,700,l)
);
}
);
width = 541;
},
{
layerId = "FDA1CA61-DAB6-440F-86AE-A1833308297E";
shapes = (
{
closed = 1;
nodes = (
(87,0,l),
(267,0,l),
(267,272,l),
(459,272,l),
(459,422,l),
(267,422,l),
(267,550,l),
(479,550,l),
(479,700,l),
(87,700,l)
);
}
);
width = 541;
},
{
layerId = "C0F60499-8BC0-4CEA-B9B1-C7852A3AB7A6";
shapes = (
{
closed = 1;
nodes = (
(94,0,l),
(248,0,l),
(248,281,l),
(456,281,l),
(456,412,l),
(248,412,l),
(248,570,l),
(476,570,l),
(476,700,l),
(94,700,l)
);
}
);
width = 541;
},
{
layerId = "A6FAFB92-F521-4DD4-A95F-C39B9C67A836";
shapes = (
{
closed = 1;
nodes = (
(114,0,l),
(188,0,l),
(188,316,l),
(449,316,l),
(449,386,l),
(188,386,l),
(188,630,l),
(469,630,l),
(469,700,l),
(114,700,l)
);
}
);
width = 541;
},
{
layerId = "EB11814A-7CD7-4F83-85D3-A70914269335";
shapes = (
{
closed = 1;
nodes = (
(130,0,l),
(163,0,l),
(163,337,l),
(449,337,l),
(449,369,l),
(163,369,l),
(163,669,l),
(469,669,l),
(469,700,l),
(130,700,l)
);
}
);
width = 541;
}
);
unicode = 70;
},
{
glyphname = G;
layers = (
{
layerId = "F6B38B84-4AA5-4989-9E13-2A308B5F1025";
shapes = (
{
closed = 1;
nodes = (
(627.124,-7,o),
(760.886,127,o),
(798.036,408,c),
(408.036,408,l),
(389.273,258,l),
(650.273,258,l),
(608.402,307,l),
(582.643,205,o),
(519.513,148,o),
(416.513,148,cs),
(363.513,148,o),
(316.64,165,o),
(285.893,199,cs),
(254.146,233,o),
(239.4,283,o),
(247.781,350,cs),
(261.666,461,o),
(338.424,555,o),
(456.424,555,cs),
(495.424,555,o),
(531.923,543,o),
(563.796,526,cs),
(595.67,509,o),
(623.668,485,o),
(644.29,458,c),
(766.425,571,l),
(739.555,620,o),
(695.058,656,o),
(643.81,678,cs),
(592.562,700,o),
(532.813,710,o),
(472.813,710,cs),
(239.813,710,o),
(87.177,585,o),
(57.906,351,cs),
(44.396,243,o),
(76.139,153,o),
(136.383,91,cs),
(196.628,29,o),
(284.124,-7,o),
(383.124,-7,cs)
);
}
);
width = 830;
},
{
layerId = "FF7033E7-E079-48F6-9418-777F925FA922";
shapes = (
{
closed = 1;
nodes = (
(624.999,-8,o),
(759.636,125,o),
(793.285,394,c),
(413.285,394,l),
(397.023,264,l),
(679.023,264,l),
(635.653,317,l),
(609.018,200,o),
(534.636,125,o),
(414.636,125,cs),
(353.636,125,o),
(300.138,145,o),
(266.016,184,cs),
(230.895,223,o),
(213.775,278,o),
(222.656,349,cs),
(238.417,475,o),
(330.176,577,o),
(461.176,577,cs),
(500.176,577,o),
(536.925,567,o),
(570.799,550,cs),
(604.672,533,o),
(633.545,508,o),
(657.042,480,c),
(763.551,580,l),
(733.43,627,o),
(686.558,660,o),
(633.185,681,cs),
(579.687,701,o),
(519.813,710,o),
(466.813,710,cs),
(238.813,710,o),
(89.301,578,o),
(60.781,350,cs),
(47.396,243,o),
(77.264,154,o),
(137.383,91,cs),
(196.502,28,o),
(283.999,-8,o),
(386.999,-8,cs)
);
}
);
width = 830;
},
{
layerId = "C6F2FD9D-3429-4F2B-9903-30CCFB382AAD";
shapes = (
{
closed = 1;
nodes = (
(620.749,-10,o),
(748.384,107,o),
(779.281,354,c),
(427.281,354,l),
(418.025,280,l),
(716.025,280,l),
(698.527,308,l),
(667.387,139,o),
(563.755,62,o),
(397.755,62,cs),
(314.755,62,o),
(247.633,93,o),
(203.013,144,cs),
(157.392,195,o),
(136.273,266,o),
(146.406,347,cs),
(168.922,527,o),
(289.806,638,o),
(470.806,638,cs),
(509.806,638,o),
(550.181,633,o),
(589.305,618,cs),
(627.428,603,o),
(664.551,580,o),
(693.048,544,c),
(752.804,606,l),
(717.682,645,o),
(674.934,671,o),
(628.936,687,cs),
(582.937,703,o),
(532.813,710,o),
(484.813,710,cs),
(251.813,710,o),
(99.676,581,o),
(70.531,348,cs),
(57.897,247,o),
(81.639,157,o),
(136.633,93,cs),
(191.628,29,o),
(275.749,-10,o),
(383.749,-10,cs)
);
}
);
width = 830;
},
{
layerId = "6FC0E451-EFB7-4D7C-9E66-A10B69A48177";
shapes = (
{
closed = 1;
nodes = (
(615,-10,o),
(741,117,o),
(768,337,c),
(436,337,l),
(432,305,l),
(739,305,l),
(731,312,l),
(690,115,o),
(590,22,o),
(388,22,cs),
(281,22,o),
(207,59,o),
(163,120,cs),
(119,180,o),
(101,263,o),
(112,352,cs),
(138,561,o),
(273,678,o),
(484,678,cs),
(529,678,o),
(569,671,o),
(604,658,cs),
(639,645,o),
(669,629,o),
(694,609,c),
(714,639,l),
(691,656,o),
(664,672,o),
(628,687,cs),
(592,702,o),
(550,710,o),
(493,710,cs),
(261,710,o),
(106,582,o),
(79,352,cs),
(67,251,o),
(87,162,o),
(139,96,cs),
(190,30,o),
(274,-10,o),
(387,-10,cs)
);
}
);
width = 830;
},
{
layerId = "FDA1CA61-DAB6-440F-86AE-A1833308297E";
shapes = (
{
closed = 1;
nodes = (
(674,-7,o),
(779,177,o),
(781,408,c),
(391,408,l),
(391,258,l),
(652,258,l),
(604,307,l),
(591,205,o),
(535,148,o),
(432,148,cs),
(379,148,o),
(330,165,o),
(295,199,cs),
(259,233,o),
(238,283,o),
(238,350,cs),
(238,461,o),
(303,555,o),
(421,555,cs),
(460,555,o),
(498,543,o),
(532,526,cs),
(566,509,o),
(597,485,o),
(621,458,c),
(729,571,l),
(696,620,o),
(647,656,o),
(593,678,cs),
(539,700,o),
(478,710,o),
(418,710,cs),
(203,710,o),
(48,569,o),
(48,351,cs),
(48,243,o),
(91,153,o),
(159,91,cs),
(227,29,o),
(319,-7,o),
(418,-7,cs)
);
}
);
width = 830;
},
{
layerId = "C0F60499-8BC0-4CEA-B9B1-C7852A3AB7A6";
shapes = (
{
closed = 1;
nodes = (
(668,-8,o),
(778,170,o),
(778,394,c),
(398,394,l),
(398,264,l),
(680,264,l),
(630,317,l),
(618,200,o),
(553,125,o),
(433,125,cs),
(372,125,o),
(316,145,o),
(277,184,cs),
(237,223,o),
(213,278,o),
(213,349,cs),
(213,475,o),
(292,577,o),
(423,577,cs),
(462,577,o),
(500,567,o),
(536,550,cs),
(572,533,o),
(604,508,o),
(631,480,c),
(725,580,l),
(689,627,o),
(638,660,o),
(582,681,cs),
(526,701,o),
(465,710,o),
(412,710,cs),
(202,710,o),
(51,560,o),
(51,350,cs),
(51,243,o),
(92,154,o),
(160,91,cs),
(227,28,o),
(319,-8,o),
(422,-8,cs)
);
}
);
width = 830;
},
{
layerId = "A6FAFB92-F521-4DD4-A95F-C39B9C67A836";
shapes = (
{
closed = 1;
nodes = (
(650,-10,o),
(769,137,o),
(769,354,c),
(417,354,l),
(417,280,l),
(715,280,l),
(694,308,l),
(684,149,o),
(580,62,o),
(424,62,cs),
(341,62,o),
(270,93,o),
(219,144,cs),
(167,195,o),
(137,266,o),
(137,347,cs),
(137,513,o),
(258,638,o),
(425,638,cs),
(464,638,o),
(505,633,o),
(546,618,cs),
(586,603,o),
(626,580,o),
(659,544,c),
(711,606,l),
(671,645,o),
(625,671,o),
(577,687,cs),
(529,703,o),
(478,710,o),
(430,710,cs),
(215,710,o),
(61,564,o),
(61,348,cs),
(61,247,o),
(96,157,o),
(159,93,cs),
(222,29,o),
(311,-10,o),
(419,-10,cs)
);
}
);
width = 830;
},
{
layerId = "EB11814A-7CD7-4F83-85D3-A70914269335";
shapes = (
{
closed = 1;
nodes = (
(634,-10,o),
(760,136,o),
(760,337,c),
(428,337,l),
(428,305,l),
(735,305,l),
(726,312,l),
(712,130,o),
(603,22,o),
(419,22,cs),
(312,22,o),
(234,59,o),
(182,120,cs),
(130,180,o),
(102,263,o),
(102,352,cs),
(102,546,o),
(240,678,o),
(433,678,cs),
(478,678,o),
(519,671,o),
(556,658,cs),
(592,645,o),
(624,629,o),
(652,609,c),
(668,639,l),
(643,656,o),
(613,672,o),
(576,687,cs),
(539,702,o),
(495,710,o),
(438,710,cs),
(228,710,o),
(69,565,o),
(69,352,cs),
(69,251,o),
(101,162,o),
(161,96,cs),
(220,30,o),
(309,-10,o),
(422,-10,cs)
);
}
);
width = 830;
}
);
leftKerningGroup = C2;
rightKerningGroup = D;
unicode = 71;
},
{
glyphname = H;
layers = (
{
layerId = "F6B38B84-4AA5-4989-9E13-2A308B5F1025";
shapes = (
{
closed = 1;
nodes = (
(611.039,440,l),
(185.039,440,l),
(166.276,290,l),
(592.276,290,l)
);
},
{
closed = 1;
nodes = (
(307.562,700,l),
(127.562,700,l),
(40,0,l),
(220,0,l)
);
},
{
closed = 1;
nodes = (
(466,0,l),
(646,0,l),
(733.562,700,l),
(553.562,700,l)
);
}
);
width = 754;
},
{
layerId = "FF7033E7-E079-48F6-9418-777F925FA922";
shapes = (
{
closed = 1;
nodes = (
(613.163,433,l),
(181.163,433,l),
(164.777,302,l),
(596.777,302,l)
);
},
{
closed = 1;
nodes = (
(291.562,700,l),
(137.562,700,l),
(50,0,l),
(204,0,l)
);
},
{
closed = 1;
nodes = (
(482,0,l),
(636,0,l),
(723.562,700,l),
(569.562,700,l)
);
}
);
width = 754;
},
{
layerId = "C6F2FD9D-3429-4F2B-9903-30CCFB382AAD";
shapes = (
{
closed = 1;
nodes = (
(619.661,405,l),
(167.661,405,l),
(158.905,335,l),
(610.905,335,l)
);
},
{
closed = 1;
nodes = (
(241.562,700,l),
(167.562,700,l),
(80,0,l),
(154,0,l)
);
},
{
closed = 1;
nodes = (
(532,0,l),
(606,0,l),
(693.562,700,l),
(619.562,700,l)
);
}
);
width = 754;
},
{
layerId = "6FC0E451-EFB7-4D7C-9E66-A10B69A48177";
shapes = (
{
closed = 1;
nodes = (
(622,397,l),
(159,397,l),
(155,366,l),
(618,366,l)
);
},
{
closed = 1;
nodes = (
(213,700,l),
(180,700,l),
(92,0,l),
(125,0,l)
);
},
{
closed = 1;
nodes = (
(561,0,l),
(594,0,l),
(682,700,l),
(649,700,l)
);
}
);
width = 754;
},
{
layerId = "FDA1CA61-DAB6-440F-86AE-A1833308297E";
shapes = (
{
closed = 1;
nodes = (
(590,440,l),
(164,440,l),
(164,290,l),
(590,290,l)
);
},
{
closed = 1;
nodes = (
(254,700,l),
(74,700,l),
(74,0,l),
(254,0,l)
);
},
{
closed = 1;
nodes = (
(500,0,l),
(680,0,l),
(680,700,l),
(500,700,l)
);
}
);
width = 754;
},
{
layerId = "C0F60499-8BC0-4CEA-B9B1-C7852A3AB7A6";
shapes = (
{
closed = 1;
nodes = (
(593,433,l),
(161,433,l),
(161,302,l),
(593,302,l)
);
},
{
closed = 1;
nodes = (
(238,700,l),
(84,700,l),
(84,0,l),
(238,0,l)
);
},
{
closed = 1;
nodes = (
(516,0,l),
(670,0,l),
(670,700,l),
(516,700,l)
);
}
);
width = 754;
},
{
layerId = "A6FAFB92-F521-4DD4-A95F-C39B9C67A836";
shapes = (
{
closed = 1;
nodes = (
(603,405,l),
(151,405,l),
(151,335,l),
(603,335,l)
);
},
{
closed = 1;
nodes = (
(188,700,l),
(114,700,l),
(114,0,l),
(188,0,l)
);
},
{
closed = 1;
nodes = (
(566,0,l),
(640,0,l),
(640,700,l),
(566,700,l)
);
}
);
width = 754;
},
{
layerId = "EB11814A-7CD7-4F83-85D3-A70914269335";
shapes = (
{
closed = 1;
nodes = (
(606,397,l),
(143,397,l),
(143,366,l),
(606,366,l)
);
},
{
closed = 1;
nodes = (
(159,700,l),
(126,700,l),
(126,0,l),
(159,0,l)
);
},
{
closed = 1;
nodes = (
(595,0,l),
(628,0,l),
(628,700,l),
(595,700,l)
);
}
);
width = 754;
}
);
rightKerningGroup = H;
unicode = 72;
},
{
glyphname = Hbar;
layers = (
{
layerId = "F6B38B84-4AA5-4989-9E13-2A308B5F1025";
shapes = (
{
closed = 1;
nodes = (
(55,490,l),
(101,490,l),
(40,0,l),
(220,0,l),
(256,290,l),
(502,290,l),
(466,0,l),
(646,0,l),
(707,490,l),
(753,490,l),
(770,620,l),
(724,620,l),
(734,700,l),
(554,700,l),
(544,620,l),
(298,620,l),
(308,700,l),
(128,700,l),
(118,620,l),
(72,620,l)
);
},
{
closed = 1;
nodes = (
(275,440,l),
(281,490,l),
(527,490,l),
(521,440,l)
);
}
);
width = 754;
},
{
layerId = "FF7033E7-E079-48F6-9418-777F925FA922";
shapes = (
{
closed = 1;
nodes = (
(57,498,l),
(112,498,l),
(50,0,l),
(204,0,l),
(242,302,l),
(520,302,l),
(482,0,l),
(636,0,l),
(698,498,l),
(753,498,l),
(768,613,l),
(713,613,l),
(724,700,l),
(570,700,l),
(559,613,l),
(281,613,l),
(292,700,l),
(138,700,l),
(127,613,l),
(72,613,l)
);
},
{
closed = 1;
nodes = (
(258,433,l),
(266,498,l),
(544,498,l),
(536,433,l)
);
}
);
width = 754;
},
{
layerId = "C6F2FD9D-3429-4F2B-9903-30CCFB382AAD";
shapes = (
{
closed = 1;
nodes = (
(74,510,l),
(144,510,l),
(80,0,l),
(154,0,l),
(196,335,l),
(574,335,l),
(532,0,l),
(606,0,l),
(670,510,l),
(740,510,l),
(749,580,l),
(679,580,l),
(694,700,l),
(620,700,l),
(605,580,l),
(227,580,l),
(242,700,l),
(168,700,l),
(153,580,l),
(83,580,l)
);
},
{
closed = 1;
nodes = (
(205,405,l),
(218,510,l),
(596,510,l),
(583,405,l)
);
}
);
width = 754;
},
{
layerId = "6FC0E451-EFB7-4D7C-9E66-A10B69A48177";
shapes = (
{
closed = 1;
nodes = (
(64,526,l),
(158,526,l),
(92,0,l),
(125,0,l),
(171,366,l),
(607,366,l),
(561,0,l),
(594,0,l),
(660,526,l),
(754,526,l),
(758,557,l),
(664,557,l),
(682,700,l),
(649,700,l),
(631,557,l),
(195,557,l),
(213,700,l),
(180,700,l),
(162,557,l),
(68,557,l)
);
},
{
closed = 1;
nodes = (
(175,397,l),
(191,526,l),
(627,526,l),
(611,397,l)
);
}
);
width = 754;
},
{
layerId = "FDA1CA61-DAB6-440F-86AE-A1833308297E";
shapes = (
{
closed = 1;
nodes = (
(28,490,l),
(74,490,l),
(74,0,l),
(254,0,l),
(254,290,l),
(500,290,l),
(500,0,l),
(680,0,l),
(680,490,l),
(726,490,l),
(726,620,l),
(680,620,l),
(680,700,l),
(500,700,l),
(500,620,l),
(254,620,l),
(254,700,l),
(74,700,l),
(74,620,l),
(28,620,l)
);
},
{
closed = 1;
nodes = (
(254,440,l),
(254,490,l),
(500,490,l),
(500,440,l)
);
}
);
width = 754;
},
{
layerId = "C0F60499-8BC0-4CEA-B9B1-C7852A3AB7A6";
shapes = (
{
closed = 1;
nodes = (
(29,498,l),
(84,498,l),
(84,0,l),
(238,0,l),
(238,302,l),
(516,302,l),
(516,0,l),
(670,0,l),
(670,498,l),
(725,498,l),
(725,613,l),
(670,613,l),
(670,700,l),
(516,700,l),
(516,613,l),
(238,613,l),
(238,700,l),
(84,700,l),
(84,613,l),
(29,613,l)
);
},
{
closed = 1;
nodes = (
(238,433,l),
(238,498,l),
(516,498,l),
(516,433,l)
);
}
);
width = 754;
},
{
layerId = "A6FAFB92-F521-4DD4-A95F-C39B9C67A836";
shapes = (
{
closed = 1;
nodes = (
(44,510,l),
(114,510,l),
(114,0,l),
(188,0,l),
(188,335,l),
(566,335,l),
(566,0,l),
(640,0,l),
(640,510,l),
(710,510,l),
(710,580,l),
(640,580,l),
(640,700,l),
(566,700,l),
(566,580,l),
(188,580,l),
(188,700,l),
(114,700,l),
(114,580,l),
(44,580,l)
);
},
{
closed = 1;
nodes = (
(188,405,l),
(188,510,l),
(566,510,l),
(566,405,l)
);
}
);
width = 754;
},
{
layerId = "EB11814A-7CD7-4F83-85D3-A70914269335";
shapes = (
{
closed = 1;
nodes = (
(32,526,l),
(126,526,l),
(126,0,l),
(159,0,l),
(159,366,l),
(595,366,l),
(595,0,l),
(628,0,l),
(628,526,l),
(722,526,l),
(722,557,l),
(628,557,l),
(628,700,l),
(595,700,l),
(595,557,l),
(159,557,l),
(159,700,l),
(126,700,l),
(126,557,l),
(32,557,l)
);
},
{
closed = 1;
nodes = (
(159,397,l),
(159,526,l),
(595,526,l),
(595,397,l)
);
}
);
width = 754;
}
);
rightKerningGroup = H;
unicode = 294;
},
{
glyphname = I;
layers = (
{
layerId = "F6B38B84-4AA5-4989-9E13-2A308B5F1025";
shapes = (
{
closed = 1;
nodes = (
(294.562,700,l),
(114.562,700,l),
(27,0,l),
(207,0,l)
);
}
);
width = 302;
},
{
layerId = "FF7033E7-E079-48F6-9418-777F925FA922";
shapes = (
{
closed = 1;
nodes = (
(281.562,700,l),
(127.562,700,l),
(40,0,l),
(194,0,l)
);
}
);
width = 302;
},
{
layerId = "C6F2FD9D-3429-4F2B-9903-30CCFB382AAD";
shapes = (
{
closed = 1;
nodes = (
(241.562,700,l),
(167.562,700,l),
(80,0,l),
(154,0,l)
);
}
);
width = 302;
},
{
layerId = "6FC0E451-EFB7-4D7C-9E66-A10B69A48177";
shapes = (
{
closed = 1;
nodes = (
(221,700,l),
(188,700,l),
(100,0,l),
(133,0,l)
);
}
);
width = 302;
},
{
layerId = "FDA1CA61-DAB6-440F-86AE-A1833308297E";
shapes = (
{
closed = 1;
nodes = (
(241,700,l),
(61,700,l),
(61,0,l),
(241,0,l)
);
}
);
width = 302;
},
{
layerId = "C0F60499-8BC0-4CEA-B9B1-C7852A3AB7A6";
shapes = (
{
closed = 1;
nodes = (
(228,700,l),
(74,700,l),
(74,0,l),
(228,0,l)
);
}
);
width = 302;
},
{
layerId = "A6FAFB92-F521-4DD4-A95F-C39B9C67A836";
shapes = (
{
closed = 1;
nodes = (
(188,700,l),
(114,700,l),
(114,0,l),
(188,0,l)
);
}
);
width = 302;
},
{
layerId = "EB11814A-7CD7-4F83-85D3-A70914269335";
shapes = (
{
closed = 1;
nodes = (
(167,700,l),
(134,700,l),
(134,0,l),
(167,0,l)
);
}
);
width = 302;
}
);
rightKerningGroup = H;
unicode = 73;
},
{
glyphname = J;
layers = (
{
layerId = "F6B38B84-4AA5-4989-9E13-2A308B5F1025";
shapes = (
{
closed = 1;
nodes = (
(82.375,-5,o),
(178.127,25,o),
(250.008,88,o),
(296.141,185,o),
(304.397,251,qs),
(360.562,700,l),
(180.562,700,l),
(125.273,258,ls),
(118.393,203,o),
(77.763,150,o),
(39.763,150,qs),
(29.763,150,o),
(7.139,153,o),
(-1.486,156,q),
(-20.875,1,l),
(-13.125,-1,o),
(7.375,-5,o),
(24.375,-5,qs)
);
}
);
width = 362;
},
{
layerId = "FF7033E7-E079-48F6-9418-777F925FA922";
shapes = (
{
closed = 1;
nodes = (
(82.375,-5,o),
(171.877,23,o),
(239.257,82,o),
(282.515,172,o),
(290.271,234,qs),
(348.562,700,l),
(193.562,700,l),
(136.146,241,ls),
(129.016,184,o),
(84.011,128,o),
(41.011,128,qs),
(31.011,128,o),
(8.387,131,o),
(-0.238,134,q),
(-16.875,1,l),
(-9.125,-1,o),
(11.375,-5,o),
(28.375,-5,qs)
);
}
);
width = 362;
},
{
layerId = "C6F2FD9D-3429-4F2B-9903-30CCFB382AAD";
shapes = (
{
closed = 1;
nodes = (
(85.375,-5,o),
(155.502,20,o),
(207.631,69,o),
(241.763,142,o),
(247.892,191,qs),
(311.562,700,l),
(237.562,700,l),
(174.017,192,ls),
(165.761,126,o),
(106.381,67,o),
(48.381,67,qs),
(38.381,67,o),
(15.756,70,o),
(7.131,73,q),
(-1.875,1,l),
(5.875,-1,o),
(26.375,-5,o),
(43.375,-5,qs)
);
}
);
width = 362;
},
{
layerId = "6FC0E451-EFB7-4D7C-9E66-A10B69A48177";
shapes = (
{
closed = 1;
nodes = (
(77,-5,o),
(136,13,o),
(182,52,o),
(210,113,o),
(215,155,qs),
(284,700,l),
(251,700,l),
(184,164,ls),
(175,93,o),
(106,27,o),
(43,27,qs),
(29,27,o),
(8,30,o),
(-1,33,q),
(-5,1,l),
(3,-1,o),
(23,-5,o),
(40,-5,qs)
);
}
);
width = 362;
},
{
layerId = "FDA1CA61-DAB6-440F-86AE-A1833308297E";
shapes = (
{
closed = 1;
nodes = (
(117,-5,o),
(209,25,o),
(273,88,o),
(307,185,o),
(307,251,qs),
(307,700,l),
(127,700,l),
(127,258,ls),
(127,203,o),
(93,150,o),
(55,150,qs),
(45,150,o),
(22,153,o),
(13,156,q),
(13,1,l),
(21,-1,o),
(42,-5,o),
(59,-5,qs)
);
}
);
width = 362;
},
{
layerId = "C0F60499-8BC0-4CEA-B9B1-C7852A3AB7A6";
shapes = (
{
closed = 1;
nodes = (
(117,-5,o),
(203,23,o),
(263,82,o),
(295,172,o),
(295,234,qs),
(295,700,l),
(140,700,l),
(140,241,ls),
(140,184,o),
(102,128,o),
(59,128,qs),
(49,128,o),
(26,131,o),
(17,134,q),
(17,1,l),
(25,-1,o),
(46,-5,o),
(63,-5,qs)
);
}
);
width = 362;
},
{
layerId = "A6FAFB92-F521-4DD4-A95F-C39B9C67A836";
shapes = (
{
closed = 1;
nodes = (
(120,-5,o),
(187,20,o),
(233,69,o),
(258,142,o),
(258,191,qs),
(258,700,l),
(184,700,l),
(184,192,ls),
(184,126,o),
(132,67,o),
(74,67,qs),
(64,67,o),
(41,70,o),
(32,73,q),
(32,1,l),
(40,-1,o),
(61,-5,o),
(78,-5,qs)
);
}
);
width = 362;
},
{
layerId = "EB11814A-7CD7-4F83-85D3-A70914269335";
shapes = (
{
closed = 1;
nodes = (
(112,-5,o),
(168,13,o),
(209,52,o),
(230,113,o),
(230,155,qs),
(230,700,l),
(197,700,l),
(197,164,ls),
(197,93,o),
(137,27,o),
(74,27,qs),
(60,27,o),
(38,30,o),
(29,33,q),
(29,1,l),
(37,-1,o),
(58,-5,o),
(75,-5,qs)
);
}
);
width = 362;
}
);
leftKerningGroup = J2;
rightKerningGroup = J;
unicode = 74;
},
{
glyphname = K;
layers = (
{
layerId = "F6B38B84-4AA5-4989-9E13-2A308B5F1025";
shapes = (
{
closed = 1;
nodes = (
(426,0,l),
(637,0,l),
(639.502,20,l),
(415.788,430,l),
(406.907,359,l),
(664.06,680,l),
(666.562,700,l),
(471.562,700,l),
(229.283,370,l)
);
},
{
closed = 1;
nodes = (
(145.401,291,l),
(346.401,291,l),
(365.664,445,l),
(164.664,445,l)
);
},
{
closed = 1;
nodes = (
(273.562,700,l),
(93.562,700,l),
(6,0,l),
(186,0,l)
);
}
);
width = 647;
},
{
layerId = "FF7033E7-E079-48F6-9418-777F925FA922";
shapes = (
{
closed = 1;
nodes = (
(445,0,l),
(624,0,l),
(626.502,20,l),
(383.037,424,l),
(374.281,354,l),
(645.06,680,l),
(647.562,700,l),
(482.562,700,l),
(226.158,369,l)
);
},
{
closed = 1;
nodes = (
(146.777,302,l),
(327.777,302,l),
(344.288,434,l),
(163.288,434,l)
);
},
{
closed = 1;
nodes = (
(265.562,700,l),
(111.562,700,l),
(24,0,l),
(178,0,l)
);
}
);
width = 647;
},
{
layerId = "C6F2FD9D-3429-4F2B-9903-30CCFB382AAD";
shapes = (
{
closed = 1;
nodes = (
(507,0,l),
(589,0,l),
(591.502,20,l),
(293.786,406,l),
(285.53,340,l),
(595.06,680,l),
(597.562,700,l),
(523.562,700,l),
(223.907,367,l)
);
},
{
closed = 1;
nodes = (
(154.78,334,l),
(278.78,334,l),
(287.286,402,l),
(163.286,402,l)
);
},
{
closed = 1;
nodes = (
(241.562,700,l),
(167.562,700,l),
(80,0,l),
(154,0,l)
);
}
);
width = 647;
},
{
layerId = "6FC0E451-EFB7-4D7C-9E66-A10B69A48177";
shapes = (
{
closed = 1;
nodes = (
(532,0,l),
(558,0,l),
(561,20,l),
(244,389,l),
(238,344,l),
(576,680,l),
(579,700,l),
(559,700,l),
(216,363,l)
);
},
{
closed = 1;
nodes = (
(163,347,l),
(231,347,l),
(235,379,l),
(167,379,l)
);
},
{
closed = 1;
nodes = (
(235,700,l),
(203,700,l),
(115,0,l),
(147,0,l)
);
}
);
width = 647;
},
{
layerId = "FDA1CA61-DAB6-440F-86AE-A1833308297E";
shapes = (
{
closed = 1;
nodes = (
(460,0,l),
(671,0,l),
(671,20,l),
(396,430,l),
(396,359,l),
(613,680,l),
(613,700,l),
(418,700,l),
(217,370,l)
);
},
{
closed = 1;
nodes = (
(143,291,l),
(344,291,l),
(344,445,l),
(143,445,l)
);
},
{
closed = 1;
nodes = (
(220,700,l),
(40,700,l),
(40,0,l),
(220,0,l)
);
}
);
width = 647;
},
{
layerId = "C0F60499-8BC0-4CEA-B9B1-C7852A3AB7A6";
shapes = (
{
closed = 1;
nodes = (
(479,0,l),
(658,0,l),
(658,20,l),
(364,424,l),
(364,354,l),
(594,680,l),
(594,700,l),
(429,700,l),
(214,369,l)
);
},
{
closed = 1;
nodes = (
(143,302,l),
(324,302,l),
(324,434,l),
(143,434,l)
);
},
{
closed = 1;
nodes = (
(212,700,l),
(58,700,l),
(58,0,l),
(212,0,l)
);
}
);
width = 647;
},
{
layerId = "A6FAFB92-F521-4DD4-A95F-C39B9C67A836";
shapes = (
{
closed = 1;
nodes = (
(541,0,l),
(623,0,l),
(623,20,l),
(277,406,l),
(277,340,l),
(544,680,l),
(544,700,l),
(470,700,l),
(212,367,l)
);
},
{
closed = 1;
nodes = (
(147,334,l),
(271,334,l),
(271,402,l),
(147,402,l)
);
},
{
closed = 1;
nodes = (
(188,700,l),
(114,700,l),
(114,0,l),
(188,0,l)
);
}
);
width = 647;
},
{
layerId = "EB11814A-7CD7-4F83-85D3-A70914269335";
shapes = (
{
closed = 1;
nodes = (
(566,0,l),
(592,0,l),
(592,20,l),
(229,389,l),
(229,344,l),
(525,680,l),
(525,700,l),
(505,700,l),
(205,363,l)
);
},
{
closed = 1;
nodes = (
(154,347,l),
(222,347,l),
(222,379,l),
(154,379,l)
);
},
{
closed = 1;
nodes = (
(181,700,l),
(149,700,l),
(149,0,l),
(181,0,l)
);
}
);
width = 647;
}
);
rightKerningGroup = K;
unicode = 75;
},
{
glyphname = L;
layers = (
{
layerId = "F6B38B84-4AA5-4989-9E13-2A308B5F1025";
shapes = (
{
closed = 1;
nodes = (
(311.562,700,l),
(131.562,700,l),
(44,0,l),
(436,0,l),
(454.763,150,l),
(142.763,150,l),
(232.631,69,l)
);
}
);
width = 504;
},
{
layerId = "FF7033E7-E079-48F6-9418-777F925FA922";
shapes = (
{
closed = 1;
nodes = (
(294.562,700,l),
(140.562,700,l),
(53,0,l),
(435,0,l),
(451.387,131,l),
(139.387,131,l),
(214.63,61,l)
);
}
);
width = 504;
},
{
layerId = "C6F2FD9D-3429-4F2B-9903-30CCFB382AAD";
shapes = (
{
closed = 1;
nodes = (
(241.562,700,l),
(167.562,700,l),
(80,0,l),
(433,0,l),
(441.756,70,l),
(129.756,70,l),
(158.628,37,l)
);
}
);
width = 504;
},
{
layerId = "6FC0E451-EFB7-4D7C-9E66-A10B69A48177";
shapes = (
{
closed = 1;
nodes = (
(213,700,l),
(180,700,l),
(92,0,l),
(429,0,l),
(433,31,l),
(121,31,l),
(128,22,l)
);
}
);
width = 504;
},
{
layerId = "FDA1CA61-DAB6-440F-86AE-A1833308297E";
shapes = (
{
closed = 1;
nodes = (
(258,700,l),
(78,700,l),
(78,0,l),
(470,0,l),
(470,150,l),
(158,150,l),
(258,69,l)
);
}
);
width = 504;
},
{
layerId = "C0F60499-8BC0-4CEA-B9B1-C7852A3AB7A6";
shapes = (
{
closed = 1;
nodes = (
(241,700,l),
(87,700,l),
(87,0,l),
(469,0,l),
(469,131,l),
(157,131,l),
(241,61,l)
);
}
);
width = 504;
},
{
layerId = "A6FAFB92-F521-4DD4-A95F-C39B9C67A836";
shapes = (
{
closed = 1;
nodes = (
(188,700,l),
(114,700,l),
(114,0,l),
(467,0,l),
(467,70,l),
(155,70,l),
(188,37,l)
);
}
);
width = 504;
},
{
layerId = "EB11814A-7CD7-4F83-85D3-A70914269335";
shapes = (
{
closed = 1;
nodes = (
(159,700,l),
(126,700,l),
(126,0,l),
(463,0,l),
(463,31,l),
(151,31,l),
(159,22,l)
);
}
);
width = 504;
}
);
rightKerningGroup = L;
unicode = 76;
},
{
glyphname = Lslash;
layers = (
{
layerId = "F6B38B84-4AA5-4989-9E13-2A308B5F1025";
shapes = (
{
closed = 1;
nodes = (
(312,700,l),
(132,700,l),
(44,0,l),
(436,0,l),
(455,150,l),
(143,150,l),
(233,69,l)
);
},
{
closed = 1;
nodes = (
(11,135,l),
(139,231,l),
(230,285,l),
(417,422,l),
(437,581,l),
(216,416,l),
(141,372,l),
(30,287,l)
);
}
);
width = 504;
},
{
layerId = "FF7033E7-E079-48F6-9418-777F925FA922";
shapes = (
{
closed = 1;
nodes = (
(295,700,l),
(141,700,l),
(53,0,l),
(435,0,l),
(451,131,l),
(139,131,l),
(215,61,l)
);
},
{
closed = 1;
nodes = (
(14,139,l),
(133,226,l),
(208,266,l),
(412,419,l),
(431,566,l),
(203,393,l),
(139,361,l),
(32,281,l)
);
}
);
width = 504;
},
{
layerId = "C6F2FD9D-3429-4F2B-9903-30CCFB382AAD";
shapes = (
{
closed = 1;
nodes = (
(242,700,l),
(168,700,l),
(80,0,l),
(433,0,l),
(442,70,l),
(130,70,l),
(159,37,l)
);
},
{
closed = 1;
nodes = (
(21,158,l),
(137,250,l),
(170,269,l),
(407,457,l),
(418,543,l),
(173,349,l),
(139,330,l),
(32,245,l)
);
}
);
width = 504;
},
{
layerId = "6FC0E451-EFB7-4D7C-9E66-A10B69A48177";
shapes = (
{
closed = 1;
nodes = (
(213,700,l),
(180,700,l),
(92,0,l),
(429,0,l),
(433,31,l),
(121,31,l),
(128,22,l)
);
},
{
closed = 1;
nodes = (
(30,177,l),
(136,263,l),
(151,274,l),
(401,478,l),
(405,514,l),
(143,298,l),
(135,297,l),
(35,212,l)
);
}
);
width = 504;
},
{
layerId = "FDA1CA61-DAB6-440F-86AE-A1833308297E";
shapes = (
{
closed = 1;
nodes = (
(258,700,l),
(78,700,l),
(78,0,l),
(470,0,l),
(470,150,l),
(158,150,l),
(258,69,l)
);
},
{
closed = 1;
nodes = (
(28,135,l),
(144,231,l),
(228,285,l),
(398,422,l),
(398,581,l),
(198,416,l),
(128,372,l),
(28,287,l)
);
}
);
width = 504;
},
{
layerId = "C0F60499-8BC0-4CEA-B9B1-C7852A3AB7A6";
shapes = (
{
closed = 1;
nodes = (
(241,700,l),
(87,700,l),
(87,0,l),
(469,0,l),
(469,131,l),
(157,131,l),
(241,61,l)
);
},
{
closed = 1;
nodes = (
(31,139,l),
(139,226,l),
(209,266,l),
(394,419,l),
(394,566,l),
(188,393,l),
(128,361,l),
(31,281,l)
);
}
);
width = 504;
},
{
layerId = "A6FAFB92-F521-4DD4-A95F-C39B9C67A836";
shapes = (
{
closed = 1;
nodes = (
(188,700,l),
(114,700,l),
(114,0,l),
(467,0,l),
(467,70,l),
(155,70,l),
(188,37,l)
);
},
{
closed = 1;
nodes = (
(35,158,l),
(140,250,l),
(170,269,l),
(384,457,l),
(384,543,l),
(163,349,l),
(132,330,l),
(35,245,l)
);
}
);
width = 504;
},
{
layerId = "EB11814A-7CD7-4F83-85D3-A70914269335";
shapes = (
{
closed = 1;
nodes = (
(159,700,l),
(126,700,l),
(126,0,l),
(463,0,l),
(463,31,l),
(151,31,l),
(159,22,l)
);
},
{
closed = 1;
nodes = (
(42,177,l),
(137,263,l),
(151,274,l),
(375,478,l),
(375,514,l),
(140,298,l),
(132,297,l),
(42,212,l)
);
}
);
width = 504;
}
);
rightKerningGroup = L;
unicode = 321;
},
{
glyphname = M;
layers = (
{
layerId = "F6B38B84-4AA5-4989-9E13-2A308B5F1025";
shapes = (
{
closed = 1;
nodes = (
(-1,0,l),
(165,0,l),
(275.914,439,l),
(245.914,439,l),
(370,0,l),
(446,0,l),
(673.789,438,l),
(644.789,438,l),
(650,0,l),
(823,0,l),
(814.562,700,l),
(654.562,700,l),
(387.515,172,l),
(477.891,183,l),
(333.562,700,l),
(173.562,700,l)
);
}
);
width = 890;
},
{
layerId = "FF7033E7-E079-48F6-9418-777F925FA922";
shapes = (
{
closed = 1;
nodes = (
(7,0,l),
(151,0,l),
(273.793,486,l),
(234.793,486,l),
(377,0,l),
(438,0,l),
(699.794,494,l),
(658.794,494,l),
(665,0,l),
(814,0,l),
(803.562,700,l),
(674.562,700,l),
(391.639,157,l),
(468.64,165,l),
(312.562,700,l),
(182.562,700,l)
);
}
);
width = 890;
},
{
layerId = "C6F2FD9D-3429-4F2B-9903-30CCFB382AAD";
shapes = (
{
closed = 1;
nodes = (
(41,0,l),
(114,0,l),
(257.3,562,l),
(235.3,562,l),
(397.375,-5,l),
(416.375,-5,l),
(713.175,561,l),
(696.175,561,l),
(709,0,l),
(781,0,l),
(763.562,700,l),
(716.562,700,l),
(403.384,99,l),
(441.384,99,l),
(270.562,700,l),
(223.562,700,l)
);
}
);
width = 890;
},
{
layerId = "6FC0E451-EFB7-4D7C-9E66-A10B69A48177";
shapes = (
{
closed = 1;
nodes = (
(56,0,l),
(85,0,l),
(243,607,l),
(232,607,l),
(401,0,l),
(414,0,l),
(734,604,l),
(729,604,l),
(734,0,l),
(766,0,l),
(767,700,l),
(756,700,l),
(416,60,l),
(417,60,l),
(239,700,l),
(228,700,l)
);
}
);
width = 890;
},
{
layerId = "FDA1CA61-DAB6-440F-86AE-A1833308297E";
shapes = (
{
closed = 1;
nodes = (
(33,0,l),
(199,0,l),
(255,439,l),
(225,439,l),
(404,0,l),
(480,0,l),
(653,438,l),
(624,438,l),
(684,0,l),
(857,0,l),
(761,700,l),
(601,700,l),
(400,172,l),
(489,183,l),
(280,700,l),
(120,700,l)
);
}
);
width = 890;
},
{
layerId = "C0F60499-8BC0-4CEA-B9B1-C7852A3AB7A6";
shapes = (
{
closed = 1;
nodes = (
(41,0,l),
(185,0,l),
(247,486,l),
(208,486,l),
(411,0,l),
(472,0,l),
(672,494,l),
(631,494,l),
(699,0,l),
(848,0,l),
(750,700,l),
(621,700,l),
(406,157,l),
(482,165,l),
(259,700,l),
(129,700,l)
);
}
);
width = 890;
},
{
layerId = "A6FAFB92-F521-4DD4-A95F-C39B9C67A836";
shapes = (
{
closed = 1;
nodes = (
(75,0,l),
(148,0,l),
(221,562,l),
(199,562,l),
(432,-5,l),
(451,-5,l),
(677,561,l),
(660,561,l),
(743,0,l),
(815,0,l),
(710,700,l),
(663,700,l),
(425,99,l),
(463,99,l),
(217,700,l),
(170,700,l)
);
}
);
width = 890;
},
{
layerId = "EB11814A-7CD7-4F83-85D3-A70914269335";
shapes = (
{
closed = 1;
nodes = (
(90,0,l),
(119,0,l),
(201,607,l),
(190,607,l),
(435,0,l),
(448,0,l),
(692,604,l),
(687,604,l),
(768,0,l),
(800,0,l),
(713,700,l),
(702,700,l),
(442,60,l),
(443,60,l),
(185,700,l),
(174,700,l)
);
}
);
width = 890;
}
);
unicode = 77;
},
{
glyphname = N;
layers = (
{
layerId = "F6B38B84-4AA5-4989-9E13-2A308B5F1025";
shapes = (
{
closed = 1;
nodes = (
(40,0,l),
(220,0,l),
(274.664,437,l),
(230.664,437,l),
(546,0,l),
(665,0,l),
(752.562,700,l),
(572.562,700,l),
(515.647,245,l),
(580.647,245,l),
(255.562,700,l),
(127.562,700,l)
);
}
);
width = 773;
},
{
layerId = "FF7033E7-E079-48F6-9418-777F925FA922";
shapes = (
{
closed = 1;
nodes = (
(50,0,l),
(204,0,l),
(263.292,474,l),
(221.292,474,l),
(555,0,l),
(654,0,l),
(741.562,700,l),
(587.562,700,l),
(527.144,217,l),
(583.144,217,l),
(246.562,700,l),
(137.562,700,l)
);
}
);
width = 773;
},
{
layerId = "C6F2FD9D-3429-4F2B-9903-30CCFB382AAD";
shapes = (
{
closed = 1;
nodes = (
(80,0,l),
(154,0,l),
(227.427,587,l),
(200.427,587,l),
(583,0,l),
(625,0,l),
(712.562,700,l),
(638.562,700,l),
(567.011,128,l),
(594.011,128,l),
(222.562,700,l),
(167.562,700,l)
);
}
);
width = 773;
},
{
layerId = "6FC0E451-EFB7-4D7C-9E66-A10B69A48177";
shapes = (
{
closed = 1;
nodes = (
(100,0,l),
(133,0,l),
(215,655,l),
(182,655,l),
(595,0,l),
(605,0,l),
(693,700,l),
(660,700,l),
(580,61,l),
(597,61,l),
(194,700,l),
(188,700,l)
);
}
);
width = 773;
},
{
layerId = "FDA1CA61-DAB6-440F-86AE-A1833308297E";
shapes = (
{
closed = 1;
nodes = (
(74,0,l),
(254,0,l),
(254,437,l),
(210,437,l),
(580,0,l),
(699,0,l),
(699,700,l),
(519,700,l),
(519,245,l),
(584,245,l),
(202,700,l),
(74,700,l)
);
}
);
width = 773;
},
{
layerId = "C0F60499-8BC0-4CEA-B9B1-C7852A3AB7A6";
shapes = (
{
closed = 1;
nodes = (
(84,0,l),
(238,0,l),
(238,474,l),
(196,474,l),
(589,0,l),
(688,0,l),
(688,700,l),
(534,700,l),
(534,217,l),
(590,217,l),
(193,700,l),
(84,700,l)
);
}
);
width = 773;
},
{
layerId = "A6FAFB92-F521-4DD4-A95F-C39B9C67A836";
shapes = (
{
closed = 1;
nodes = (
(114,0,l),
(188,0,l),
(188,587,l),
(161,587,l),
(617,0,l),
(659,0,l),
(659,700,l),
(585,700,l),
(585,128,l),
(612,128,l),
(169,700,l),
(114,700,l)
);
}
);
width = 773;
},
{
layerId = "EB11814A-7CD7-4F83-85D3-A70914269335";
shapes = (
{
closed = 1;
nodes = (
(134,0,l),
(167,0,l),
(167,655,l),
(134,655,l),
(629,0,l),
(639,0,l),
(639,700,l),
(606,700,l),
(606,61,l),
(623,61,l),
(140,700,l),
(134,700,l)
);
}
);
width = 773;
}
);
rightKerningGroup = H;
unicode = 78;
},
{
glyphname = Eng;
layers = (
{
layerId = "F6B38B84-4AA5-4989-9E13-2A308B5F1025";
shapes = (
{
closed = 1;
nodes = (
(30,0,l),
(210,0,l),
(271,489,l),
(202,489,l),
(501,7,l),
(630,158,l),
(296,700,l),
(118,700,l)
);
},
{
closed = 1;
nodes = (
(455,-275,o),
(547,-245,o),
(618,-182,o),
(664,-85,o),
(673,-19,qs),
(763,700,l),
(583,700,l),
(493,-12,ls),
(487,-67,o),
(445,-120,o),
(407,-120,qs),
(398,-120,o),
(375,-117,o),
(367,-114,q),
(347,-269,l),
(355,-271,o),
(378,-275,o),
(400,-275,qs)
);
}
);
width = 773;
},
{
layerId = "FF7033E7-E079-48F6-9418-777F925FA922";
shapes = (
{
closed = 1;
nodes = (
(43,0,l),
(197,0,l),
(262,521,l),
(196,521,l),
(517,15,l),
(623,146,l),
(276,700,l),
(131,700,l)
);
},
{
closed = 1;
nodes = (
(456,-258,o),
(543,-230,o),
(609,-171,o),
(652,-81,o),
(660,-19,qs),
(750,700,l),
(596,700,l),
(506,-12,ls),
(499,-70,o),
(453,-125,o),
(411,-125,qs),
(401,-125,o),
(379,-122,o),
(370,-119,q),
(353,-252,l),
(361,-254,o),
(384,-258,o),
(405,-258,qs)
);
}
);
width = 773;
},
{
layerId = "C6F2FD9D-3429-4F2B-9903-30CCFB382AAD";
shapes = (
{
closed = 1;
nodes = (
(80,0,l),
(154,0,l),
(228,589,l),
(200,589,l),
(570,21,l),
(585,142,l),
(223,700,l),
(168,700,l)
);
},
{
closed = 1;
nodes = (
(461,-215,o),
(530,-191,o),
(582,-142,o),
(616,-69,o),
(623,-19,qs),
(713,700,l),
(639,700,l),
(549,-12,ls),
(541,-81,o),
(484,-143,o),
(424,-143,qs),
(414,-143,o),
(390,-140,o),
(382,-137,q),
(373,-209,l),
(381,-211,o),
(402,-215,o),
(419,-215,qs)
);
}
);
width = 773;
},
{
layerId = "6FC0E451-EFB7-4D7C-9E66-A10B69A48177";
shapes = (
{
closed = 1;
nodes = (
(100,0,l),
(133,0,l),
(215,654,l),
(183,654,l),
(593,4,l),
(599,57,l),
(194,700,l),
(188,700,l)
);
},
{
closed = 1;
nodes = (
(465,-179,o),
(523,-160,o),
(569,-122,o),
(597,-61,o),
(603,-19,qs),
(693,700,l),
(660,700,l),
(570,-12,ls),
(562,-81,o),
(493,-147,o),
(429,-147,qs),
(419,-147,o),
(395,-144,o),
(386,-141,q),
(382,-173,l),
(390,-175,o),
(411,-179,o),
(428,-179,qs)
);
}
);
width = 773;
},
{
layerId = "FDA1CA61-DAB6-440F-86AE-A1833308297E";
shapes = (
{
closed = 1;
nodes = (
(64,0,l),
(244,0,l),
(244,489,l),
(175,489,l),
(534,7,l),
(644,158,l),
(242,700,l),
(64,700,l)
);
},
{
closed = 1;
nodes = (
(523,-275,o),
(612,-245,o),
(675,-182,o),
(709,-85,o),
(709,-19,qs),
(709,700,l),
(529,700,l),
(529,-12,ls),
(529,-67,o),
(494,-120,o),
(456,-120,qs),
(447,-120,o),
(424,-117,o),
(415,-114,q),
(415,-269,l),
(423,-271,o),
(446,-275,o),
(468,-275,qs)
);
}
);
width = 773;
},
{
layerId = "C0F60499-8BC0-4CEA-B9B1-C7852A3AB7A6";
shapes = (
{
closed = 1;
nodes = (
(77,0,l),
(231,0,l),
(231,521,l),
(165,521,l),
(549,15,l),
(639,146,l),
(222,700,l),
(77,700,l)
);
},
{
closed = 1;
nodes = (
(522,-258,o),
(606,-230,o),
(664,-171,o),
(696,-81,o),
(696,-19,qs),
(696,700,l),
(542,700,l),
(542,-12,ls),
(542,-70,o),
(503,-125,o),
(461,-125,qs),
(451,-125,o),
(428,-122,o),
(419,-119,q),
(419,-252,l),
(427,-254,o),
(450,-258,o),
(471,-258,qs)
);
}
);
width = 773;
},
{
layerId = "A6FAFB92-F521-4DD4-A95F-C39B9C67A836";
shapes = (
{
closed = 1;
nodes = (
(114,0,l),
(188,0,l),
(188,589,l),
(160,589,l),
(601,21,l),
(601,142,l),
(169,700,l),
(114,700,l)
);
},
{
closed = 1;
nodes = (
(522,-215,o),
(588,-191,o),
(634,-142,o),
(659,-69,o),
(659,-19,qs),
(659,700,l),
(585,700,l),
(585,-12,ls),
(585,-81,o),
(536,-143,o),
(476,-143,qs),
(466,-143,o),
(442,-140,o),
(433,-137,q),
(433,-209,l),
(441,-211,o),
(463,-215,o),
(480,-215,qs)
);
}
);
width = 773;
},
{
layerId = "EB11814A-7CD7-4F83-85D3-A70914269335";
shapes = (
{
closed = 1;
nodes = (
(134,0,l),
(167,0,l),
(167,654,l),
(135,654,l),
(626,4,l),
(626,57,l),
(140,700,l),
(134,700,l)
);
},
{
closed = 1;
nodes = (
(521,-179,o),
(577,-160,o),
(618,-122,o),
(639,-61,o),
(639,-19,qs),
(639,700,l),
(606,700,l),
(606,-12,ls),
(606,-81,o),
(545,-147,o),
(481,-147,qs),
(471,-147,o),
(447,-144,o),
(438,-141,q),
(438,-173,l),
(446,-175,o),
(467,-179,o),
(484,-179,qs)
);
}
);
width = 773;
}
);
rightKerningGroup = H;
unicode = 330;
},
{
glyphname = O;
layers = (
{
layerId = "F6B38B84-4AA5-4989-9E13-2A308B5F1025";
shapes = (
{
closed = 1;
nodes = (
(342.888,143,o),
(297.264,162,o),
(267.767,198,cs),
(238.146,233,o),
(224.525,284,o),
(232.906,351,cs),
(249.293,482,o),
(319.049,560,o),
(452.049,560,cs),
(508.049,560,o),
(554.673,541,o),
(584.295,506,cs),
(613.792,470,o),
(627.287,418,o),
(618.906,351,cs),
(602.519,220,o),
(532.888,143,o),
(399.888,143,cs)
);
},
{
closed = 1;
nodes = (
(613.124,-7,o),
(774.51,116,o),
(803.906,351,cs),
(817.416,459,o),
(790.548,548,o),
(731.554,612,cs),
(672.435,675,o),
(582.813,710,o),
(470.813,710,cs),
(237.813,710,o),
(77.427,587,o),
(47.906,351,cs),
(34.396,243,o),
(60.264,154,o),
(117.383,91,cs),
(174.502,28,o),
(265.124,-7,o),
(381.124,-7,cs)
);
}
);
width = 832;
},
{
layerId = "FF7033E7-E079-48F6-9418-777F925FA922";
shapes = (
{
closed = 1;
nodes = (
(334.261,122,o),
(284.013,144,o),
(251.016,184,cs),
(217.895,223,o),
(203.025,280,o),
(211.906,351,cs),
(229.669,493,o),
(309.551,580,o),
(454.551,580,cs),
(517.551,580,o),
(567.799,558,o),
(600.921,519,cs),
(633.917,479,o),
(648.787,422,o),
(639.906,351,cs),
(622.269,210,o),
(541.261,122,o),
(397.261,122,cs)
);
},
{
closed = 1;
nodes = (
(614.999,-8,o),
(769.26,114,o),
(798.781,350,cs),
(812.165,457,o),
(785.423,547,o),
(728.429,611,cs),
(671.31,674,o),
(581.813,710,o),
(470.813,710,cs),
(238.813,710,o),
(82.177,585,o),
(52.906,351,cs),
(39.522,244,o),
(64.389,155,o),
(121.508,92,cs),
(178.502,28,o),
(267.999,-8,o),
(380.999,-8,cs)
);
}
);
width = 832;
},
{
layerId = "C6F2FD9D-3429-4F2B-9903-30CCFB382AAD";
shapes = (
{
closed = 1;
nodes = (
(309.755,62,o),
(244.508,92,o),
(201.013,144,cs),
(157.392,195,o),
(136.273,266,o),
(146.781,350,cs),
(168.796,526,o),
(284.806,638,o),
(461.806,638,cs),
(541.806,638,o),
(608.054,608,o),
(651.674,557,cs),
(695.17,505,o),
(715.288,434,o),
(704.781,350,cs),
(682.765,174,o),
(566.755,62,o),
(389.755,62,cs)
);
},
{
closed = 1;
nodes = (
(606.749,-10,o),
(752.386,123,o),
(780.656,349,cs),
(793.54,452,o),
(769.673,541,o),
(715.804,606,cs),
(661.934,671,o),
(577.813,710,o),
(470.813,710,cs),
(245.813,710,o),
(99.051,576,o),
(70.906,351,cs),
(58.272,250,o),
(82.889,159,o),
(136.758,94,cs),
(190.628,29,o),
(273.749,-10,o),
(380.749,-10,cs)
);
}
);
width = 832;
},
{
layerId = "6FC0E451-EFB7-4D7C-9E66-A10B69A48177";
shapes = (
{
closed = 1;
nodes = (
(296,21,o),
(221,57,o),
(173,117,cs),
(124,176,o),
(99,257,o),
(111,350,cs),
(136,546,o),
(267,678,o),
(467,678,cs),
(556,678,o),
(629,642,o),
(678,583,cs),
(726,524,o),
(752,443,o),
(740,350,cs),
(715,155,o),
(583,21,o),
(385,21,cs)
);
},
{
closed = 1;
nodes = (
(600,-11,o),
(748,133,o),
(773,348,cs),
(785,451,o),
(759,541,o),
(704,606,cs),
(649,671,o),
(567,710,o),
(471,710,cs),
(254,710,o),
(105,566,o),
(78,351,cs),
(65,248,o),
(93,158,o),
(148,93,cs),
(203,28,o),
(285,-11,o),
(381,-11,cs)
);
}
);
width = 832;
},
{
layerId = "FDA1CA61-DAB6-440F-86AE-A1833308297E";
shapes = (
{
closed = 1;
nodes = (
(359,143,o),
(311,162,o),
(277,198,cs),
(243,233,o),
(223,284,o),
(223,351,cs),
(223,472,o),
(290,560,o),
(416,560,cs),
(472,560,o),
(521,541,o),
(555,506,cs),
(589,470,o),
(609,418,o),
(609,351,cs),
(609,230,o),
(542,143,o),
(416,143,cs)
);
},
{
closed = 1;
nodes = (
(630,-7,o),
(794,131,o),
(794,351,cs),
(794,459,o),
(756,548,o),
(689,612,cs),
(622,675,o),
(528,710,o),
(416,710,cs),
(201,710,o),
(38,572,o),
(38,351,cs),
(38,243,o),
(75,154,o),
(140,91,cs),
(205,28,o),
(300,-7,o),
(416,-7,cs)
);
}
);
width = 832;
},
{
layerId = "C0F60499-8BC0-4CEA-B9B1-C7852A3AB7A6";
shapes = (
{
closed = 1;
nodes = (
(353,122,o),
(300,144,o),
(262,184,cs),
(224,223,o),
(202,280,o),
(202,351,cs),
(202,482,o),
(280,580,o),
(416,580,cs),
(479,580,o),
(532,558,o),
(570,519,cs),
(608,479,o),
(630,422,o),
(630,351,cs),
(630,221,o),
(551,122,o),
(416,122,cs)
);
},
{
closed = 1;
nodes = (
(628,-8,o),
(789,133,o),
(789,350,cs),
(789,457,o),
(751,547,o),
(686,611,cs),
(621,674,o),
(527,710,o),
(416,710,cs),
(202,710,o),
(43,569,o),
(43,351,cs),
(43,244,o),
(79,155,o),
(144,92,cs),
(209,28,o),
(303,-8,o),
(416,-8,cs)
);
}
);
width = 832;
},
{
layerId = "A6FAFB92-F521-4DD4-A95F-C39B9C67A836";
shapes = (
{
closed = 1;
nodes = (
(336,62,o),
(267,92,o),
(217,144,cs),
(167,195,o),
(137,266,o),
(137,350,cs),
(137,512,o),
(252,638,o),
(416,638,cs),
(496,638,o),
(566,608,o),
(616,557,cs),
(666,505,o),
(695,434,o),
(695,350,cs),
(695,188,o),
(581,62,o),
(416,62,cs)
);
},
{
closed = 1;
nodes = (
(625,-10,o),
(771,141,o),
(771,349,cs),
(771,452,o),
(736,541,o),
(674,606,cs),
(612,671,o),
(523,710,o),
(416,710,cs),
(208,710,o),
(61,558,o),
(61,351,cs),
(61,250,o),
(97,159,o),
(159,94,cs),
(221,29,o),
(309,-10,o),
(416,-10,cs)
);
}
);
width = 832;
},
{
layerId = "EB11814A-7CD7-4F83-85D3-A70914269335";
shapes = (
{
closed = 1;
nodes = (
(327,21,o),
(248,57,o),
(192,117,cs),
(136,176,o),
(101,257,o),
(101,350,cs),
(101,528,o),
(234,678,o),
(416,678,cs),
(505,678,o),
(583,642,o),
(639,583,cs),
(695,524,o),
(730,443,o),
(730,350,cs),
(730,173,o),
(598,21,o),
(416,21,cs)
);
},
{
closed = 1;
nodes = (
(615,-11,o),
(763,152,o),
(763,348,cs),
(763,451,o),
(725,541,o),
(662,606,cs),
(599,671,o),
(512,710,o),
(416,710,cs),
(217,710,o),
(68,547,o),
(68,351,cs),
(68,248,o),
(107,158,o),
(170,93,cs),
(233,28,o),
(320,-11,o),
(416,-11,cs)
);
}
);
width = 832;
}
);
leftKerningGroup = C2;
rightKerningGroup = D;
unicode = 79;
},
{
glyphname = Oslash;
layers = (
{
layerId = "F6B38B84-4AA5-4989-9E13-2A308B5F1025";
shapes = (
{
closed = 1;
nodes = (
(832.931,639,l),
(752.814,726,l),
(16.129,49,l),
(96.247,-38,l)
);
},
{
closed = 1;
nodes = (
(342.888,143,o),
(297.264,162,o),
(267.767,198,cs),
(238.146,233,o),
(224.525,284,o),
(232.906,351,cs),
(249.293,482,o),
(319,560,o),
(452.049,560,cs),
(508.049,560,o),
(554.673,541,o),
(584.295,506,cs),
(613.792,470,o),
(627.287,418,o),
(618.906,351,cs),
(602.519,220,o),
(533,143,o),
(399.888,143,cs)
);
},
{
closed = 1;
nodes = (
(613.124,-7,o),
(774.51,116,o),
(803.906,351,cs),
(817.416,459,o),
(790.548,548,o),
(731.554,612,cs),
(672.435,675,o),
(582.813,710,o),
(470.813,710,cs),
(219.813,710,o),
(79.303,602,o),
(47.906,351,cs),
(34.396,243,o),
(60.264,154,o),
(117.383,91,cs),
(174.502,28,o),
(265.124,-7,o),
(381.124,-7,cs)
);
}
);
width = 832;
},
{
layerId = "FF7033E7-E079-48F6-9418-777F925FA922";
shapes = (
{
closed = 1;
nodes = (
(833.307,642,l),
(762.189,721,l),
(21.129,49,l),
(92.247,-30,l)
);
},
{
closed = 1;
nodes = (
(334.261,122,o),
(284.013,144,o),
(251.016,184,cs),
(217.895,223,o),
(203.025,280,o),
(211.906,351,cs),
(229.919,495,o),
(308,580,o),
(454.551,580,cs),
(517.551,580,o),
(567.799,558,o),
(600.921,519,cs),
(633.917,479,o),
(648.787,422,o),
(639.906,351,cs),
(622.269,210,o),
(541,122,o),
(397.261,122,cs)
);
},
{
closed = 1;
nodes = (
(610.999,-8,o),
(769.635,117,o),
(798.781,350,cs),
(812.165,457,o),
(785.423,547,o),
(728.429,611,cs),
(671.31,674,o),
(581.813,710,o),
(470.813,710,cs),
(238.813,710,o),
(82.177,585,o),
(52.906,351,cs),
(39.522,244,o),
(64.389,155,o),
(121.508,92,cs),
(178.502,28,o),
(267.999,-8,o),
(380.999,-8,cs)
);
}
);
width = 832;
},
{
layerId = "C6F2FD9D-3429-4F2B-9903-30CCFB382AAD";
shapes = (
{
closed = 1;
nodes = (
(817.307,650,l),
(774.687,701,l),
(35.63,53,l),
(77.375,3,l)
);
},
{
closed = 1;
nodes = (
(309.755,62,o),
(244.508,92,o),
(201.013,144,cs),
(157.392,195,o),
(136.273,266,o),
(146.781,350,cs),
(169.172,529,o),
(283,638,o),
(461.806,638,cs),
(541.806,638,o),
(608.054,608,o),
(651.674,557,cs),
(695.17,505,o),
(715.288,434,o),
(704.781,350,cs),
(682.39,171,o),
(570,62,o),
(389.755,62,cs)
);
},
{
closed = 1;
nodes = (
(606.749,-10,o),
(752.386,123,o),
(780.656,349,cs),
(793.54,452,o),
(769.673,541,o),
(715.804,606,cs),
(661.934,671,o),
(577.813,710,o),
(470.813,710,cs),
(245.813,710,o),
(99.051,576,o),
(70.906,351,cs),
(58.272,250,o),
(82.889,159,o),
(136.758,94,cs),
(190.628,29,o),
(273.749,-10,o),
(380.749,-10,cs)
);
}
);
width = 832;
},
{
layerId = "6FC0E451-EFB7-4D7C-9E66-A10B69A48177";
shapes = (
{
closed = 1;
nodes = (
(811,673,l),
(793,694,l),
(39,38,l),
(58,16,l)
);
},
{
closed = 1;
nodes = (
(296,21,o),
(221,57,o),
(173,117,cs),
(124,176,o),
(99,257,o),
(111,350,cs),
(135,539,o),
(274,678,o),
(467,678,cs),
(556,678,o),
(629,642,o),
(678,583,cs),
(726,524,o),
(752,443,o),
(740,350,cs),
(715,155,o),
(583,21,o),
(385,21,cs)
);
},
{
closed = 1;
nodes = (
(600,-11,o),
(748,133,o),
(773,348,cs),
(785,451,o),
(759,541,o),
(704,606,cs),
(649,671,o),
(567,710,o),
(471,710,cs),
(254,710,o),
(105,566,o),
(78,351,cs),
(65,248,o),
(93,158,o),
(148,93,cs),
(203,28,o),
(285,-11,o),
(381,-11,cs)
);
}
);
width = 832;
},
{
layerId = "FDA1CA61-DAB6-440F-86AE-A1833308297E";
shapes = (
{
closed = 1;
nodes = (
(787,639,l),
(696,726,l),
(44,49,l),
(135,-38,l)
);
},
{
closed = 1;
nodes = (
(359,143,o),
(311,162,o),
(277,198,cs),
(243,233,o),
(223,284,o),
(223,351,cs),
(223,472,o),
(290,560,o),
(416,560,cs),
(472,560,o),
(521,541,o),
(555,506,cs),
(589,470,o),
(609,418,o),
(609,351,cs),
(609,230,o),
(542,143,o),
(416,143,cs)
);
},
{
closed = 1;
nodes = (
(630,-7,o),
(794,131,o),
(794,351,cs),
(794,459,o),
(756,548,o),
(689,612,cs),
(622,675,o),
(528,710,o),
(416,710,cs),
(201,710,o),
(38,572,o),
(38,351,cs),
(38,243,o),
(75,154,o),
(140,91,cs),
(205,28,o),
(300,-7,o),
(416,-7,cs)
);
}
);
width = 832;
},
{
layerId = "C0F60499-8BC0-4CEA-B9B1-C7852A3AB7A6";
shapes = (
{
closed = 1;
nodes = (
(787,642,l),
(706,721,l),
(49,49,l),
(130,-30,l)
);
},
{
closed = 1;
nodes = (
(353,122,o),
(300,144,o),
(262,184,cs),
(224,223,o),
(202,280,o),
(202,351,cs),
(202,482,o),
(280,580,o),
(416,580,cs),
(479,580,o),
(532,558,o),
(570,519,cs),
(608,479,o),
(630,422,o),
(630,351,cs),
(630,221,o),
(551,122,o),
(416,122,cs)
);
},
{
closed = 1;
nodes = (
(628,-8,o),
(789,133,o),
(789,350,cs),
(789,457,o),
(751,547,o),
(686,611,cs),
(621,674,o),
(527,710,o),
(416,710,cs),
(202,710,o),
(43,569,o),
(43,351,cs),
(43,244,o),
(79,155,o),
(144,92,cs),
(209,28,o),
(303,-8,o),
(416,-8,cs)
);
}
);
width = 832;
},
{
layerId = "A6FAFB92-F521-4DD4-A95F-C39B9C67A836";
shapes = (
{
closed = 1;
nodes = (
(770,650,l),
(721,701,l),
(63,53,l),
(111,3,l)
);
},
{
closed = 1;
nodes = (
(336,62,o),
(267,92,o),
(217,144,cs),
(167,195,o),
(137,266,o),
(137,350,cs),
(137,512,o),
(252,638,o),
(416,638,cs),
(496,638,o),
(566,608,o),
(616,557,cs),
(666,505,o),
(695,434,o),
(695,350,cs),
(695,188,o),
(581,62,o),
(416,62,cs)
);
},
{
closed = 1;
nodes = (
(625,-10,o),
(771,141,o),
(771,349,cs),
(771,452,o),
(736,541,o),
(674,606,cs),
(612,671,o),
(523,710,o),
(416,710,cs),
(208,710,o),
(61,558,o),
(61,351,cs),
(61,250,o),
(97,159,o),
(159,94,cs),
(221,29,o),
(309,-10,o),
(416,-10,cs)
);
}
);
width = 832;
},
{
layerId = "EB11814A-7CD7-4F83-85D3-A70914269335";
shapes = (
{
closed = 1;
nodes = (
(761,673,l),
(740,694,l),
(68,38,l),
(90,16,l)
);
},
{
closed = 1;
nodes = (
(327,21,o),
(248,57,o),
(192,117,cs),
(136,176,o),
(101,257,o),
(101,350,cs),
(101,528,o),
(234,678,o),
(416,678,cs),
(505,678,o),
(583,642,o),
(639,583,cs),
(695,524,o),
(730,443,o),
(730,350,cs),
(730,173,o),
(598,21,o),
(416,21,cs)
);
},
{
closed = 1;
nodes = (
(615,-11,o),
(763,152,o),
(763,348,cs),
(763,451,o),
(725,541,o),
(662,606,cs),
(599,671,o),
(512,710,o),
(416,710,cs),
(217,710,o),
(68,547,o),
(68,351,cs),
(68,248,o),
(107,158,o),
(170,93,cs),
(233,28,o),
(320,-11,o),
(416,-11,cs)
);
}
);
width = 832;
}
);
leftKerningGroup = C2;
rightKerningGroup = D;
unicode = 216;
},
{
glyphname = OE;
layers = (
{
layerId = "F6B38B84-4AA5-4989-9E13-2A308B5F1025";
shapes = (
{
closed = 1;
nodes = (
(844,0,l),
(863,150,l),
(617,150,l),
(636,300,l),
(802,300,l),
(820,444,l),
(654,444,l),
(667,550,l),
(902,550,l),
(921,700,l),
(456,700,ls),
(213,700,o),
(68,588,o),
(40,346,cs),
(28,242,o),
(51,156,o),
(108,96,cs),
(164,35,o),
(255,0,o),
(376,0,cs)
);
},
{
closed = 1;
nodes = (
(388,150,ls),
(331,150,o),
(287,170,o),
(261,204,cs),
(235,238,o),
(223,287,o),
(231,348,c),
(245,478,o),
(310,550,o),
(442,550,cs),
(487,550,l),
(437,150,l)
);
}
);
width = 908;
},
{
layerId = "FF7033E7-E079-48F6-9418-777F925FA922";
shapes = (
{
closed = 1;
nodes = (
(836,0,l),
(852,130,l),
(590,130,l),
(613,310,l),
(800,310,l),
(816,436,l),
(629,436,l),
(645,570,l),
(896,570,l),
(913,700,l),
(462,700,ls),
(220,700,o),
(75,587,o),
(45,345,cs),
(32,241,o),
(56,155,o),
(112,95,cs),
(168,35,o),
(259,0,o),
(380,0,cs)
);
},
{
closed = 1;
nodes = (
(392,130,ls),
(327,130,o),
(276,151,o),
(244,189,cs),
(212,227,o),
(199,281,o),
(208,349,cs),
(227,496,o),
(302,569,o),
(450,569,cs),
(491,569,l),
(436,130,l)
);
}
);
width = 908;
},
{
layerId = "C6F2FD9D-3429-4F2B-9903-30CCFB382AAD";
shapes = (
{
closed = 1;
nodes = (
(796,0,l),
(805,70,l),
(515,70,l),
(549,340,l),
(780,340,l),
(788,410,l),
(557,410,l),
(585,630,l),
(865,630,l),
(874,700,l),
(485,700,ls),
(249,700,o),
(102,586,o),
(71,350,cs),
(58,250,o),
(80,162,o),
(136,100,cs),
(192,38,o),
(280,0,o),
(397,0,cs)
);
},
{
closed = 1;
nodes = (
(414,70,ls),
(322,70,o),
(250,96,o),
(203,144,cs),
(156,192,o),
(136,263,o),
(147,351,cs),
(171,541,o),
(296,630,o),
(484,630,cs),
(511,630,l),
(441,70,l)
);
}
);
width = 908;
},
{
layerId = "6FC0E451-EFB7-4D7C-9E66-A10B69A48177";
shapes = (
{
closed = 1;
nodes = (
(785,0,l),
(789,31,l),
(466,31,l),
(508,364,l),
(770,364,l),
(773,395,l),
(511,395,l),
(546,669,l),
(859,669,l),
(863,700,l),
(498,700,ls),
(253,700,o),
(111,589,o),
(82,346,cs),
(70,245,o),
(93,157,o),
(150,96,cs),
(206,35,o),
(295,0,o),
(410,0,cs)
);
},
{
closed = 1;
nodes = (
(412,31,ls),
(309,31,o),
(230,65,o),
(179,121,cs),
(127,177,o),
(104,255,o),
(115,347,cs),
(142,570,o),
(266,669,o),
(490,669,cs),
(513,669,l),
(433,31,l)
);
}
);
width = 908;
},
{
layerId = "FDA1CA61-DAB6-440F-86AE-A1833308297E";
shapes = (
{
closed = 1;
nodes = (
(878,0,l),
(878,150,l),
(632,150,l),
(632,300,l),
(798,300,l),
(798,444,l),
(632,444,l),
(632,550,l),
(867,550,l),
(867,700,l),
(402,700,ls),
(184,700,o),
(31,571,o),
(31,346,cs),
(31,242,o),
(65,156,o),
(130,96,cs),
(194,35,o),
(289,0,o),
(410,0,cs)
);
},
{
closed = 1;
nodes = (
(403,150,ls),
(346,150,o),
(300,170,o),
(269,204,cs),
(238,238,o),
(221,287,o),
(221,348,cs),
(221,467,o),
(283,550,o),
(407,550,cs),
(452,550,l),
(452,150,l)
);
}
);
width = 908;
},
{
layerId = "C0F60499-8BC0-4CEA-B9B1-C7852A3AB7A6";
shapes = (
{
closed = 1;
nodes = (
(870,0,l),
(870,130,l),
(608,130,l),
(608,310,l),
(795,310,l),
(795,436,l),
(608,436,l),
(608,570,l),
(859,570,l),
(859,700,l),
(408,700,ls),
(191,700,o),
(36,569,o),
(36,345,cs),
(36,241,o),
(70,155,o),
(134,95,cs),
(198,35,o),
(293,0,o),
(414,0,cs)
);
},
{
closed = 1;
nodes = (
(410,130,ls),
(345,130,o),
(291,151,o),
(255,189,cs),
(218,227,o),
(198,281,o),
(198,349,cs),
(198,484,o),
(277,569,o),
(413,569,cs),
(454,569,l),
(454,130,l)
);
}
);
width = 908;
},
{
layerId = "A6FAFB92-F521-4DD4-A95F-C39B9C67A836";
shapes = (
{
closed = 1;
nodes = (
(830,0,l),
(830,70,l),
(540,70,l),
(540,340,l),
(771,340,l),
(771,410,l),
(540,410,l),
(540,630,l),
(820,630,l),
(820,700,l),
(431,700,ls),
(219,700,o),
(61,570,o),
(61,350,cs),
(61,250,o),
(94,162,o),
(158,100,cs),
(221,38,o),
(314,0,o),
(431,0,cs)
);
},
{
closed = 1;
nodes = (
(439,70,ls),
(347,70,o),
(271,96,o),
(219,144,cs),
(166,192,o),
(137,263,o),
(137,351,cs),
(137,531,o),
(267,630,o),
(439,630,cs),
(466,630,l),
(466,70,l)
);
}
);
width = 908;
},
{
layerId = "EB11814A-7CD7-4F83-85D3-A70914269335";
shapes = (
{
closed = 1;
nodes = (
(819,0,l),
(819,31,l),
(496,31,l),
(496,364,l),
(758,364,l),
(758,395,l),
(496,395,l),
(496,669,l),
(809,669,l),
(809,700,l),
(444,700,ls),
(222,700,o),
(73,572,o),
(73,346,cs),
(73,245,o),
(107,157,o),
(172,96,cs),
(236,35,o),
(329,0,o),
(444,0,cs)
);
},
{
closed = 1;
nodes = (
(442,31,ls),
(339,31,o),
(256,65,o),
(198,121,cs),
(140,177,o),
(106,255,o),
(106,347,cs),
(106,554,o),
(237,669,o),
(440,669,cs),
(463,669,l),
(463,31,l)
);
}
);
width = 908;
}
);
leftKerningGroup = C2;
rightKerningGroup = E;
unicode = 338;
},
{
glyphname = P;
layers = (
{
layerId = "F6B38B84-4AA5-4989-9E13-2A308B5F1025";
shapes = (
{
closed = 1;
nodes = (
(112.562,700,l),
(25,0,l),
(205,0,l),
(233.77,230,l),
(269.77,230,ls),
(436.77,230,o),
(558.776,294,o),
(580.792,470,cs),
(590.423,547,o),
(571.678,605,o),
(529.432,643,cs),
(487.185,681,o),
(422.562,700,o),
(338.562,700,cs)
);
},
{
closed = 1;
nodes = (
(252.534,380,l),
(273.799,550,l),
(299.799,550,ls),
(342.799,550,o),
(368.548,540,o),
(382.671,525,cs),
(396.67,509,o),
(400.168,489,o),
(397.291,466,cs),
(389.16,401,o),
(339.534,380,o),
(281.534,380,cs)
);
}
);
width = 577;
},
{
layerId = "FF7033E7-E079-48F6-9418-777F925FA922";
shapes = (
{
closed = 1;
nodes = (
(126.562,700,l),
(39,0,l),
(193,0,l),
(223.522,244,l),
(279.522,244,ls),
(438.522,244,o),
(553.902,311,o),
(574.667,477,cs),
(583.673,549,o),
(565.678,605,o),
(526.432,643,cs),
(486.185,681,o),
(424.562,700,o),
(344.562,700,cs)
);
},
{
closed = 1;
nodes = (
(239.908,375,l),
(264.3,570,l),
(310.3,570,ls),
(354.3,570,o),
(383.049,560,o),
(399.798,542,cs),
(416.546,524,o),
(421.544,500,o),
(418.167,473,cs),
(409.411,403,o),
(350.908,375,o),
(287.908,375,cs)
);
}
);
width = 577;
},
{
layerId = "C6F2FD9D-3429-4F2B-9903-30CCFB382AAD";
shapes = (
{
closed = 1;
nodes = (
(167.562,700,l),
(80,0,l),
(154,0,l),
(190.025,288,l),
(306.025,288,ls),
(439.025,288,o),
(541.032,360,o),
(558.044,496,cs),
(565.049,552,o),
(549.553,604,o),
(515.182,641,c),
(479.685,677,o),
(425.562,700,o),
(357.562,700,cs)
);
},
{
closed = 1;
nodes = (
(198.782,358,l),
(232.806,630,l),
(343.806,630,ls),
(392.806,630,o),
(428.804,614,o),
(452.802,590,cs),
(476.675,565,o),
(486.422,531,o),
(481.794,494,cs),
(470.786,406,o),
(391.782,358,o),
(309.782,358,cs)
);
}
);
width = 577;
},
{
layerId = "6FC0E451-EFB7-4D7C-9E66-A10B69A48177";
shapes = (
{
closed = 1;
nodes = (
(189,700,l),
(101,0,l),
(134,0,l),
(173,311,l),
(325,311,ls),
(444,311,o),
(535,389,o),
(547,507,c),
(554,558,o),
(540,605,o),
(511,641,cs),
(482,677,o),
(434,700,o),
(370,700,cs)
);
},
{
closed = 1;
nodes = (
(177,342,l),
(218,669,l),
(361,669,ls),
(414,669,o),
(454,651,o),
(481,623,cs),
(508,595,o),
(521,554,o),
(514,507,c),
(503,409,o),
(415,342,o),
(319,342,cs)
);
}
);
width = 577;
},
{
layerId = "FDA1CA61-DAB6-440F-86AE-A1833308297E";
shapes = (
{
closed = 1;
nodes = (
(59,700,l),
(59,0,l),
(239,0,l),
(239,230,l),
(275,230,ls),
(430,230,o),
(556,301,o),
(556,470,cs),
(556,547,o),
(530,605,o),
(483,643,cs),
(436,681,o),
(369,700,o),
(285,700,cs)
);
},
{
closed = 1;
nodes = (
(239,380,l),
(239,550,l),
(265,550,ls),
(308,550,o),
(335,540,o),
(351,525,cs),
(367,509,o),
(373,489,o),
(373,466,cs),
(373,401,o),
(326,380,o),
(268,380,cs)
);
}
);
width = 577;
},
{
layerId = "C0F60499-8BC0-4CEA-B9B1-C7852A3AB7A6";
shapes = (
{
closed = 1;
nodes = (
(73,700,l),
(73,0,l),
(227,0,l),
(227,244,l),
(283,244,ls),
(431,244,o),
(549,318,o),
(549,477,cs),
(549,549,o),
(524,605,o),
(480,643,cs),
(435,681,o),
(371,700,o),
(291,700,cs)
);
},
{
closed = 1;
nodes = (
(227,375,l),
(227,570,l),
(273,570,ls),
(317,570,o),
(347,560,o),
(366,542,cs),
(385,524,o),
(393,500,o),
(393,473,cs),
(393,403,o),
(338,375,o),
(275,375,cs)
);
}
);
width = 577;
},
{
layerId = "A6FAFB92-F521-4DD4-A95F-C39B9C67A836";
shapes = (
{
closed = 1;
nodes = (
(114,700,l),
(114,0,l),
(188,0,l),
(188,288,l),
(304,288,ls),
(427,288,o),
(530,368,o),
(530,496,cs),
(530,552,o),
(508,604,o),
(469,641,c),
(429,677,o),
(372,700,o),
(304,700,cs)
);
},
{
closed = 1;
nodes = (
(188,358,l),
(188,630,l),
(299,630,ls),
(348,630,o),
(386,614,o),
(413,590,cs),
(440,565,o),
(454,531,o),
(454,494,cs),
(454,406,o),
(381,358,o),
(299,358,cs)
);
}
);
width = 577;
},
{
layerId = "EB11814A-7CD7-4F83-85D3-A70914269335";
shapes = (
{
closed = 1;
nodes = (
(135,700,l),
(135,0,l),
(168,0,l),
(168,311,l),
(320,311,ls),
(430,311,o),
(518,397,o),
(518,507,cs),
(518,558,o),
(499,605,o),
(465,641,cs),
(431,677,o),
(380,700,o),
(316,700,cs)
);
},
{
closed = 1;
nodes = (
(168,342,l),
(168,669,l),
(311,669,ls),
(364,669,o),
(406,651,o),
(437,623,cs),
(468,595,o),
(485,554,o),
(485,507,cs),
(485,409,o),
(405,342,o),
(310,342,cs)
);
}
);
width = 577;
}
);
unicode = 80;
},
{
glyphname = Thorn;
layers = (
{
layerId = "F6B38B84-4AA5-4989-9E13-2A308B5F1025";
shapes = (
{
closed = 1;
nodes = (
(100,111,l),
(291,111,ls),
(355,111,o),
(458,146,o),
(534,210,o),
(580,299,o),
(587,354,qs),
(594,409,o),
(570,497,o),
(511,558,o),
(416,591,o),
(351,591,qs),
(160,591,l),
(140,431,l),
(326,431,ls),
(350,431,o),
(381,418,o),
(399,395,o),
(406,367,o),
(404,352,qs),
(402,336,o),
(387,307,o),
(361,284,o),
(322,271,o),
(296,271,qs),
(120,271,l)
);
},
{
closed = 1;
nodes = (
(262,700,l),
(82,700,l),
(-6,0,l),
(174,0,l)
);
}
);
width = 567;
},
{
layerId = "FF7033E7-E079-48F6-9418-777F925FA922";
shapes = (
{
closed = 1;
nodes = (
(112,120,l),
(288,120,ls),
(349,120,o),
(448,155,o),
(521,217,o),
(566,303,o),
(572,354,qs),
(579,406,o),
(555,491,o),
(498,551,o),
(407,583,o),
(346,583,qs),
(170,583,l),
(153,445,l),
(323,445,ls),
(350,445,o),
(387,430,o),
(410,404,o),
(417,371,o),
(415,353,qs),
(413,334,o),
(395,299,o),
(364,273,o),
(321,258,o),
(292,258,qs),
(129,258,l)
);
},
{
closed = 1;
nodes = (
(258,700,l),
(104,700,l),
(16,0,l),
(170,0,l)
);
}
);
width = 567;
},
{
layerId = "C6F2FD9D-3429-4F2B-9903-30CCFB382AAD";
shapes = (
{
closed = 1;
nodes = (
(152,154,l),
(284,154,ls),
(335,154,o),
(420,187,o),
(486,244,o),
(526,320,o),
(531,363,qs),
(537,406,o),
(515,481,o),
(464,536,o),
(387,568,o),
(336,568,qs),
(204,568,l),
(195,498,l),
(317,498,ls),
(354,498,o),
(410,477,o),
(445,440,o),
(459,391,o),
(455,362,qs),
(452,333,o),
(425,283,o),
(381,245,o),
(320,224,o),
(283,224,qs),
(161,224,l)
);
},
{
closed = 1;
nodes = (
(242,700,l),
(168,700,l),
(80,0,l),
(154,0,l)
);
}
);
width = 567;
},
{
layerId = "6FC0E451-EFB7-4D7C-9E66-A10B69A48177";
shapes = (
{
closed = 1;
nodes = (
(168,159,l),
(274,159,ls),
(320,159,o),
(400,191,o),
(462,245,o),
(501,316,o),
(505,355,qs),
(510,394,o),
(489,462,o),
(440,515,o),
(368,544,o),
(322,544,qs),
(216,544,l),
(212,513,l),
(306,513,ls),
(349,513,o),
(415,489,o),
(458,447,o),
(476,388,o),
(471,354,qs),
(467,320,o),
(435,260,o),
(382,217,o),
(312,191,o),
(270,191,qs),
(172,191,l)
);
},
{
closed = 1;
nodes = (
(235,700,l),
(203,700,l),
(115,0,l),
(147,0,l)
);
}
);
width = 567;
},
{
layerId = "FDA1CA61-DAB6-440F-86AE-A1833308297E";
shapes = (
{
closed = 1;
nodes = (
(120,111,l),
(311,111,ls),
(375,111,o),
(474,146,o),
(542,210,o),
(577,299,o),
(577,354,qs),
(577,409,o),
(542,497,o),
(475,558,o),
(376,591,o),
(311,591,qs),
(120,591,l),
(120,431,l),
(306,431,ls),
(330,431,o),
(363,418,o),
(384,395,o),
(394,367,o),
(394,352,qs),
(394,336,o),
(383,307,o),
(359,284,o),
(322,271,o),
(296,271,qs),
(120,271,l)
);
},
{
closed = 1;
nodes = (
(208,700,l),
(28,700,l),
(28,0,l),
(208,0,l)
);
}
);
width = 567;
},
{
layerId = "C0F60499-8BC0-4CEA-B9B1-C7852A3AB7A6";
shapes = (
{
closed = 1;
nodes = (
(131,120,l),
(307,120,ls),
(368,120,o),
(463,155,o),
(528,217,o),
(562,303,o),
(562,354,qs),
(562,406,o),
(528,491,o),
(463,551,o),
(368,583,o),
(307,583,qs),
(131,583,l),
(131,445,l),
(301,445,ls),
(328,445,o),
(367,430,o),
(393,404,o),
(405,371,o),
(405,353,qs),
(405,334,o),
(392,299,o),
(364,273,o),
(323,258,o),
(294,258,qs),
(131,258,l)
);
},
{
closed = 1;
nodes = (
(204,700,l),
(50,700,l),
(50,0,l),
(204,0,l)
);
}
);
width = 567;
},
{
layerId = "A6FAFB92-F521-4DD4-A95F-C39B9C67A836";
shapes = (
{
closed = 1;
nodes = (
(167,154,l),
(299,154,ls),
(350,154,o),
(431,187,o),
(489,244,o),
(520,320,o),
(520,363,qs),
(520,406,o),
(489,481,o),
(431,536,o),
(350,568,o),
(299,568,qs),
(167,568,l),
(167,498,l),
(289,498,ls),
(326,498,o),
(384,477,o),
(424,440,o),
(444,391,o),
(444,362,qs),
(444,333,o),
(424,283,o),
(384,245,o),
(326,224,o),
(289,224,qs),
(167,224,l)
);
},
{
closed = 1;
nodes = (
(188,700,l),
(114,700,l),
(114,0,l),
(188,0,l)
);
}
);
width = 567;
},
{
layerId = "EB11814A-7CD7-4F83-85D3-A70914269335";
shapes = (
{
closed = 1;
nodes = (
(182,159,l),
(288,159,ls),
(334,159,o),
(410,191,o),
(465,245,o),
(495,316,o),
(495,355,qs),
(495,394,o),
(465,462,o),
(410,515,o),
(334,544,o),
(288,544,qs),
(182,544,l),
(182,513,l),
(276,513,ls),
(319,513,o),
(388,489,o),
(436,447,o),
(461,388,o),
(461,354,qs),
(461,320,o),
(436,260,o),
(389,217,o),
(322,191,o),
(280,191,qs),
(182,191,l)
);
},
{
closed = 1;
nodes = (
(181,700,l),
(149,700,l),
(149,0,l),
(181,0,l)
);
}
);
width = 567;
}
);
unicode = 222;
},
{
glyphname = Q;
layers = (
{
layerId = "F6B38B84-4AA5-4989-9E13-2A308B5F1025";
shapes = (
{
closed = 1;
nodes = (
(638,-176,l),
(658,-176,l),
(680,0,l),
(463,101,l),
(335,-1,l)
);
},
{
closed = 1;
nodes = (
(343,143,o),
(296,162,o),
(267,198,cs),
(238,233,o),
(225,284,o),
(233,351,cs),
(247,472,o),
(326,560,o),
(452,560,cs),
(508,560,o),
(555,541,o),
(584,506,cs),
(613,470,o),
(627,418,o),
(619,351,cs),
(603,219,o),
(534,143,o),
(400,143,cs)
);
},
{
closed = 1;
nodes = (
(618,-7,o),
(776,115,o),
(804,351,cs),
(817,459,o),
(791,548,o),
(732,612,cs),
(672,675,o),
(583,710,o),
(471,710,cs),
(234,710,o),
(77,588,o),
(48,351,cs),
(35,243,o),
(60,154,o),
(118,91,cs),
(176,28,o),
(265,-7,o),
(381,-7,cs)
);
}
);
width = 832;
},
{
layerId = "FF7033E7-E079-48F6-9418-777F925FA922";
shapes = (
{
closed = 1;
nodes = (
(646,-177,l),
(665,-177,l),
(684,-24,l),
(466,89,l),
(350,3,l)
);
},
{
closed = 1;
nodes = (
(334,122,o),
(283,144,o),
(251,184,c),
(218,223,o),
(203,280,o),
(212,351,cs),
(228,482,o),
(318,580,o),
(455,580,cs),
(518,580,o),
(568,558,o),
(601,519,c),
(633,479,o),
(649,422,o),
(640,351,cs),
(622,209,o),
(542,122,o),
(397,122,cs)
);
},
{
closed = 1;
nodes = (
(616,-8,o),
(771,116,o),
(799,350,cs),
(812,457,o),
(785,547,o),
(728,611,cs),
(671,674,o),
(582,710,o),
(471,710,cs),
(236,710,o),
(81,585,o),
(53,351,cs),
(40,244,o),
(64,155,o),
(122,92,cs),
(180,28,o),
(268,-8,o),
(381,-8,cs)
);
}
);
width = 832;
},
{
layerId = "C6F2FD9D-3429-4F2B-9903-30CCFB382AAD";
shapes = (
{
closed = 1;
nodes = (
(665,-180,l),
(685,-180,l),
(695,-106,l),
(477,53,l),
(395,16,l)
);
},
{
closed = 1;
nodes = (
(310,62,o),
(244,92,o),
(201,144,cs),
(157,195,o),
(136,266,o),
(147,350,cs),
(170,528,o),
(281,638,o),
(462,638,cs),
(542,638,o),
(607,608,o),
(651,557,cs),
(695,505,o),
(716,434,o),
(705,350,cs),
(682,173,o),
(570,62,o),
(390,62,cs)
);
},
{
closed = 1;
nodes = (
(610,-10,o),
(755,123,o),
(781,349,cs),
(793,452,o),
(770,541,o),
(716,606,cs),
(662,671,o),
(578,710,o),
(471,710,cs),
(243,710,o),
(100,577,o),
(71,351,cs),
(58,250,o),
(83,159,o),
(137,94,cs),
(191,29,o),
(274,-10,o),
(381,-10,cs)
);
}
);
width = 832;
},
{
layerId = "6FC0E451-EFB7-4D7C-9E66-A10B69A48177";
shapes = (
{
closed = 1;
nodes = (
(679,-167,l),
(699,-167,l),
(702,-143,l),
(486,25,l),
(452,10,l)
);
},
{
closed = 1;
nodes = (
(296,21,o),
(221,57,o),
(173,117,cs),
(124,176,o),
(99,257,o),
(111,350,cs),
(136,542,o),
(271,678,o),
(467,678,cs),
(556,678,o),
(629,642,o),
(678,583,cs),
(726,524,o),
(752,443,o),
(740,350,cs),
(713,144,o),
(579,21,o),
(385,21,cs)
);
},
{
closed = 1;
nodes = (
(599,-11,o),
(747,124,o),
(773,348,cs),
(785,451,o),
(759,541,o),
(704,606,cs),
(649,671,o),
(567,710,o),
(471,710,cs),
(254,710,o),
(105,566,o),
(78,351,cs),
(65,248,o),
(93,158,o),
(148,93,cs),
(203,28,o),
(285,-11,o),
(381,-11,cs)
);
}
);
width = 832;
},
{
layerId = "FDA1CA61-DAB6-440F-86AE-A1833308297E";
shapes = (
{
closed = 1;
nodes = (
(694,-176,l),
(714,-176,l),
(714,0,l),
(484,101,l),
(369,-1,l)
);
},
{
closed = 1;
nodes = (
(359,143,o),
(311,162,o),
(277,198,cs),
(243,233,o),
(223,284,o),
(223,351,cs),
(223,472,o),
(290,560,o),
(416,560,cs),
(472,560,o),
(521,541,o),
(555,506,cs),
(589,470,o),
(609,418,o),
(609,351,cs),
(609,230,o),
(542,143,o),
(416,143,cs)
);
},
{
closed = 1;
nodes = (
(630,-7,o),
(794,131,o),
(794,351,cs),
(794,459,o),
(756,548,o),
(689,612,cs),
(622,675,o),
(528,710,o),
(416,710,cs),
(201,710,o),
(38,572,o),
(38,351,cs),
(38,243,o),
(75,154,o),
(140,91,cs),
(205,28,o),
(300,-7,o),
(416,-7,cs)
);
}
);
width = 832;
},
{
layerId = "C0F60499-8BC0-4CEA-B9B1-C7852A3AB7A6";
shapes = (
{
closed = 1;
nodes = (
(702,-177,l),
(721,-177,l),
(721,-24,l),
(489,89,l),
(384,3,l)
);
},
{
closed = 1;
nodes = (
(353,122,o),
(300,144,o),
(262,184,cs),
(224,223,o),
(202,280,o),
(202,351,cs),
(202,482,o),
(280,580,o),
(416,580,cs),
(479,580,o),
(532,558,o),
(570,519,cs),
(608,479,o),
(630,422,o),
(630,351,cs),
(630,221,o),
(551,122,o),
(416,122,cs)
);
},
{
closed = 1;
nodes = (
(628,-8,o),
(789,133,o),
(789,350,cs),
(789,457,o),
(751,547,o),
(686,611,cs),
(621,674,o),
(527,710,o),
(416,710,cs),
(202,710,o),
(43,569,o),
(43,351,cs),
(43,244,o),
(79,155,o),
(144,92,cs),
(209,28,o),
(303,-8,o),
(416,-8,cs)
);
}
);
width = 832;
},
{
layerId = "A6FAFB92-F521-4DD4-A95F-C39B9C67A836";
shapes = (
{
closed = 1;
nodes = (
(722,-180,l),
(742,-180,l),
(742,-106,l),
(504,53,l),
(427,16,l)
);
},
{
closed = 1;
nodes = (
(336,62,o),
(267,92,o),
(217,144,cs),
(167,195,o),
(137,266,o),
(137,350,cs),
(137,512,o),
(252,638,o),
(416,638,cs),
(496,638,o),
(566,608,o),
(616,557,cs),
(666,505,o),
(695,434,o),
(695,350,cs),
(695,188,o),
(581,62,o),
(416,62,cs)
);
},
{
closed = 1;
nodes = (
(625,-10,o),
(771,141,o),
(771,349,cs),
(771,452,o),
(736,541,o),
(674,606,cs),
(612,671,o),
(523,710,o),
(416,710,cs),
(208,710,o),
(61,558,o),
(61,351,cs),
(61,250,o),
(97,159,o),
(159,94,cs),
(221,29,o),
(309,-10,o),
(416,-10,cs)
);
}
);
width = 832;
},
{
layerId = "EB11814A-7CD7-4F83-85D3-A70914269335";
shapes = (
{
closed = 1;
nodes = (
(734,-167,l),
(754,-167,l),
(754,-143,l),
(511,29,l),
(479,14,l)
);
},
{
closed = 1;
nodes = (
(327,21,o),
(248,57,o),
(192,117,cs),
(136,176,o),
(101,257,o),
(101,350,cs),
(101,528,o),
(234,678,o),
(416,678,cs),
(505,678,o),
(583,642,o),
(639,583,cs),
(695,524,o),
(730,443,o),
(730,350,cs),
(730,173,o),
(598,21,o),
(416,21,cs)
);
},
{
closed = 1;
nodes = (
(615,-11,o),
(763,152,o),
(763,348,cs),
(763,451,o),
(725,541,o),
(662,606,cs),
(599,671,o),
(512,710,o),
(416,710,cs),
(217,710,o),
(68,547,o),
(68,351,cs),
(68,248,o),
(107,158,o),
(170,93,cs),
(233,28,o),
(320,-11,o),
(416,-11,cs)
);
}
);
width = 832;
}
);
leftKerningGroup = C2;
rightKerningGroup = D;
unicode = 81;
},
{
glyphname = R;
layers = (
{
layerId = "F6B38B84-4AA5-4989-9E13-2A308B5F1025";
shapes = (
{
closed = 1;
nodes = (
(397,0,l),
(591,0,l),
(593.627,21,l),
(417.907,359,l),
(246.026,296,l)
);
},
{
closed = 1;
nodes = (
(101.562,700,l),
(14,0,l),
(194,0,l),
(226.523,260,l),
(295.523,260,ls),
(444.523,260,o),
(551.029,328,o),
(570.418,483,cs),
(579.549,556,o),
(560.429,611,o),
(517.932,647,cs),
(475.435,683,o),
(411.562,700,o),
(331.562,700,cs)
);
},
{
closed = 1;
nodes = (
(245.286,410,l),
(262.799,550,l),
(317.799,550,ls),
(342.799,550,o),
(361.923,543,o),
(373.422,531,c),
(383.796,518,o),
(387.669,501,o),
(385.167,481,cs),
(379.288,434,o),
(341.286,410,o),
(297.286,410,cs)
);
}
);
width = 611;
},
{
layerId = "FF7033E7-E079-48F6-9418-777F925FA922";
shapes = (
{
closed = 1;
nodes = (
(415,0,l),
(581,0,l),
(583.627,21,l),
(397.531,348,l),
(248.026,296,l)
);
},
{
closed = 1;
nodes = (
(116.562,700,l),
(29,0,l),
(183,0,l),
(216.399,267,l),
(297.399,267,ls),
(442.399,267,o),
(547.03,336,o),
(565.793,486,cs),
(574.424,555,o),
(556.179,609,o),
(516.682,645,cs),
(476.185,681,o),
(414.562,700,o),
(337.562,700,cs)
);
},
{
closed = 1;
nodes = (
(232.66,397,l),
(254.3,570,l),
(322.3,570,ls),
(354.3,570,o),
(376.175,561,o),
(390.298,546,cs),
(404.297,530,o),
(409.545,508,o),
(406.543,484,cs),
(399.288,426,o),
(351.66,397,o),
(297.66,397,cs)
);
}
);
width = 611;
},
{
layerId = "C6F2FD9D-3429-4F2B-9903-30CCFB382AAD";
shapes = (
{
closed = 1;
nodes = (
(476,0,l),
(555,0,l),
(557.627,21,l),
(347.528,316,l),
(265.026,296,l)
);
},
{
closed = 1;
nodes = (
(167.562,700,l),
(80,0,l),
(154,0,l),
(189.775,286,l),
(308.775,286,ls),
(440.775,286,o),
(539.032,360,o),
(555.919,495,cs),
(563.049,552,o),
(548.553,604,o),
(514.182,641,cs),
(479.685,677,o),
(428.562,700,o),
(360.562,700,cs)
);
},
{
closed = 1;
nodes = (
(198.531,356,l),
(232.806,630,l),
(341.806,630,ls),
(390.806,630,o),
(427.929,615,o),
(451.927,591,cs),
(475.8,566,o),
(484.672,533,o),
(479.794,494,cs),
(468.411,403,o),
(392.531,356,o),
(307.531,356,cs)
);
}
);
width = 611;
},
{
layerId = "6FC0E451-EFB7-4D7C-9E66-A10B69A48177";
shapes = (
{
closed = 1;
nodes = (
(497,0,l),
(523,0,l),
(526,21,l),
(317,303,l),
(273,303,l)
);
},
{
closed = 1;
nodes = (
(185,700,l),
(97,0,l),
(130,0,l),
(167,298,l),
(303,298,ls),
(432,298,o),
(523,372,o),
(542,500,c),
(547,551,o),
(535,600,o),
(503,637,cs),
(471,674,o),
(416,700,o),
(341,700,cs)
);
},
{
closed = 1;
nodes = (
(171,329,l),
(214,669,l),
(340,669,ls),
(400,669,o),
(444,650,o),
(474,620,cs),
(504,590,o),
(515,547,o),
(508,499,c),
(496,392,o),
(404,329,o),
(301,329,cs)
);
}
);
width = 611;
},
{
layerId = "FDA1CA61-DAB6-440F-86AE-A1833308297E";
shapes = (
{
closed = 1;
nodes = (
(431,0,l),
(625,0,l),
(625,21,l),
(407,359,l),
(243,296,l)
);
},
{
closed = 1;
nodes = (
(48,700,l),
(48,0,l),
(228,0,l),
(228,260,l),
(297,260,ls),
(435,260,o),
(544,336,o),
(544,483,cs),
(544,556,o),
(518,611,o),
(471,647,cs),
(424,683,o),
(358,700,o),
(278,700,cs)
);
},
{
closed = 1;
nodes = (
(228,410,l),
(228,550,l),
(283,550,ls),
(308,550,o),
(328,543,o),
(341,531,c),
(353,518,o),
(359,501,o),
(359,481,cs),
(359,434,o),
(324,410,o),
(280,410,cs)
);
}
);
width = 611;
},
{
layerId = "C0F60499-8BC0-4CEA-B9B1-C7852A3AB7A6";
shapes = (
{
closed = 1;
nodes = (
(449,0,l),
(615,0,l),
(615,21,l),
(388,348,l),
(245,296,l)
);
},
{
closed = 1;
nodes = (
(63,700,l),
(63,0,l),
(217,0,l),
(217,267,l),
(298,267,ls),
(432,267,o),
(539,344,o),
(539,486,cs),
(539,555,o),
(514,609,o),
(470,645,cs),
(425,681,o),
(361,700,o),
(284,700,cs)
);
},
{
closed = 1;
nodes = (
(217,397,l),
(217,570,l),
(285,570,ls),
(317,570,o),
(340,561,o),
(356,546,cs),
(372,530,o),
(380,508,o),
(380,484,cs),
(380,426,o),
(336,397,o),
(282,397,cs)
);
}
);
width = 611;
},
{
layerId = "A6FAFB92-F521-4DD4-A95F-C39B9C67A836";
shapes = (
{
closed = 1;
nodes = (
(510,0,l),
(589,0,l),
(589,21,l),
(342,316,l),
(262,296,l)
);
},
{
closed = 1;
nodes = (
(114,700,l),
(114,0,l),
(188,0,l),
(188,286,l),
(307,286,ls),
(429,286,o),
(528,369,o),
(528,495,cs),
(528,552,o),
(507,604,o),
(468,641,cs),
(429,677,o),
(375,700,o),
(307,700,cs)
);
},
{
closed = 1;
nodes = (
(188,356,l),
(188,630,l),
(297,630,ls),
(346,630,o),
(385,615,o),
(412,591,cs),
(439,566,o),
(452,533,o),
(452,494,cs),
(452,403,o),
(382,356,o),
(297,356,cs)
);
}
);
width = 611;
},
{
layerId = "EB11814A-7CD7-4F83-85D3-A70914269335";
shapes = (
{
closed = 1;
nodes = (
(531,0,l),
(557,0,l),
(557,21,l),
(313,303,l),
(269,303,l)
);
},
{
closed = 1;
nodes = (
(131,700,l),
(131,0,l),
(164,0,l),
(164,298,l),
(300,298,ls),
(415,298,o),
(513,382,o),
(513,500,cs),
(513,551,o),
(494,600,o),
(458,637,cs),
(421,674,o),
(362,700,o),
(287,700,cs)
);
},
{
closed = 1;
nodes = (
(164,329,l),
(164,669,l),
(290,669,ls),
(350,669,o),
(397,650,o),
(430,620,cs),
(463,590,o),
(480,547,o),
(480,499,cs),
(480,391,o),
(397,329,o),
(294,329,cs)
);
}
);
width = 611;
}
);
rightKerningGroup = R;
unicode = 82;
},
{
glyphname = S;
layers = (
{
layerId = "F6B38B84-4AA5-4989-9E13-2A308B5F1025";
shapes = (
{
closed = 1;
nodes = (
(384.124,-7,o),
(502.005,56,o),
(522.645,221,cs),
(530.15,281,o),
(516.153,321,o),
(492.031,352,cs),
(467.909,383,o),
(433.16,401,o),
(397.037,416,cs),
(360.913,431,o),
(324.289,442,o),
(297.915,455,cs),
(271.541,468,o),
(254.793,486,o),
(257.92,511,cs),
(262.298,546,o),
(291.424,555,o),
(321.424,555,cs),
(364.424,555,o),
(392.672,533,o),
(414.794,494,c),
(543.678,597,l),
(535.555,620,o),
(517.932,647,o),
(485.809,670,cs),
(453.686,693,o),
(406.813,710,o),
(338.813,710,cs),
(198.813,710,o),
(90.808,654,o),
(72.17,505,cs),
(65.04,448,o),
(78.036,408,o),
(102.158,377,cs),
(126.281,346,o),
(160.904,327,o),
(195.902,311,cs),
(230.776,294,o),
(266.275,282,o),
(292.273,266,cs),
(318.272,250,o),
(334.02,232,o),
(330.518,204,cs),
(325.264,162,o),
(286.513,148,o),
(249.513,148,cs),
(216.513,148,o),
(190.014,160,o),
(171.141,177,cs),
(152.267,194,o),
(140.894,215,o),
(132.396,235,c),
(-3.739,122,l),
(8.383,91,o),
(29.38,59,o),
(66.378,35,cs),
(103.251,10,o),
(155.124,-7,o),
(227.124,-7,cs)
);
}
);
width = 544;
},
{
layerId = "FF7033E7-E079-48F6-9418-777F925FA922";
shapes = (
{
closed = 1;
nodes = (
(380.999,-8,o),
(496.88,55,o),
(516.894,215,cs),
(524.399,275,o),
(509.528,316,o),
(484.406,347,cs),
(459.283,378,o),
(422.535,396,o),
(385.536,412,c),
(347.413,427,o),
(309.914,439,o),
(282.79,454,cs),
(255.666,469,o),
(238.168,489,o),
(241.796,518,cs),
(247.55,564,o),
(284.051,576,o),
(325.051,576,cs),
(374.051,576,o),
(406.174,553,o),
(429.295,514,c),
(539.678,605,l),
(529.555,628,o),
(510.808,654,o),
(478.435,675,cs),
(445.936,695,o),
(401.813,710,o),
(340.813,710,cs),
(204.813,710,o),
(101.808,654,o),
(83.92,511,cs),
(76.79,454,o),
(91.787,414,o),
(117.159,385,cs),
(141.531,356,o),
(179.155,337,o),
(215.153,321,cs),
(251.027,304,o),
(288.276,290,o),
(315.149,273,cs),
(341.023,256,o),
(358.146,233,o),
(354.018,200,cs),
(347.138,145,o),
(301.761,126,o),
(251.761,126,cs),
(215.761,126,o),
(189.137,137,o),
(168.264,154,cs),
(147.265,170,o),
(132.142,193,o),
(122.769,214,c),
(5.26,114,l),
(20.382,83,o),
(41.63,53,o),
(78.753,30,cs),
(114.876,7,o),
(162.999,-8,o),
(229.999,-8,cs)
);
}
);
width = 544;
},
{
layerId = "C6F2FD9D-3429-4F2B-9903-30CCFB382AAD";
shapes = (
{
closed = 1;
nodes = (
(378.749,-10,o),
(472.005,56,o),
(489.517,196,cs),
(496.898,255,o),
(481.026,296,o),
(452.779,326,cs),
(423.531,356,o),
(384.158,377,o),
(343.41,395,cs),
(301.661,413,o),
(261.663,429,o),
(232.29,450,cs),
(201.917,471,o),
(184.294,498,o),
(189.298,538,cs),
(198.804,614,o),
(261.806,638,o),
(330.806,638,cs),
(397.806,638,o),
(440.429,611,o),
(472.051,576,c),
(524.806,630,l),
(506.683,653,o),
(483.184,673,o),
(452.936,687,cs),
(422.687,701,o),
(385.813,710,o),
(341.813,710,cs),
(221.813,710,o),
(128.433,659,o),
(112.672,533,cs),
(105.667,477,o),
(121.914,439,o),
(151.536,412,c),
(180.034,384,o),
(219.782,366,o),
(261.781,350,c),
(302.654,333,o),
(342.653,317,o),
(372.776,294,c),
(401.774,270,o),
(418.771,238,o),
(412.642,189,cs),
(401.134,97,o),
(338.755,62,o),
(250.755,62,cs),
(210.755,62,o),
(177.881,71,o),
(150.883,87,cs),
(123.759,102,o),
(101.386,123,o),
(81.763,150,c),
(21.258,90,l),
(42.755,62,o),
(69.753,38,o),
(106.502,20,cs),
(143.25,2,o),
(186.749,-10,o),
(241.749,-10,cs)
);
}
);
width = 544;
},
{
layerId = "6FC0E451-EFB7-4D7C-9E66-A10B69A48177";
shapes = (
{
closed = 1;
nodes = (
(344,-10,o),
(441,45,o),
(459,184,cs),
(466,239,o),
(448,278,o),
(417,309,cs),
(386,340,o),
(344,361,o),
(301,382,c),
(257,402,o),
(214,421,o),
(183,447,cs),
(152,473,o),
(134,505,o),
(139,550,cs),
(150,649,o),
(225,678,o),
(323,678,cs),
(390,678,o),
(440,656,o),
(475,632,c),
(496,662,l),
(472,679,o),
(445,690,o),
(417,699,c),
(388,707,o),
(358,710,o),
(326,710,cs),
(228,710,o),
(119,661,o),
(107,552,cs),
(100,497,o),
(120,460,o),
(150,430,cs),
(180,400,o),
(222,378,o),
(266,357,cs),
(309,336,o),
(351,317,o),
(383,290,c),
(414,262,o),
(432,229,o),
(427,181,cs),
(415,69,o),
(324,22,o),
(215,22,cs),
(180,22,o),
(146,27,o),
(117,38,cs),
(88,49,o),
(59,65,o),
(38,82,c),
(21,53,l),
(45,33,o),
(74,19,o),
(104,8,cs),
(134,-4,o),
(168,-10,o),
(207,-10,cs)
);
}
);
width = 544;
},
{
layerId = "FDA1CA61-DAB6-440F-86AE-A1833308297E";
shapes = (
{
closed = 1;
nodes = (
(407,-7,o),
(529,62,o),
(529,221,cs),
(529,281,o),
(510,321,o),
(482,352,cs),
(454,383,o),
(417,401,o),
(379,416,cs),
(341,431,o),
(303,442,o),
(275,455,cs),
(247,468,o),
(228,486,o),
(228,511,cs),
(228,545,o),
(258,555,o),
(286,555,cs),
(329,555,o),
(360,533,o),
(387,494,c),
(503,597,l),
(492,620,o),
(471,647,o),
(436,670,cs),
(401,693,o),
(352,710,o),
(284,710,cs),
(154,710,o),
(43,648,o),
(43,505,cs),
(43,448,o),
(61,408,o),
(89,377,cs),
(117,346,o),
(154,327,o),
(191,311,cs),
(228,294,o),
(265,282,o),
(293,266,cs),
(321,250,o),
(339,232,o),
(339,204,cs),
(339,163,o),
(300,148,o),
(265,148,cs),
(232,148,o),
(204,160,o),
(183,177,cs),
(162,194,o),
(148,215,o),
(137,235,c),
(15,122,l),
(31,91,o),
(56,59,o),
(96,35,cs),
(136,10,o),
(190,-7,o),
(262,-7,cs)
);
}
);
width = 544;
},
{
layerId = "C0F60499-8BC0-4CEA-B9B1-C7852A3AB7A6";
shapes = (
{
closed = 1;
nodes = (
(405,-8,o),
(524,62,o),
(524,215,cs),
(524,275,o),
(504,316,o),
(475,347,cs),
(446,378,o),
(407,396,o),
(368,412,c),
(328,427,o),
(289,439,o),
(260,454,cs),
(231,469,o),
(211,489,o),
(211,518,cs),
(211,563,o),
(249,576,o),
(287,576,cs),
(336,576,o),
(371,553,o),
(399,514,c),
(498,605,l),
(485,628,o),
(463,654,o),
(428,675,cs),
(393,695,o),
(347,710,o),
(286,710,cs),
(160,710,o),
(54,648,o),
(54,511,cs),
(54,454,o),
(74,414,o),
(103,385,cs),
(131,356,o),
(171,337,o),
(209,321,cs),
(247,304,o),
(286,290,o),
(315,273,cs),
(343,256,o),
(363,233,o),
(363,200,cs),
(363,147,o),
(317,126,o),
(270,126,cs),
(234,126,o),
(206,137,o),
(183,154,cs),
(160,170,o),
(142,193,o),
(130,214,c),
(25,114,l),
(44,83,o),
(69,53,o),
(109,30,cs),
(148,7,o),
(198,-8,o),
(265,-8,cs)
);
}
);
width = 544;
},
{
layerId = "A6FAFB92-F521-4DD4-A95F-C39B9C67A836";
shapes = (
{
closed = 1;
nodes = (
(404,-10,o),
(499,64,o),
(499,196,cs),
(499,255,o),
(478,296,o),
(446,326,cs),
(413,356,o),
(371,377,o),
(328,395,cs),
(284,413,o),
(242,429,o),
(210,450,cs),
(177,471,o),
(156,498,o),
(156,538,cs),
(156,612,o),
(221,638,o),
(285,638,cs),
(352,638,o),
(398,611,o),
(434,576,c),
(480,630,l),
(459,653,o),
(433,673,o),
(401,687,cs),
(369,701,o),
(331,710,o),
(287,710,cs),
(176,710,o),
(80,654,o),
(80,533,cs),
(80,477,o),
(101,439,o),
(134,412,c),
(166,384,o),
(208,366,o),
(252,350,c),
(295,333,o),
(337,317,o),
(370,294,c),
(402,270,o),
(423,238,o),
(423,189,cs),
(423,101,o),
(359,62,o),
(277,62,cs),
(237,62,o),
(203,71,o),
(174,87,cs),
(145,102,o),
(120,123,o),
(97,150,c),
(44,90,l),
(69,62,o),
(99,38,o),
(138,20,cs),
(177,2,o),
(222,-10,o),
(277,-10,cs)
);
}
);
width = 544;
},
{
layerId = "EB11814A-7CD7-4F83-85D3-A70914269335";
shapes = (
{
closed = 1;
nodes = (
(364,-10,o),
(470,50,o),
(470,184,cs),
(470,239,o),
(447,278,o),
(412,309,cs),
(377,340,o),
(333,361,o),
(287,382,cs),
(241,402,o),
(196,421,o),
(162,447,cs),
(128,473,o),
(104,505,o),
(104,550,cs),
(104,644,o),
(191,678,o),
(272,678,cs),
(339,678,o),
(393,656,o),
(430,632,c),
(447,662,l),
(422,679,o),
(392,690,o),
(363,699,cs),
(334,707,o),
(303,710,o),
(271,710,cs),
(174,710,o),
(72,662,o),
(72,552,cs),
(72,497,o),
(96,460,o),
(130,430,cs),
(164,400,o),
(209,378,o),
(255,357,cs),
(301,336,o),
(345,317,o),
(380,290,cs),
(415,262,o),
(438,229,o),
(438,181,cs),
(438,72,o),
(344,22,o),
(246,22,cs),
(211,22,o),
(177,27,o),
(146,38,cs),
(115,49,o),
(85,65,o),
(62,82,c),
(48,53,l),
(75,33,o),
(105,19,o),
(137,8,c),
(168,-4,o),
(203,-10,o),
(242,-10,cs)
);
}
);
width = 544;
}
);
leftKerningGroup = S2;
rightKerningGroup = S;
unicode = 83;
},
{
glyphname = Germandbls;
layers = (
{
layerId = "F6B38B84-4AA5-4989-9E13-2A308B5F1025";
shapes = (
{
closed = 1;
nodes = (
(509,-5,o),
(632,76,o),
(648,219,c),
(659,300,o),
(632,353,o),
(585,386,cs),
(537,418,o),
(471,430,o),
(399,430,c),
(423,385,l),
(603,490,l),
(626,668,l),
(574,696,o),
(489,710,o),
(378,710,cs),
(291,710,o),
(223,693,o),
(173,658,cs),
(123,622,o),
(92,570,o),
(84,501,cs),
(21,0,l),
(201,0,l),
(258,458,ls),
(263,501,o),
(275,529,o),
(298,548,cs),
(321,567,o),
(356,575,o),
(409,575,cs),
(437,575,o),
(465,573,o),
(492,569,c),
(349,485,l),
(327,315,l),
(353,315,ls),
(389,315,o),
(420,309,o),
(440,294,cs),
(460,278,o),
(470,255,o),
(466,222,cs),
(459,162,o),
(422,130,o),
(361,130,cs),
(329,130,o),
(302,130,o),
(278,137,c),
(261,1,l),
(272,-2,o),
(281,-3,o),
(297,-4,c),
(312,-4,o),
(335,-5,o),
(368,-5,cs)
);
}
);
width = 676;
},
{
layerId = "FF7033E7-E079-48F6-9418-777F925FA922";
shapes = (
{
closed = 1;
nodes = (
(515,-5,o),
(619,74,o),
(641,229,c),
(650,308,o),
(626,361,o),
(581,396,cs),
(536,431,o),
(470,446,o),
(395,446,c),
(405,399,l),
(594,517,l),
(613,672,l),
(565,695,o),
(482,710,o),
(378,710,cs),
(297,710,o),
(231,695,o),
(184,661,cs),
(136,627,o),
(107,575,o),
(98,503,cs),
(35,0,l),
(189,0,l),
(248,469,ls),
(253,513,o),
(265,544,o),
(289,564,cs),
(312,584,o),
(348,592,o),
(403,592,cs),
(435,592,o),
(467,591,o),
(499,584,c),
(352,492,l),
(333,344,l),
(359,344,ls),
(400,344,o),
(433,335,o),
(456,316,cs),
(479,296,o),
(488,268,o),
(484,229,c),
(473,153,o),
(430,114,o),
(354,114,cs),
(323,114,o),
(299,115,o),
(276,122,c),
(261,2,l),
(272,-1,o),
(284,-3,o),
(298,-4,c),
(312,-4,o),
(332,-5,o),
(360,-5,cs)
);
}
);
width = 676;
},
{
layerId = "C6F2FD9D-3429-4F2B-9903-30CCFB382AAD";
shapes = (
{
closed = 1;
nodes = (
(508,-5,o),
(594,84,o),
(613,251,c),
(624,330,o),
(607,388,o),
(567,428,cs),
(527,468,o),
(465,490,o),
(385,494,c),
(392,458,l),
(566,600,l),
(576,682,l),
(536,694,o),
(469,710,o),
(386,710,cs),
(319,710,o),
(263,699,o),
(222,668,cs),
(181,637,o),
(153,587,o),
(144,508,cs),
(80,0,l),
(154,0,l),
(217,500,l),
(222,551,o),
(236,587,o),
(261,609,cs),
(286,631,o),
(325,640,o),
(385,640,cs),
(424,640,o),
(462,636,o),
(506,628,c),
(360,508,l),
(350,430,l),
(367,430,ls),
(427,430,o),
(473,412,o),
(502,380,cs),
(531,348,o),
(544,302,o),
(537,246,cs),
(522,126,o),
(457,67,o),
(335,67,cs),
(308,67,o),
(283,71,o),
(267,78,c),
(258,6,l),
(269,2,o),
(284,-1,o),
(297,-3,cs),
(310,-5,o),
(326,-5,o),
(339,-5,cs)
);
}
);
width = 676;
},
{
layerId = "6FC0E451-EFB7-4D7C-9E66-A10B69A48177";
shapes = (
{
closed = 1;
nodes = (
(490,-12,o),
(580,91,o),
(598,246,cs),
(606,315,o),
(593,375,o),
(557,418,cs),
(520,461,o),
(460,484,o),
(371,483,c),
(374,474,l),
(546,640,l),
(552,685,l),
(512,694,o),
(445,710,o),
(377,710,cs),
(322,710,o),
(274,702,o),
(238,674,cs),
(202,645,o),
(175,596,o),
(164,513,cs),
(100,0,l),
(133,0,l),
(198,516,ls),
(205,571,o),
(216,609,o),
(241,637,cs),
(266,664,o),
(305,677,o),
(365,677,cs),
(417,677,o),
(469,671,o),
(522,656,c),
(359,493,l),
(354,454,l),
(377,454,ls),
(434,454,o),
(487,440,o),
(522,406,cs),
(557,372,o),
(574,318,o),
(565,245,cs),
(548,106,o),
(478,20,o),
(334,20,cs),
(306,20,o),
(277,25,o),
(262,29,c),
(258,-3,l),
(269,-6,o),
(282,-9,o),
(296,-10,cs),
(310,-11,o),
(320,-12,o),
(331,-12,cs)
);
}
);
width = 676;
},
{
layerId = "FDA1CA61-DAB6-440F-86AE-A1833308297E";
shapes = (
{
closed = 1;
nodes = (
(530,-5,o),
(655,83,o),
(655,219,cs),
(655,300,o),
(622,353,o),
(571,386,cs),
(519,418,o),
(451,430,o),
(379,430,c),
(409,385,l),
(576,490,l),
(576,668,l),
(521,696,o),
(434,710,o),
(323,710,cs),
(236,710,o),
(169,693,o),
(124,658,cs),
(79,622,o),
(55,570,o),
(55,501,cs),
(55,0,l),
(235,0,l),
(235,458,ls),
(235,501,o),
(243,529,o),
(264,548,cs),
(284,567,o),
(318,575,o),
(371,575,cs),
(399,575,o),
(427,573,o),
(455,569,c),
(322,485,l),
(322,315,l),
(348,315,ls),
(384,315,o),
(416,309,o),
(438,294,cs),
(460,278,o),
(472,255,o),
(472,222,cs),
(472,168,o),
(433,130,o),
(379,130,cs),
(347,130,o),
(319,130,o),
(295,137,c),
(295,1,l),
(306,-2,o),
(315,-3,o),
(331,-4,c),
(347,-4,o),
(370,-5,o),
(403,-5,cs)
);
}
);
width = 676;
},
{
layerId = "C0F60499-8BC0-4CEA-B9B1-C7852A3AB7A6";
shapes = (
{
closed = 1;
nodes = (
(532,-5,o),
(646,85,o),
(646,229,cs),
(646,308,o),
(616,361,o),
(566,396,cs),
(516,431,o),
(448,446,o),
(373,446,c),
(389,399,l),
(563,517,l),
(563,672,l),
(512,695,o),
(427,710,o),
(323,710,cs),
(242,710,o),
(178,695,o),
(135,661,cs),
(92,627,o),
(69,575,o),
(69,503,cs),
(69,0,l),
(223,0,l),
(223,469,ls),
(223,513,o),
(231,544,o),
(252,564,cs),
(273,584,o),
(308,592,o),
(363,592,cs),
(395,592,o),
(427,591,o),
(460,584,c),
(324,492,l),
(324,344,l),
(350,344,ls),
(391,344,o),
(426,335,o),
(451,316,c),
(475,296,o),
(489,268,o),
(489,229,cs),
(489,160,o),
(443,114,o),
(374,114,cs),
(343,114,o),
(318,115,o),
(295,122,c),
(295,2,l),
(306,-1,o),
(317,-3,o),
(332,-4,c),
(347,-4,o),
(367,-5,o),
(395,-5,cs)
);
}
);
width = 676;
},
{
layerId = "A6FAFB92-F521-4DD4-A95F-C39B9C67A836";
shapes = (
{
closed = 1;
nodes = (
(532,-5,o),
(616,98,o),
(616,251,cs),
(616,330,o),
(592,388,o),
(548,428,cs),
(503,468,o),
(438,490,o),
(357,494,c),
(369,458,l),
(525,600,l),
(525,682,l),
(484,694,o),
(414,710,o),
(331,710,cs),
(264,710,o),
(211,699,o),
(173,668,cs),
(135,637,o),
(114,587,o),
(114,508,cs),
(114,0,l),
(188,0,l),
(188,500,ls),
(188,551,o),
(196,587,o),
(219,609,cs),
(242,631,o),
(279,640,o),
(339,640,cs),
(378,640,o),
(417,636,o),
(461,628,c),
(330,508,l),
(330,430,l),
(347,430,ls),
(407,430,o),
(455,412,o),
(488,380,cs),
(521,348,o),
(540,302,o),
(540,246,cs),
(540,135,o),
(472,67,o),
(361,67,cs),
(334,67,o),
(308,71,o),
(291,78,c),
(291,6,l),
(303,2,o),
(318,-1,o),
(332,-3,cs),
(346,-5,o),
(361,-5,o),
(374,-5,cs)
);
}
);
width = 676;
},
{
layerId = "EB11814A-7CD7-4F83-85D3-A70914269335";
shapes = (
{
closed = 1;
nodes = (
(515,-12,o),
(601,105,o),
(601,246,cs),
(601,315,o),
(581,375,o),
(539,418,cs),
(497,461,o),
(433,484,o),
(345,483,c),
(349,474,l),
(500,640,l),
(500,685,l),
(459,694,o),
(390,710,o),
(322,710,cs),
(267,710,o),
(220,702,o),
(188,674,cs),
(155,645,o),
(134,596,o),
(134,513,cs),
(134,0,l),
(167,0,l),
(167,516,ls),
(167,571,o),
(174,609,o),
(196,637,cs),
(218,664,o),
(254,677,o),
(314,677,cs),
(366,677,o),
(419,671,o),
(474,656,c),
(331,493,l),
(331,454,l),
(354,454,ls),
(411,454,o),
(466,440,o),
(505,406,cs),
(544,372,o),
(568,318,o),
(568,245,cs),
(568,118,o),
(499,20,o),
(365,20,cs),
(337,20,o),
(308,25,o),
(292,29,c),
(292,-3,l),
(304,-6,o),
(317,-9,o),
(331,-10,cs),
(345,-11,o),
(356,-12,o),
(367,-12,cs)
);
}
);
width = 676;
}
);
unicode = 7838;
},
{
glyphname = Schwa;
layers = (
{
layerId = "F6B38B84-4AA5-4989-9E13-2A308B5F1025";
shapes = (
{
closed = 1;
nodes = (
(625.124,-7,o),
(750.134,97,o),
(781.656,349,cs),
(795.666,461,o),
(767.049,552,o),
(706.804,614,cs),
(646.56,676,o),
(555.813,710,o),
(447.813,710,cs),
(303.813,710,o),
(221.435,675,o),
(138.051,576,c),
(243.416,459,l),
(299.797,534,o),
(349.424,555,o),
(432.424,555,cs),
(492.424,555,o),
(537.423,539,o),
(564.045,504,cs),
(590.666,469,o),
(600.162,417,o),
(591.155,345,cs),
(574.894,215,o),
(525.513,148,o),
(391.513,148,cs),
(332.513,148,o),
(292.514,164,o),
(268.642,197,cs),
(244.645,229,o),
(237.9,279,o),
(246.406,347,cs),
(250.408,379,l),
(92.65,285,l),
(734.65,285,l),
(752.663,429,l),
(66.663,429,l),
(54.029,328,ls),
(40.144,217,o),
(70.637,133,o),
(128.632,77,cs),
(186.627,21,o),
(273.124,-7,o),
(373.124,-7,cs)
);
}
);
width = 820;
},
{
layerId = "FF7033E7-E079-48F6-9418-777F925FA922";
shapes = (
{
closed = 1;
nodes = (
(628,-8,o),
(748,94,o),
(778,348,cs),
(791,457,o),
(766,548,o),
(707,612,cs),
(648,675,o),
(560,711,o),
(449,711,cs),
(315,711,o),
(235,681,o),
(148,585,c),
(237,482,l),
(297,556,o),
(340,577,o),
(436,577,cs),
(504,577,o),
(552,556,o),
(583,517,cs),
(614,477,o),
(624,420,o),
(615,345,cs),
(598,203,o),
(533,126,o),
(388,126,cs),
(324,126,o),
(278,144,o),
(250,180,cs),
(222,215,o),
(213,268,o),
(221,339,cs),
(226,379,l),
(98,296,l),
(732,296,l),
(748,422,l),
(70,422,l),
(58,325,ls),
(43,216,o),
(74,132,o),
(131,76,cs),
(187,20,o),
(273,-8,o),
(372,-8,cs)
);
}
);
width = 820;
},
{
layerId = "C6F2FD9D-3429-4F2B-9903-30CCFB382AAD";
shapes = (
{
closed = 1;
nodes = (
(605.749,-10,o),
(739.26,114,o),
(768.406,347,cs),
(780.789,446,o),
(760.172,537,o),
(706.428,603,cs),
(652.684,669,o),
(565.813,710,o),
(448.813,710,cs),
(322.813,710,o),
(254.811,686,o),
(161.179,609,c),
(201.174,553,l),
(276.18,617,o),
(345.806,638,o),
(442.806,638,cs),
(530.806,638,o),
(598.678,605,o),
(641.049,552,cs),
(683.419,499,o),
(702.413,427,o),
(692.406,347,cs),
(669.89,167,o),
(563.755,62,o),
(381.755,62,cs),
(302.755,62,o),
(238.883,87,o),
(197.512,132,cs),
(155.016,176,o),
(135.271,242,o),
(145.404,323,cs),
(152.408,379,l),
(110.279,330,l),
(730.279,330,l),
(739.035,400,l),
(77.035,400,l),
(69.78,342,ls),
(54.645,221,o),
(82.512,132,o),
(139.382,75,cs),
(195.252,18,o),
(277.749,-10,o),
(372.749,-10,cs)
);
}
);
width = 820;
},
{
layerId = "6FC0E451-EFB7-4D7C-9E66-A10B69A48177";
shapes = (
{
closed = 1;
nodes = (
(594,-10,o),
(734,124,o),
(761,350,cs),
(772,441,o),
(757,532,o),
(709,599,cs),
(660,666,o),
(579,710,o),
(464,710,cs),
(345,710,o),
(275,692,o),
(193,618,c),
(213,594,l),
(290,663,o),
(350,678,o),
(463,678,cs),
(559,678,o),
(632,643,o),
(677,584,cs),
(721,525,o),
(740,443,o),
(728,351,cs),
(701,145,o),
(579,22,o),
(369,22,cs),
(278,22,o),
(208,53,o),
(165,110,cs),
(121,167,o),
(105,251,o),
(117,355,cs),
(120,379,l),
(94,355,l),
(724,355,l),
(728,387,l),
(83,387,l),
(80,359,ls),
(64,231,o),
(88,138,o),
(140,78,cs),
(191,18,o),
(271,-10,o),
(364,-10,cs)
);
}
);
width = 820;
},
{
layerId = "FDA1CA61-DAB6-440F-86AE-A1833308297E";
shapes = (
{
closed = 1;
nodes = (
(624,-7,o),
(772,130,o),
(772,349,cs),
(772,461,o),
(732,552,o),
(664,614,cs),
(596,676,o),
(501,710,o),
(393,710,cs),
(278,710,o),
(169,671,o),
(100,576,c),
(220,459,l),
(262,526,o),
(319,555,o),
(397,555,cs),
(457,555,o),
(504,539,o),
(535,504,cs),
(566,469,o),
(582,417,o),
(582,345,cs),
(582,224,o),
(536,148,o),
(407,148,cs),
(348,148,o),
(306,164,o),
(278,197,cs),
(250,229,o),
(237,279,o),
(237,347,cs),
(237,379,l),
(91,285,l),
(733,285,l),
(733,429,l),
(47,429,l),
(47,328,ls),
(47,217,o),
(88,133,o),
(153,77,cs),
(218,21,o),
(308,-7,o),
(408,-7,cs)
);
}
);
width = 820;
},
{
layerId = "C0F60499-8BC0-4CEA-B9B1-C7852A3AB7A6";
shapes = (
{
closed = 1;
nodes = (
(622,-8,o),
(768,132,o),
(768,348,cs),
(768,457,o),
(731,548,o),
(665,612,cs),
(599,675,o),
(505,711,o),
(394,711,cs),
(286,711,o),
(177,672,o),
(109,585,c),
(211,482,l),
(258,549,o),
(317,577,o),
(398,577,cs),
(466,577,o),
(517,556,o),
(553,517,c),
(588,477,o),
(606,420,o),
(606,345,cs),
(606,214,o),
(545,126,o),
(406,126,cs),
(342,126,o),
(294,144,o),
(262,180,c),
(229,215,o),
(213,268,o),
(213,339,cs),
(213,379,l),
(95,296,l),
(729,296,l),
(729,422,l),
(51,422,l),
(51,325,ls),
(51,216,o),
(91,132,o),
(155,76,cs),
(219,20,o),
(308,-8,o),
(407,-8,cs)
);
}
);
width = 820;
},
{
layerId = "A6FAFB92-F521-4DD4-A95F-C39B9C67A836";
shapes = (
{
closed = 1;
nodes = (
(621,-10,o),
(759,136,o),
(759,347,cs),
(759,446,o),
(727,537,o),
(665,603,cs),
(603,669,o),
(511,710,o),
(394,710,cs),
(291,710,o),
(196,680,o),
(119,609,c),
(166,553,l),
(224,608,o),
(318,638,o),
(397,638,cs),
(485,638,o),
(557,605,o),
(606,552,cs),
(655,499,o),
(683,427,o),
(683,347,cs),
(683,181,o),
(578,62,o),
(408,62,cs),
(329,62,o),
(262,87,o),
(215,132,cs),
(167,176,o),
(139,242,o),
(139,323,cs),
(139,379,l),
(103,330,l),
(723,330,l),
(723,400,l),
(61,400,l),
(61,342,ls),
(61,221,o),
(100,132,o),
(164,75,cs),
(227,18,o),
(313,-10,o),
(408,-10,cs)
);
}
);
width = 820;
},
{
layerId = "EB11814A-7CD7-4F83-85D3-A70914269335";
shapes = (
{
closed = 1;
nodes = (
(608,-10,o),
(751,143,o),
(751,350,cs),
(751,441,o),
(724,532,o),
(668,599,cs),
(611,666,o),
(524,710,o),
(409,710,cs),
(318,710,o),
(215,685,o),
(150,618,c),
(173,594,l),
(236,657,o),
(326,678,o),
(412,678,cs),
(508,678,o),
(585,643,o),
(637,584,cs),
(689,525,o),
(718,443,o),
(718,351,cs),
(718,162,o),
(593,22,o),
(400,22,cs),
(309,22,o),
(236,53,o),
(185,110,cs),
(134,167,o),
(107,251,o),
(107,355,cs),
(107,379,l),
(84,355,l),
(714,355,l),
(714,387,l),
(69,387,l),
(69,359,ls),
(69,231,o),
(105,138,o),
(164,78,cs),
(223,18,o),
(306,-10,o),
(399,-10,cs)
);
}
);
width = 820;
}
);
leftKerningGroup = C2;
rightKerningGroup = D;
unicode = 399;
},
{
glyphname = T;
layers = (
{
layerId = "F6B38B84-4AA5-4989-9E13-2A308B5F1025";
shapes = (
{
closed = 1;
nodes = (
(130,0,l),
(310,0,l),
(378.799,550,l),
(529.799,550,l),
(548.562,700,l),
(66.562,700,l),
(47.799,550,l),
(198.799,550,l)
);
}
);
width = 508;
},
{
layerId = "FF7033E7-E079-48F6-9418-777F925FA922";
shapes = (
{
closed = 1;
nodes = (
(143,0,l),
(297,0,l),
(368.3,570,l),
(527.3,570,l),
(543.562,700,l),
(70.562,700,l),
(54.3,570,l),
(214.3,570,l)
);
}
);
width = 508;
},
{
layerId = "C6F2FD9D-3429-4F2B-9903-30CCFB382AAD";
shapes = (
{
closed = 1;
nodes = (
(183,0,l),
(257,0,l),
(335.806,630,l),
(525.806,630,l),
(534.562,700,l),
(80.562,700,l),
(71.806,630,l),
(261.806,630,l)
);
}
);
width = 508;
},
{
layerId = "6FC0E451-EFB7-4D7C-9E66-A10B69A48177";
shapes = (
{
closed = 1;
nodes = (
(203,0,l),
(236,0,l),
(320,669,l),
(519,669,l),
(523,700,l),
(92,700,l),
(88,669,l),
(287,669,l)
);
}
);
width = 508;
},
{
layerId = "FDA1CA61-DAB6-440F-86AE-A1833308297E";
shapes = (
{
closed = 1;
nodes = (
(164,0,l),
(344,0,l),
(344,550,l),
(495,550,l),
(495,700,l),
(13,700,l),
(13,550,l),
(164,550,l)
);
}
);
width = 508;
},
{
layerId = "C0F60499-8BC0-4CEA-B9B1-C7852A3AB7A6";
shapes = (
{
closed = 1;
nodes = (
(177,0,l),
(331,0,l),
(331,570,l),
(490,570,l),
(490,700,l),
(17,700,l),
(17,570,l),
(177,570,l)
);
}
);
width = 508;
},
{
layerId = "A6FAFB92-F521-4DD4-A95F-C39B9C67A836";
shapes = (
{
closed = 1;
nodes = (
(217,0,l),
(291,0,l),
(291,630,l),
(481,630,l),
(481,700,l),
(27,700,l),
(27,630,l),
(217,630,l)
);
}
);
width = 508;
},
{
layerId = "EB11814A-7CD7-4F83-85D3-A70914269335";
shapes = (
{
closed = 1;
nodes = (
(237,0,l),
(270,0,l),
(270,669,l),
(469,669,l),
(469,700,l),
(38,700,l),
(38,669,l),
(237,669,l)
);
}
);
width = 508;
}
);
leftKerningGroup = T2;
rightKerningGroup = T;
unicode = 84;
},
{
glyphname = U;
layers = (
{
layerId = "F6B38B84-4AA5-4989-9E13-2A308B5F1025";
shapes = (
{
closed = 1;
nodes = (
(526.749,-10,o),
(624.758,94,o),
(648.9,287,cs),
(700.562,700,l),
(530.562,700,l),
(478.4,283,ls),
(467.017,192,o),
(423.389,155,o),
(348.389,155,cs),
(260.389,155,o),
(244.144,217,o),
(253.901,295,cs),
(304.562,700,l),
(124.562,700,l),
(71.9,279,ls),
(48.133,89,o),
(142.749,-10,o),
(330.749,-10,cs)
);
}
);
width = 718;
},
{
layerId = "FF7033E7-E079-48F6-9418-777F925FA922";
shapes = (
{
closed = 1;
nodes = (
(520.749,-10,o),
(616.633,93,o),
(640.275,282,cs),
(692.562,700,l),
(545.562,700,l),
(493.15,281,ls),
(479.89,175,o),
(431.387,131,o),
(343.387,131,cs),
(246.387,131,o),
(223.393,203,o),
(234.276,290,cs),
(285.562,700,l),
(131.562,700,l),
(78.524,276,ls),
(55.633,93,o),
(145.749,-10,o),
(328.749,-10,cs)
);
}
);
width = 718;
},
{
layerId = "C6F2FD9D-3429-4F2B-9903-30CCFB382AAD";
shapes = (
{
closed = 1;
nodes = (
(504.749,-10,o),
(592.884,103,o),
(614.649,277,cs),
(667.562,700,l),
(593.562,700,l),
(541.15,281,ls),
(521.636,125,o),
(455.755,62,o),
(332.755,62,cs),
(199.755,62,o),
(164.139,161,o),
(179.15,281,cs),
(231.562,700,l),
(157.562,700,l),
(104.649,277,ls),
(84.76,118,o),
(153.749,-10,o),
(323.749,-10,cs)
);
}
);
width = 718;
},
{
layerId = "6FC0E451-EFB7-4D7C-9E66-A10B69A48177";
shapes = (
{
closed = 1;
nodes = (
(496,-10,o),
(580,95,o),
(601,262,cs),
(656,700,l),
(623,700,l),
(568,264,ls),
(547,100,o),
(473,22,o),
(328,22,cs),
(182,22,o),
(133,134,o),
(148,264,cs),
(203,700,l),
(170,700,l),
(115,262,ls),
(95,113,o),
(162,-10,o),
(324,-10,cs)
);
}
);
width = 718;
},
{
layerId = "FDA1CA61-DAB6-440F-86AE-A1833308297E";
shapes = (
{
closed = 1;
nodes = (
(551,-10,o),
(647,108,o),
(647,287,cs),
(647,700,l),
(477,700,l),
(477,283,ls),
(477,198,o),
(432,155,o),
(363,155,cs),
(275,155,o),
(251,217,o),
(251,295,cs),
(251,700,l),
(71,700,l),
(71,279,ls),
(71,89,o),
(178,-10,o),
(366,-10,cs)
);
}
);
width = 718;
},
{
layerId = "C0F60499-8BC0-4CEA-B9B1-C7852A3AB7A6";
shapes = (
{
closed = 1;
nodes = (
(545,-10,o),
(639,107,o),
(639,282,cs),
(639,700,l),
(492,700,l),
(492,281,ls),
(492,182,o),
(442,131,o),
(361,131,cs),
(264,131,o),
(232,203,o),
(232,290,cs),
(232,700,l),
(78,700,l),
(78,276,ls),
(78,93,o),
(181,-10,o),
(364,-10,cs)
);
}
);
width = 718;
},
{
layerId = "A6FAFB92-F521-4DD4-A95F-C39B9C67A836";
shapes = (
{
closed = 1;
nodes = (
(532,-10,o),
(614,116,o),
(614,277,cs),
(614,700,l),
(540,700,l),
(540,281,ls),
(540,134,o),
(474,62,o),
(359,62,cs),
(226,62,o),
(178,161,o),
(178,281,cs),
(178,700,l),
(104,700,l),
(104,277,ls),
(104,118,o),
(189,-10,o),
(359,-10,cs)
);
}
);
width = 718;
},
{
layerId = "EB11814A-7CD7-4F83-85D3-A70914269335";
shapes = (
{
closed = 1;
nodes = (
(520,-10,o),
(602,111,o),
(602,262,cs),
(602,700,l),
(569,700,l),
(569,264,ls),
(569,112,o),
(494,22,o),
(359,22,cs),
(216,22,o),
(149,132,o),
(149,264,cs),
(149,700,l),
(116,700,l),
(116,262,ls),
(116,110,o),
(197,-10,o),
(359,-10,cs)
);
}
);
width = 718;
}
);
leftKerningGroup = U;
rightKerningGroup = J;
unicode = 85;
},
{
glyphname = Uogonek;
layers = (
{
layerId = "F6B38B84-4AA5-4989-9E13-2A308B5F1025";
shapes = (
{
closed = 1;
nodes = (
(481,-250,o),
(515,-240,o),
(527,-235,q),
(536,-158,l),
(526,-163,o),
(505,-166,o),
(499,-166,qs),
(479,-166,o),
(460,-129,o),
(464,-94,qs),
(467,-72,o),
(482,-29,o),
(505,13,o),
(533,52,o),
(549,69,qs),
(587,109,o),
(640,216,o),
(649,287,qs),
(701,700,l),
(531,700,l),
(478,283,ls),
(474,251,o),
(452,203,o),
(417,171,o),
(371,155,o),
(344,155,qs),
(319,155,o),
(281,170,o),
(257,203,o),
(249,257,o),
(254,295,qs),
(305,700,l),
(125,700,l),
(72,279,ls),
(63,210,o),
(87,102,o),
(151,29,o),
(254,-10,o),
(325,-10,qs),
(349,-10,o),
(390,-6,o),
(409,-2,q),
(398,-19,o),
(379,-52,o),
(365,-85,o),
(356,-117,o),
(354,-132,qs),
(351,-157,o),
(361,-200,o),
(386,-232,o),
(428,-250,o),
(458,-250,qs)
);
}
);
width = 718;
},
{
layerId = "FF7033E7-E079-48F6-9418-777F925FA922";
shapes = (
{
closed = 1;
nodes = (
(478,-248,o),
(512,-239,o),
(525,-234,q),
(533,-164,l),
(523,-168,o),
(501,-171,o),
(494,-171,qs),
(472,-171,o),
(451,-136,o),
(455,-102,qs),
(458,-81,o),
(474,-35,o),
(497,10,o),
(528,53,o),
(545,72,qs),
(582,113,o),
(632,216,o),
(640,282,qs),
(693,700,l),
(546,700,l),
(493,281,ls),
(489,244,o),
(464,188,o),
(424,150,o),
(372,131,o),
(341,131,qs),
(311,131,o),
(267,149,o),
(239,188,o),
(229,248,o),
(234,290,qs),
(286,700,l),
(132,700,l),
(79,276,ls),
(70,209,o),
(94,102,o),
(157,29,o),
(259,-10,o),
(329,-10,qs),
(352,-10,o),
(395,-5,o),
(416,0,q),
(404,-18,o),
(382,-54,o),
(368,-88,o),
(358,-121,o),
(356,-136,qs),
(353,-160,o),
(362,-201,o),
(387,-231,o),
(428,-248,o),
(456,-248,qs)
);
}
);
width = 718;
},
{
layerId = "C6F2FD9D-3429-4F2B-9903-30CCFB382AAD";
shapes = (
{
closed = 1;
nodes = (
(457,-243,o),
(486,-239,o),
(501,-234,q),
(508,-179,l),
(496,-183,o),
(476,-185,o),
(469,-185,qs),
(436,-185,o),
(406,-149,o),
(410,-119,qs),
(413,-98,o),
(429,-58,o),
(458,-11,o),
(501,44,o),
(531,79,qs),
(561,114,o),
(606,211,o),
(614,269,qs),
(668,700,l),
(594,700,l),
(540,275,ls),
(534,224,o),
(499,145,o),
(446,90,o),
(376,62,o),
(333,62,qs),
(290,62,o),
(226,90,o),
(187,145,o),
(172,224,o),
(178,275,qs),
(232,700,l),
(158,700,l),
(104,269,ls),
(96,207,o),
(118,104,o),
(175,31,o),
(264,-10,o),
(323,-10,qs),
(349,-10,o),
(397,0,o),
(420,8,q),
(401,-16,o),
(373,-58,o),
(353,-95,o),
(341,-127,o),
(339,-141,qs),
(337,-162,o),
(346,-199,o),
(371,-227,o),
(410,-243,o),
(436,-243,qs)
);
}
);
width = 718;
},
{
layerId = "6FC0E451-EFB7-4D7C-9E66-A10B69A48177";
shapes = (
{
closed = 1;
nodes = (
(436,-240,o),
(470,-235,o),
(477,-233,q),
(481,-202,l),
(469,-204,o),
(446,-208,o),
(435,-208,qs),
(400,-208,o),
(370,-172,o),
(374,-140,q),
(377,-123,o),
(393,-83,o),
(424,-35,o),
(474,25,o),
(510,64,qs),
(549,106,o),
(593,203,o),
(601,265,qs),
(656,700,l),
(623,700,l),
(568,266,ls),
(561,209,o),
(523,118,o),
(459,55,o),
(378,22,o),
(328,22,qs),
(278,22,o),
(205,55,o),
(159,118,o),
(141,209,o),
(148,266,qs),
(203,700,l),
(170,700,l),
(115,265,ls),
(107,203,o),
(127,101,o),
(180,30,o),
(267,-10,o),
(324,-10,qs),
(350,-10,o),
(417,5,o),
(446,23,q),
(417,-11,o),
(376,-61,o),
(351,-100,o),
(339,-132,o),
(338,-146,q),
(335,-166,o),
(343,-199,o),
(364,-226,o),
(401,-240,o),
(427,-240,qs)
);
}
);
width = 718;
},
{
layerId = "FDA1CA61-DAB6-440F-86AE-A1833308297E";
shapes = (
{
closed = 1;
nodes = (
(546,-250,o),
(579,-240,o),
(590,-235,q),
(590,-158,l),
(580,-163,o),
(560,-166,o),
(554,-166,qs),
(534,-166,o),
(510,-129,o),
(510,-94,qs),
(510,-72,o),
(520,-29,o),
(537,13,o),
(560,52,o),
(574,69,qs),
(607,109,o),
(647,216,o),
(647,287,qs),
(647,700,l),
(477,700,l),
(477,283,ls),
(477,251,o),
(461,203,o),
(430,171,o),
(386,155,o),
(359,155,qs),
(334,155,o),
(294,170,o),
(266,203,o),
(251,257,o),
(251,295,qs),
(251,700,l),
(71,700,l),
(71,279,ls),
(71,210,o),
(108,102,o),
(181,29,o),
(289,-10,o),
(360,-10,qs),
(384,-10,o),
(425,-6,o),
(443,-2,q),
(434,-19,o),
(420,-52,o),
(410,-85,o),
(405,-117,o),
(405,-132,qs),
(405,-157,o),
(420,-200,o),
(449,-232,o),
(493,-250,o),
(523,-250,qs)
);
}
);
width = 718;
},
{
layerId = "C0F60499-8BC0-4CEA-B9B1-C7852A3AB7A6";
shapes = (
{
closed = 1;
nodes = (
(543,-248,o),
(576,-239,o),
(588,-234,q),
(588,-164,l),
(578,-168,o),
(556,-171,o),
(549,-171,qs),
(527,-171,o),
(502,-136,o),
(502,-102,qs),
(502,-81,o),
(512,-35,o),
(530,10,o),
(555,53,o),
(570,72,qs),
(602,113,o),
(639,216,o),
(639,282,qs),
(639,700,l),
(492,700,l),
(492,281,ls),
(492,244,o),
(474,188,o),
(439,150,o),
(390,131,o),
(359,131,qs),
(329,131,o),
(282,149,o),
(249,188,o),
(232,248,o),
(232,290,qs),
(232,700,l),
(78,700,l),
(78,276,ls),
(78,209,o),
(115,102,o),
(187,29,o),
(294,-10,o),
(364,-10,qs),
(387,-10,o),
(430,-5,o),
(450,0,q),
(440,-18,o),
(423,-54,o),
(413,-88,o),
(407,-121,o),
(407,-136,qs),
(407,-160,o),
(421,-201,o),
(450,-231,o),
(493,-248,o),
(521,-248,qs)
);
}
);
width = 718;
},
{
layerId = "A6FAFB92-F521-4DD4-A95F-C39B9C67A836";
shapes = (
{
closed = 1;
nodes = (
(521,-243,o),
(550,-239,o),
(564,-234,q),
(564,-179,l),
(553,-183,o),
(533,-185,o),
(526,-185,qs),
(493,-185,o),
(459,-149,o),
(459,-119,qs),
(459,-98,o),
(470,-58,o),
(493,-11,o),
(529,44,o),
(555,79,qs),
(581,114,o),
(614,211,o),
(614,269,qs),
(614,700,l),
(540,700,l),
(540,275,ls),
(540,224,o),
(515,145,o),
(469,90,o),
(402,62,o),
(359,62,qs),
(316,62,o),
(249,90,o),
(203,145,o),
(178,224,o),
(178,275,qs),
(178,700,l),
(104,700,l),
(104,269,ls),
(104,207,o),
(139,104,o),
(205,31,o),
(299,-10,o),
(358,-10,qs),
(384,-10,o),
(431,0,o),
(453,8,q),
(437,-16,o),
(414,-58,o),
(399,-95,o),
(391,-127,o),
(391,-141,qs),
(391,-162,o),
(405,-199,o),
(433,-227,o),
(474,-243,o),
(500,-243,qs)
);
}
);
width = 718;
},
{
layerId = "EB11814A-7CD7-4F83-85D3-A70914269335";
shapes = (
{
closed = 1;
nodes = (
(500,-240,o),
(533,-235,o),
(540,-233,q),
(540,-202,l),
(529,-204,o),
(506,-208,o),
(495,-208,qs),
(460,-208,o),
(426,-172,o),
(426,-140,qs),
(426,-123,o),
(437,-83,o),
(462,-35,o),
(505,25,o),
(536,64,qs),
(570,106,o),
(602,203,o),
(602,265,qs),
(602,700,l),
(569,700,l),
(569,266,ls),
(569,209,o),
(542,118,o),
(486,55,o),
(409,22,o),
(359,22,qs),
(309,22,o),
(232,55,o),
(178,118,o),
(149,209,o),
(149,266,qs),
(149,700,l),
(116,700,l),
(116,265,ls),
(116,203,o),
(148,101,o),
(210,30,o),
(302,-10,o),
(359,-10,qs),
(385,-10,o),
(450,5,o),
(477,23,q),
(452,-11,o),
(418,-61,o),
(398,-100,o),
(390,-132,o),
(390,-146,qs),
(390,-166,o),
(402,-199,o),
(426,-226,o),
(465,-240,o),
(491,-240,qs)
);
}
);
width = 718;
}
);
leftKerningGroup = U;
rightKerningGroup = J;
unicode = 370;
},
{
glyphname = V;
layers = (
{
layerId = "F6B38B84-4AA5-4989-9E13-2A308B5F1025";
shapes = (
{
closed = 1;
nodes = (
(235,-6,l),
(335,-6,l),
(673,680,l),
(676,700,l),
(507,700,l),
(265,177,l),
(365,177,l),
(251,700,l),
(70,700,l),
(67,680,l)
);
}
);
width = 638;
},
{
layerId = "FF7033E7-E079-48F6-9418-777F925FA922";
shapes = (
{
closed = 1;
nodes = (
(242,-7,l),
(327,-7,l),
(671,680,l),
(674,700,l),
(525,700,l),
(270,165,l),
(355,165,l),
(231,700,l),
(72,700,l),
(69,680,l)
);
}
);
width = 638;
},
{
layerId = "C6F2FD9D-3429-4F2B-9903-30CCFB382AAD";
shapes = (
{
closed = 1;
nodes = (
(272,-10,l),
(295,-10,l),
(664,680,l),
(667,700,l),
(596,700,l),
(290,119,l),
(315,119,l),
(152,700,l),
(79,700,l),
(76,680,l)
);
}
);
width = 638;
},
{
layerId = "6FC0E451-EFB7-4D7C-9E66-A10B69A48177";
shapes = (
{
closed = 1;
nodes = (
(281,-10,l),
(283,-10,l),
(636,680,l),
(639,700,l),
(615,700,l),
(280,48,l),
(301,48,l),
(131,700,l),
(106,700,l),
(103,680,l)
);
}
);
width = 638;
},
{
layerId = "FDA1CA61-DAB6-440F-86AE-A1833308297E";
shapes = (
{
closed = 1;
nodes = (
(270,-6,l),
(370,-6,l),
(622,680,l),
(622,700,l),
(453,700,l),
(277,177,l),
(377,177,l),
(197,700,l),
(16,700,l),
(16,680,l)
);
}
);
width = 638;
},
{
layerId = "C0F60499-8BC0-4CEA-B9B1-C7852A3AB7A6";
shapes = (
{
closed = 1;
nodes = (
(277,-7,l),
(362,-7,l),
(620,680,l),
(620,700,l),
(471,700,l),
(283,165,l),
(368,165,l),
(177,700,l),
(18,700,l),
(18,680,l)
);
}
);
width = 638;
},
{
layerId = "A6FAFB92-F521-4DD4-A95F-C39B9C67A836";
shapes = (
{
closed = 1;
nodes = (
(307,-10,l),
(330,-10,l),
(613,680,l),
(613,700,l),
(542,700,l),
(309,119,l),
(334,119,l),
(98,700,l),
(25,700,l),
(25,680,l)
);
}
);
width = 638;
},
{
layerId = "EB11814A-7CD7-4F83-85D3-A70914269335";
shapes = (
{
closed = 1;
nodes = (
(316,-10,l),
(318,-10,l),
(585,680,l),
(585,700,l),
(561,700,l),
(308,48,l),
(329,48,l),
(77,700,l),
(52,700,l),
(52,680,l)
);
}
);
width = 638;
}
);
unicode = 86;
},
{
glyphname = W;
layers = (
{
layerId = "F6B38B84-4AA5-4989-9E13-2A308B5F1025";
shapes = (
{
closed = 1;
nodes = (
(138,0,l),
(268,0,l),
(525.295,514,l),
(442.295,514,l),
(562,0,l),
(688,0,l),
(945.06,680,l),
(947.562,700,l),
(782.562,700,l),
(585.516,180,l),
(693.638,149,l),
(566.562,700,l),
(450.562,700,l),
(186.763,150,l),
(291.519,220,l),
(234.562,700,l),
(59.562,700,l),
(57.06,680,l)
);
}
);
width = 900;
},
{
layerId = "FF7033E7-E079-48F6-9418-777F925FA922";
shapes = (
{
closed = 1;
nodes = (
(151.625,-3,l),
(255.625,-3,l),
(520.672,533,l),
(447.672,533,l),
(571.625,-3,l),
(672.625,-3,l),
(936.06,680,l),
(938.562,700,l),
(796.562,700,l),
(592.39,171,l),
(680.638,149,l),
(553.562,700,l),
(460.562,700,l),
(196.763,150,l),
(281.143,201,l),
(217.562,700,l),
(67.562,700,l),
(65.06,680,l)
);
}
);
width = 900;
},
{
layerId = "C6F2FD9D-3429-4F2B-9903-30CCFB382AAD";
shapes = (
{
closed = 1;
nodes = (
(203.749,-10,l),
(225.749,-10,l),
(512.803,598,l),
(468.803,598,l),
(602.749,-10,l),
(625.749,-10,l),
(905.06,680,l),
(907.562,700,l),
(838.562,700,l),
(612.762,134,l),
(638.762,134,l),
(515.562,700,l),
(491.562,700,l),
(226.762,134,l),
(252.762,134,l),
(168.562,700,l),
(99.562,700,l),
(97.06,680,l)
);
}
);
width = 900;
},
{
layerId = "6FC0E451-EFB7-4D7C-9E66-A10B69A48177";
shapes = (
{
closed = 1;
nodes = (
(215,0,l),
(490,615,l),
(495,615,l),
(616,0,l),
(623,0,l),
(886,680,l),
(889,700,l),
(863,700,l),
(622,84,l),
(631,84,l),
(508,700,l),
(499,700,l),
(222,84,l),
(231,84,l),
(144,700,l),
(117,700,l),
(114,680,l),
(207,0,l)
);
}
);
width = 900;
},
{
layerId = "FDA1CA61-DAB6-440F-86AE-A1833308297E";
shapes = (
{
closed = 1;
nodes = (
(172,0,l),
(302,0,l),
(495,514,l),
(412,514,l),
(596,0,l),
(722,0,l),
(894,680,l),
(894,700,l),
(729,700,l),
(597,180,l),
(709,149,l),
(513,700,l),
(397,700,l),
(202,150,l),
(298,220,l),
(181,700,l),
(6,700,l),
(6,680,l)
);
}
);
width = 900;
},
{
layerId = "C0F60499-8BC0-4CEA-B9B1-C7852A3AB7A6";
shapes = (
{
closed = 1;
nodes = (
(186,-3,l),
(290,-3,l),
(488,533,l),
(415,533,l),
(606,-3,l),
(707,-3,l),
(885,680,l),
(885,700,l),
(743,700,l),
(605,171,l),
(696,149,l),
(500,700,l),
(407,700,l),
(212,150,l),
(290,201,l),
(164,700,l),
(14,700,l),
(14,680,l)
);
}
);
width = 900;
},
{
layerId = "A6FAFB92-F521-4DD4-A95F-C39B9C67A836";
shapes = (
{
closed = 1;
nodes = (
(239,-10,l),
(261,-10,l),
(472,598,l),
(428,598,l),
(638,-10,l),
(661,-10,l),
(854,680,l),
(854,700,l),
(785,700,l),
(630,134,l),
(656,134,l),
(462,700,l),
(438,700,l),
(244,134,l),
(270,134,l),
(115,700,l),
(46,700,l),
(46,680,l)
);
}
);
width = 900;
},
{
layerId = "EB11814A-7CD7-4F83-85D3-A70914269335";
shapes = (
{
closed = 1;
nodes = (
(249,0,l),
(447,615,l),
(452,615,l),
(650,0,l),
(657,0,l),
(835,680,l),
(835,700,l),
(809,700,l),
(645,84,l),
(654,84,l),
(454,700,l),
(445,700,l),
(245,84,l),
(254,84,l),
(90,700,l),
(63,700,l),
(63,680,l),
(241,0,l)
);
}
);
width = 900;
}
);
leftKerningGroup = W2;
rightKerningGroup = W;
unicode = 87;
},
{
glyphname = X;
layers = (
{
layerId = "F6B38B84-4AA5-4989-9E13-2A308B5F1025";
shapes = (
{
closed = 1;
nodes = (
(-64,0,l),
(115,0,l),
(297.773,262,l),
(417,0,l),
(610,0,l),
(612.502,20,l),
(425.784,382,l),
(646.06,680,l),
(648.562,700,l),
(473.562,700,l),
(334.919,503,l),
(248.562,700,l),
(57.562,700,l),
(55.06,680,l),
(200.534,380,l),
(-61.498,20,l)
);
}
);
width = 615;
},
{
layerId = "FF7033E7-E079-48F6-9418-777F925FA922";
shapes = (
{
closed = 1;
nodes = (
(-47,0,l),
(106,0,l),
(300.649,277,l),
(429,0,l),
(594,0,l),
(596.502,20,l),
(409.784,382,l),
(632.06,680,l),
(634.562,700,l),
(485.562,700,l),
(332.668,485,l),
(234.562,700,l),
(72.562,700,l),
(70.06,680,l),
(217.283,378,l),
(-44.498,20,l)
);
}
);
width = 615;
},
{
layerId = "C6F2FD9D-3429-4F2B-9903-30CCFB382AAD";
shapes = (
{
closed = 1;
nodes = (
(15,0,l),
(86,0,l),
(310.902,303,l),
(457,0,l),
(532,0,l),
(534.502,20,l),
(365.408,371,l),
(595.06,680,l),
(597.562,700,l),
(530.562,700,l),
(331.038,432,l),
(207.562,700,l),
(129.562,700,l),
(127.06,680,l),
(277.907,367,l),
(17.502,20,l)
);
}
);
width = 615;
},
{
layerId = "6FC0E451-EFB7-4D7C-9E66-A10B69A48177";
shapes = (
{
closed = 1;
nodes = (
(27,0,l),
(53,0,l),
(313,343,l),
(494,0,l),
(517,0,l),
(520,20,l),
(338,368,l),
(580,680,l),
(583,700,l),
(556,700,l),
(322,396,l),
(160,700,l),
(139,700,l),
(136,680,l),
(298,372,l),
(30,20,l)
);
}
);
width = 615;
},
{
layerId = "FDA1CA61-DAB6-440F-86AE-A1833308297E";
shapes = (
{
closed = 1;
nodes = (
(-30,0,l),
(149,0,l),
(299,262,l),
(451,0,l),
(644,0,l),
(644,20,l),
(412,382,l),
(595,680,l),
(595,700,l),
(420,700,l),
(306,503,l),
(195,700,l),
(4,700,l),
(4,680,l),
(187,380,l),
(-30,20,l)
);
}
);
width = 615;
},
{
layerId = "C0F60499-8BC0-4CEA-B9B1-C7852A3AB7A6";
shapes = (
{
closed = 1;
nodes = (
(-13,0,l),
(140,0,l),
(300,277,l),
(463,0,l),
(628,0,l),
(628,20,l),
(396,382,l),
(581,680,l),
(581,700,l),
(432,700,l),
(306,485,l),
(181,700,l),
(19,700,l),
(19,680,l),
(204,378,l),
(-13,20,l)
);
}
);
width = 615;
},
{
layerId = "A6FAFB92-F521-4DD4-A95F-C39B9C67A836";
shapes = (
{
closed = 1;
nodes = (
(49,0,l),
(120,0,l),
(307,303,l),
(491,0,l),
(566,0,l),
(566,20,l),
(353,371,l),
(544,680,l),
(544,700,l),
(477,700,l),
(311,432,l),
(154,700,l),
(76,700,l),
(76,680,l),
(266,367,l),
(49,20,l)
);
}
);
width = 615;
},
{
layerId = "EB11814A-7CD7-4F83-85D3-A70914269335";
shapes = (
{
closed = 1;
nodes = (
(61,0,l),
(87,0,l),
(304,343,l),
(528,0,l),
(551,0,l),
(551,20,l),
(326,368,l),
(529,680,l),
(529,700,l),
(502,700,l),
(306,396,l),
(106,700,l),
(85,700,l),
(85,680,l),
(285,372,l),
(61,20,l)
);
}
);
width = 615;
}
);
unicode = 88;
},
{
glyphname = Y;
layers = (
{
layerId = "F6B38B84-4AA5-4989-9E13-2A308B5F1025";
shapes = (
{
closed = 1;
nodes = (
(263.512,132,l),
(281.512,132,l),
(610.06,680,l),
(612.562,700,l),
(436.562,700,l),
(279.16,401,l),
(349.286,402,l),
(264.562,700,l),
(74.562,700,l),
(72.06,680,l)
);
},
{
closed = 1;
nodes = (
(384.402,307,l),
(204.402,307,l),
(166,0,l),
(346,0,l)
);
}
);
width = 580;
},
{
layerId = "FF7033E7-E079-48F6-9418-777F925FA922";
shapes = (
{
closed = 1;
nodes = (
(268.514,156,l),
(285.639,157,l),
(608.06,680,l),
(610.562,700,l),
(455.562,700,l),
(281.035,392,l),
(343.16,393,l),
(242.562,700,l),
(76.562,700,l),
(74.06,680,l)
);
},
{
closed = 1;
nodes = (
(375.903,319,l),
(216.903,319,l),
(177,0,l),
(336,0,l)
);
}
);
width = 580;
},
{
layerId = "C6F2FD9D-3429-4F2B-9903-30CCFB382AAD";
shapes = (
{
closed = 1;
nodes = (
(286.772,254,l),
(300.273,258,l),
(602.06,680,l),
(604.562,700,l),
(531.562,700,l),
(287.657,357,l),
(320.657,357,l),
(154.562,700,l),
(82.562,700,l),
(80.06,680,l)
);
},
{
closed = 1;
nodes = (
(343.158,369,l),
(269.158,369,l),
(223,0,l),
(297,0,l)
);
}
);
width = 580;
},
{
layerId = "6FC0E451-EFB7-4D7C-9E66-A10B69A48177";
shapes = (
{
closed = 1;
nodes = (
(296,326,l),
(309,325,l),
(575,679,l),
(578,700,l),
(557,700,l),
(296,353,l),
(317,354,l),
(134,700,l),
(110,700,l),
(107,679,l)
);
},
{
closed = 1;
nodes = (
(323,361,l),
(291,361,l),
(246,0,l),
(278,0,l)
);
}
);
width = 580;
},
{
layerId = "FDA1CA61-DAB6-440F-86AE-A1833308297E";
shapes = (
{
closed = 1;
nodes = (
(281,132,l),
(299,132,l),
(559,680,l),
(559,700,l),
(383,700,l),
(263,401,l),
(333,402,l),
(211,700,l),
(21,700,l),
(21,680,l)
);
},
{
closed = 1;
nodes = (
(380,307,l),
(200,307,l),
(200,0,l),
(380,0,l)
);
}
);
width = 580;
},
{
layerId = "C0F60499-8BC0-4CEA-B9B1-C7852A3AB7A6";
shapes = (
{
closed = 1;
nodes = (
(283,156,l),
(300,157,l),
(557,680,l),
(557,700,l),
(402,700,l),
(266,392,l),
(328,393,l),
(189,700,l),
(23,700,l),
(23,680,l)
);
},
{
closed = 1;
nodes = (
(370,319,l),
(211,319,l),
(211,0,l),
(370,0,l)
);
}
);
width = 580;
},
{
layerId = "A6FAFB92-F521-4DD4-A95F-C39B9C67A836";
shapes = (
{
closed = 1;
nodes = (
(289,254,l),
(302,258,l),
(551,680,l),
(551,700,l),
(478,700,l),
(277,357,l),
(310,357,l),
(101,700,l),
(29,700,l),
(29,680,l)
);
},
{
closed = 1;
nodes = (
(331,369,l),
(257,369,l),
(257,0,l),
(331,0,l)
);
}
);
width = 580;
},
{
layerId = "EB11814A-7CD7-4F83-85D3-A70914269335";
shapes = (
{
closed = 1;
nodes = (
(289,326,l),
(302,325,l),
(524,679,l),
(524,700,l),
(503,700,l),
(286,353,l),
(307,354,l),
(80,700,l),
(56,700,l),
(56,679,l)
);
},
{
closed = 1;
nodes = (
(312,361,l),
(280,361,l),
(280,0,l),
(312,0,l)
);
}
);
width = 580;
}
);
leftKerningGroup = Y2;
rightKerningGroup = Y;
unicode = 89;
},
{
glyphname = Z;
layers = (
{
layerId = "F6B38B84-4AA5-4989-9E13-2A308B5F1025";
shapes = (
{
closed = 1;
nodes = (
(13,0,l),
(497,0,l),
(515.763,150,l),
(202.763,150,l),
(220.009,104,l),
(567.301,578,l),
(582.562,700,l),
(121.562,700,l),
(102.799,550,l),
(417.799,550,l),
(387.303,602,l),
(26.635,109,l)
);
}
);
width = 582;
},
{
layerId = "FF7033E7-E079-48F6-9418-777F925FA922";
shapes = (
{
closed = 1;
nodes = (
(14,0,l),
(496,0,l),
(512.261,130,l),
(175.261,130,l),
(191.258,90,l),
(570.678,597,l),
(583.562,700,l),
(121.562,700,l),
(105.3,570,l),
(444.3,570,l),
(417.305,618,l),
(26.008,96,l)
);
}
);
width = 582;
},
{
layerId = "C6F2FD9D-3429-4F2B-9903-30CCFB382AAD";
shapes = (
{
closed = 1;
nodes = (
(16,0,l),
(486,0,l),
(494.756,70,l),
(91.756,70,l),
(101.129,49,l),
(574.307,650,l),
(580.562,700,l),
(120.562,700,l),
(111.806,630,l),
(515.806,630,l),
(498.934,663,l),
(23.38,59,l)
);
}
);
width = 582;
},
{
layerId = "6FC0E451-EFB7-4D7C-9E66-A10B69A48177";
shapes = (
{
closed = 1;
nodes = (
(19,0,l),
(482,0,l),
(486,31,l),
(55,31,l),
(47,-2,l),
(579,689,l),
(581,700,l),
(121,700,l),
(117,669,l),
(546,669,l),
(557,706,l),
(20,8,l)
);
}
);
width = 582;
},
{
layerId = "FDA1CA61-DAB6-440F-86AE-A1833308297E";
shapes = (
{
closed = 1;
nodes = (
(47,0,l),
(531,0,l),
(531,150,l),
(218,150,l),
(241,104,l),
(529,578,l),
(529,700,l),
(68,700,l),
(68,550,l),
(383,550,l),
(346,602,l),
(47,109,l)
);
}
);
width = 582;
},
{
layerId = "C0F60499-8BC0-4CEA-B9B1-C7852A3AB7A6";
shapes = (
{
closed = 1;
nodes = (
(48,0,l),
(530,0,l),
(530,130,l),
(193,130,l),
(214,90,l),
(530,597,l),
(530,700,l),
(68,700,l),
(68,570,l),
(407,570,l),
(374,618,l),
(48,96,l)
);
}
);
width = 582;
},
{
layerId = "A6FAFB92-F521-4DD4-A95F-C39B9C67A836";
shapes = (
{
closed = 1;
nodes = (
(50,0,l),
(520,0,l),
(520,70,l),
(117,70,l),
(129,49,l),
(527,650,l),
(527,700,l),
(67,700,l),
(67,630,l),
(471,630,l),
(450,663,l),
(50,59,l)
);
}
);
width = 582;
},
{
layerId = "EB11814A-7CD7-4F83-85D3-A70914269335";
shapes = (
{
closed = 1;
nodes = (
(53,0,l),
(516,0,l),
(516,31,l),
(85,31,l),
(81,-2,l),
(527,689,l),
(527,700,l),
(67,700,l),
(67,669,l),
(496,669,l),
(503,706,l),
(53,8,l)
);
}
);
width = 582;
}
);
leftKerningGroup = Z2;
rightKerningGroup = Z;
unicode = 90;
},
{
glyphname = a;
layers = (
{
layerId = "F6B38B84-4AA5-4989-9E13-2A308B5F1025";
shapes = (
{
closed = 1;
nodes = (
(264.624,-11,o),
(327.004,48,o),
(341.014,160,c),
(318.886,127,l),
(313.633,85,o),
(313.254,42,o),
(319,0,c),
(480,0,l),
(474.504,44,o),
(475.008,88,o),
(480.512,132,cs),
(498.274,274,l),
(515.787,414,o),
(429.667,477,o),
(297.667,477,cs),
(179.667,477,o),
(102.414,443,o),
(48.654,333,c),
(183.527,300,l),
(203.155,337,o),
(223.906,351,o),
(274.906,351,cs),
(302.906,351,o),
(345.905,343,o),
(341.402,307,cs),
(339.025,288,o),
(322.774,270,o),
(281.774,270,cs),
(173.774,270,ls),
(82.774,270,o),
(16.52,228,o),
(5.137,137,cs),
(-6.871,41,o),
(59.624,-11,o),
(151.624,-11,cs)
);
},
{
closed = 1;
nodes = (
(182.886,119,o),
(170.012,136,o),
(172.389,155,cs),
(174.765,174,o),
(187.517,188,o),
(221.517,188,cs),
(265.517,188,ls),
(301.517,188,o),
(327.018,208,o),
(342.396,243,c),
(336.399,267,l),
(329.018,208,ls),
(321.638,149,o),
(284.886,119,o),
(226.886,119,cs)
);
}
);
width = 543;
},
{
layerId = "FF7033E7-E079-48F6-9418-777F925FA922";
shapes = (
{
closed = 1;
nodes = (
(266.749,-10,o),
(338.254,42,o),
(351.638,149,c),
(334.261,130,l),
(328.883,87,o),
(327.379,43,o),
(335,0,c),
(469,0,l),
(465.379,43,o),
(465.758,86,o),
(471.136,129,cs),
(488.399,267,l),
(505.536,404,o),
(427.666,469,o),
(296.666,469,cs),
(179.666,469,o),
(107.288,434,o),
(55.529,324,c),
(171.901,295,l),
(191.405,339,o),
(218.657,357,o),
(276.657,357,cs),
(311.657,357,o),
(360.281,346,o),
(354.777,302,cs),
(351.9,279,o),
(334.773,262,o),
(295.773,262,cs),
(178.773,262,ls),
(86.773,262,o),
(25.645,221,o),
(14.136,129,cs),
(2.253,34,o),
(71.749,-10,o),
(161.749,-10,cs)
);
},
{
closed = 1;
nodes = (
(171.009,104,o),
(153.886,119,o),
(157.013,144,cs),
(160.265,170,o),
(176.392,187,o),
(214.392,187,cs),
(278.392,187,ls),
(313.392,187,o),
(339.643,205,o),
(359.271,242,c),
(349.898,263,l),
(342.268,202,ls),
(333.887,135,o),
(288.009,104,o),
(223.009,104,cs)
);
}
);
width = 543;
},
{
layerId = "C6F2FD9D-3429-4F2B-9903-30CCFB382AAD";
shapes = (
{
closed = 1;
nodes = (
(278.999,-8,o),
(374.377,27,o),
(384.886,119,c),
(380.512,140,l),
(374.633,93,o),
(372.879,47,o),
(380,0,c),
(448,0,l),
(440.004,40,o),
(441.007,80,o),
(446.011,120,cs),
(462.022,248,l),
(477.658,373,o),
(423.789,446,o),
(297.789,446,cs),
(184.789,446,o),
(112.411,411,o),
(78.527,300,c),
(143.025,280,l),
(161.781,350,o),
(198.033,376,o),
(285.033,376,cs),
(342.033,376,o),
(403.281,354,o),
(394.775,286,cs),
(390.272,250,o),
(369.396,243,o),
(340.396,243,cs),
(198.396,243,ls),
(109.396,243,o),
(54.893,207,o),
(44.136,121,cs),
(32.628,29,o),
(108.999,-8,o),
(192.999,-8,cs)
);
},
{
closed = 1;
nodes = (
(140.755,62,o),
(111.382,83,o),
(116.761,126,cs),
(122.015,168,o),
(147.016,184,o),
(197.016,184,cs),
(320.016,184,ls),
(352.016,184,o),
(384.517,196,o),
(410.896,239,c),
(390.647,253,l),
(381.891,183,ls),
(370.883,95,o),
(299.755,62,o),
(215.755,62,cs)
);
}
);
width = 543;
},
{
layerId = "6FC0E451-EFB7-4D7C-9E66-A10B69A48177";
shapes = (
{
closed = 1;
nodes = (
(305,-7,o),
(387,41,o),
(419,142,c),
(404,145,l),
(397,97,o),
(390,48,o),
(394,0,c),
(418,0,l),
(415,38,o),
(419,76,o),
(424,114,cs),
(440,236,l),
(455,359,o),
(406,433,o),
(281,433,cs),
(170,433,o),
(122,398,o),
(84,289,c),
(106,283,l),
(146,375,o),
(178,406,o),
(278,406,cs),
(359,406,o),
(424,362,o),
(413,275,cs),
(409,238,o),
(384,223,o),
(361,223,cs),
(207,223,ls),
(122,223,o),
(67,192,o),
(56,108,cs),
(44,14,o),
(118,-7,o),
(204,-7,cs)
);
},
{
closed = 1;
nodes = (
(128,21,o),
(78,40,o),
(86,107,cs),
(94,172,o),
(128,195,o),
(194,195,cs),
(357,195,ls),
(382,195,o),
(406,200,o),
(438,238,c),
(410,246,l),
(401,172,ls),
(389,71,o),
(305,21,o),
(208,21,cs)
);
}
);
width = 543;
},
{
layerId = "FDA1CA61-DAB6-440F-86AE-A1833308297E";
shapes = (
{
closed = 1;
nodes = (
(292,-11,o),
(355,56,o),
(355,160,c),
(337,127,l),
(337,85,o),
(342,42,o),
(357,0,c),
(514,0,l),
(501,44,o),
(498,88,o),
(498,132,cs),
(498,274,l),
(498,414,o),
(404,477,o),
(272,477,cs),
(167,477,o),
(78,436,o),
(41,333,c),
(180,300,l),
(193,333,o),
(218,351,o),
(265,351,cs),
(293,351,o),
(337,343,o),
(337,307,cs),
(337,288,o),
(323,270,o),
(282,270,cs),
(174,270,ls),
(90,270,o),
(22,224,o),
(22,137,cs),
(22,41,o),
(95,-11,o),
(187,-11,cs)
);
},
{
closed = 1;
nodes = (
(202,119,o),
(187,136,o),
(187,155,cs),
(187,172,o),
(200,188,o),
(232,188,cs),
(276,188,ls),
(312,188,o),
(335,208,o),
(346,243,c),
(337,267,l),
(337,208,ls),
(337,153,o),
(300,119,o),
(246,119,cs)
);
}
);
width = 543;
},
{
layerId = "C0F60499-8BC0-4CEA-B9B1-C7852A3AB7A6";
shapes = (
{
closed = 1;
nodes = (
(294,-10,o),
(348,48,o),
(367,149,c),
(352,130,l),
(352,87,o),
(354,43,o),
(373,0,c),
(510,0,l),
(491,43,o),
(489,86,o),
(489,129,cs),
(489,267,l),
(489,404,o),
(403,469,o),
(272,469,cs),
(167,469,o),
(84,427,o),
(49,324,c),
(169,295,l),
(181,335,o),
(213,357,o),
(266,357,cs),
(301,357,o),
(351,346,o),
(351,302,cs),
(351,279,o),
(336,262,o),
(297,262,cs),
(180,262,ls),
(95,262,o),
(32,216,o),
(32,129,cs),
(32,34,o),
(107,-10,o),
(197,-10,cs)
);
},
{
closed = 1;
nodes = (
(192,104,o),
(173,119,o),
(173,144,cs),
(173,167,o),
(189,187,o),
(225,187,cs),
(289,187,ls),
(324,187,o),
(348,205,o),
(363,242,c),
(351,263,l),
(351,202,ls),
(351,139,o),
(304,104,o),
(244,104,cs)
);
}
);
width = 543;
},
{
layerId = "A6FAFB92-F521-4DD4-A95F-C39B9C67A836";
shapes = (
{
closed = 1;
nodes = (
(302,-8,o),
(407,31,o),
(404,119,c),
(397,140,l),
(397,93,o),
(398,47,o),
(412,0,c),
(480,0,l),
(466,40,o),
(465,80,o),
(465,120,cs),
(465,248,l),
(465,373,o),
(402,446,o),
(276,446,cs),
(183,446,o),
(92,399,o),
(75,300,c),
(142,280,l),
(151,340,o),
(197,376,o),
(272,376,cs),
(329,376,o),
(393,354,o),
(393,286,cs),
(393,250,o),
(373,244,o),
(344,244,cs),
(202,244,ls),
(120,244,o),
(63,203,o),
(63,121,cs),
(63,29,o),
(144,-8,o),
(228,-8,cs)
);
},
{
closed = 1;
nodes = (
(167,62,o),
(135,83,o),
(135,126,cs),
(135,166,o),
(161,184,o),
(208,184,cs),
(331,184,ls),
(363,184,o),
(394,196,o),
(415,239,c),
(393,253,l),
(393,183,ls),
(393,101,o),
(314,62,o),
(242,62,cs)
);
}
);
width = 543;
},
{
layerId = "EB11814A-7CD7-4F83-85D3-A70914269335";
shapes = (
{
closed = 1;
nodes = (
(329,-7,o),
(418,49,o),
(435,142,c),
(420,145,l),
(420,97,o),
(421,48,o),
(437,0,c),
(464,0,l),
(448,38,o),
(444,76,o),
(444,114,cs),
(444,236,l),
(444,359,o),
(386,433,o),
(261,433,cs),
(170,433,o),
(102,378,o),
(82,289,c),
(105,283,l),
(127,355,o),
(174,406,o),
(261,406,cs),
(342,406,o),
(413,362,o),
(413,275,cs),
(413,238,o),
(390,223,o),
(367,223,cs),
(213,223,ls),
(136,223,o),
(76,187,o),
(76,108,cs),
(76,14,o),
(153,-7,o),
(239,-7,cs)
);
},
{
closed = 1;
nodes = (
(159,21,o),
(107,40,o),
(107,107,cs),
(107,167,o),
(144,195,o),
(204,195,cs),
(367,195,ls),
(392,195,o),
(415,200,o),
(442,238,c),
(413,246,l),
(413,172,ls),
(413,77,o),
(327,21,o),
(239,21,cs)
);
}
);
width = 543;
}
);
leftKerningGroup = a2;
rightKerningGroup = a;
unicode = 97;
},
{
glyphname = ae;
layers = (
{
layerId = "F6B38B84-4AA5-4989-9E13-2A308B5F1025";
shapes = (
{
closed = 1;
nodes = (
(211.624,-11,o),
(273.876,15,o),
(320.881,63,cs),
(366.76,110,o),
(398.141,177,o),
(408.648,261,c),
(421.151,289,l),
(428.531,348,o),
(413.41,395,o),
(381.413,427,cs),
(348.416,459,o),
(297.667,477,o),
(234.667,477,cs),
(197.667,477,o),
(159.917,471,o),
(125.541,460,cs),
(91.165,449,o),
(61.413,435,o),
(39.037,416,c),
(62.027,304,l),
(108.654,333,o),
(149.781,350,o),
(201.781,350,cs),
(241.781,350,o),
(266.53,340,o),
(280.529,324,cs),
(294.402,307,o),
(296.525,284,o),
(293.148,257,cs),
(287.018,208,ls),
(283.516,180,o),
(268.889,159,o),
(250.013,144,cs),
(231.136,129,o),
(206.261,122,o),
(181.261,122,cs),
(164.261,122,o),
(149.761,126,o),
(142.637,133,cs),
(134.512,140,o),
(130.638,149,o),
(132.139,161,cs),
(134.016,176,o),
(142.016,184,o),
(153.642,189,cs),
(165.142,193,o),
(182.392,195,o),
(199.392,195,cs),
(782.392,195,l),
(785.645,221,ls),
(795.151,297,o),
(780.282,362,o),
(745.911,407,cs),
(710.415,451,o),
(653.667,477,o),
(580.667,477,cs),
(507.667,477,o),
(441.54,452,o),
(392.036,408,cs),
(341.532,364,o),
(307.777,302,o),
(298.645,229,cs),
(290.139,161,o),
(307.884,103,o),
(347.63,61,cs),
(386.377,19,o),
(447.124,-7,o),
(524.124,-7,cs),
(575.124,-7,o),
(619.25,2,o),
(660.377,19,cs),
(701.378,35,o),
(737.38,59,o),
(766.008,88,c),
(689.015,168,l),
(671.013,152,o),
(650.387,139,o),
(627.387,131,cs),
(604.261,122,o),
(579.635,117,o),
(554.635,117,cs),
(515.635,117,o),
(486.011,128,o),
(468.638,149,cs),
(450.265,170,o),
(442.018,200,o),
(447.021,240,cs),
(451.524,276,o),
(463.902,303,o),
(483.278,322,cs),
(501.655,341,o),
(526.781,350,o),
(557.781,350,cs),
(588.781,350,o),
(609.655,341,o),
(622.904,327,cs),
(636.153,313,o),
(640.776,294,o),
(638.274,274,cs),
(632.395,227,l),
(741.15,281,l),
(177.15,281,ls),
(113.15,281,o),
(64.649,269,o),
(30.772,246,cs),
(-4.23,222,o),
(-24.608,187,o),
(-30.237,142,cs),
(-36.367,93,o),
(-20.37,53,o),
(9.502,28,cs),
(39.375,3,o),
(84.624,-11,o),
(136.624,-11,cs)
);
}
);
width = 784;
},
{
layerId = "FF7033E7-E079-48F6-9418-777F925FA922";
shapes = (
{
closed = 1;
nodes = (
(211.749,-10,o),
(270.751,14,o),
(316.255,58,cs),
(361.759,102,o),
(392.015,168,o),
(402.522,252,c),
(411.275,282,l),
(419.155,345,o),
(404.91,391,o),
(373.787,422,cs),
(342.665,453,o),
(296.666,469,o),
(240.666,469,cs),
(200.666,469,o),
(160.666,461,o),
(126.914,447,cs),
(92.163,433,o),
(61.411,411,o),
(42.284,386,c),
(75.276,298,l),
(114.905,335,o),
(154.657,357,o),
(210.657,357,cs),
(247.657,357,o),
(273.531,348,o),
(288.279,330,cs),
(302.028,312,o),
(306.025,288,o),
(302.148,257,cs),
(296.143,209,ls),
(292.141,177,o),
(277.888,151,o),
(257.637,133,cs),
(237.385,115,o),
(211.134,105,o),
(184.134,105,cs),
(165.134,105,o),
(148.76,110,o),
(137.886,119,c),
(125.886,127,o),
(119.387,139,o),
(121.389,155,cs),
(123.265,170,o),
(131.516,180,o),
(144.517,188,cs),
(157.392,195,o),
(176.767,198,o),
(197.767,198,cs),
(762.767,198,l),
(766.52,228,ls),
(775.151,297,o),
(761.782,358,o),
(729.16,401,cs),
(696.539,444,o),
(642.792,470,o),
(573.792,470,cs),
(505.792,470,o),
(443.789,446,o),
(396.536,404,cs),
(349.282,362,o),
(315.527,300,o),
(306.395,227,cs),
(297.764,158,o),
(314.384,99,o),
(351.255,58,cs),
(388.127,17,o),
(444.124,-7,o),
(516.124,-7,cs),
(561.124,-7,o),
(604.125,1,o),
(642.127,17,cs),
(680.128,33,o),
(713.005,56,o),
(740.633,85,c),
(672.389,155,l),
(655.262,138,o),
(635.636,125,o),
(612.51,116,cs),
(589.384,107,o),
(564.759,102,o),
(539.759,102,cs),
(500.759,102,o),
(471.26,114,o),
(453.137,137,cs),
(435.014,160,o),
(427.017,192,o),
(432.396,235,cs),
(437.274,274,o),
(451.152,305,o),
(472.779,326,cs),
(494.406,347,o),
(521.907,359,o),
(553.907,359,cs),
(585.907,359,o),
(608.531,348,o),
(622.529,332,cs),
(636.403,315,o),
(642.651,293,o),
(639.649,269,cs),
(634.02,224,l),
(725.649,277,l),
(181.649,277,ls),
(120.649,277,o),
(73.023,264,o),
(40.021,240,cs),
(7.019,216,o),
(-12.234,182,o),
(-17.613,139,cs),
(-23.617,91,o),
(-8.37,53,o),
(20.628,29,cs),
(49.5,4,o),
(92.749,-10,o),
(143.749,-10,cs)
);
}
);
width = 784;
},
{
layerId = "C6F2FD9D-3429-4F2B-9903-30CCFB382AAD";
shapes = (
{
closed = 1;
nodes = (
(232.999,-8,o),
(282.126,9,o),
(321.754,46,cs),
(361.382,83,o),
(389.763,142,o),
(400.27,226,c),
(401.773,262,l),
(410.78,334,o),
(393.534,380,o),
(365.036,408,cs),
(335.539,436,o),
(294.789,446,o),
(254.789,446,cs),
(222.789,446,o),
(192.039,440,o),
(163.288,426,cs),
(134.536,412,o),
(108.035,392,o),
(83.657,365,c),
(113.527,308,l),
(145.906,351,o),
(184.033,376,o),
(237.033,376,cs),
(270.033,376,o),
(300.782,366,o),
(320.281,346,cs),
(339.779,326,o),
(349.026,296,o),
(344.023,256,cs),
(338.519,212,ls),
(332.64,165,o),
(315.886,127,o),
(292.509,100,cs),
(268.006,72,o),
(234.13,57,o),
(194.13,57,cs),
(167.13,57,o),
(144.006,64,o),
(129.632,77,cs),
(114.258,90,o),
(105.635,109,o),
(108.637,133,cs),
(111.013,152,o),
(119.265,170,o),
(136.016,184,cs),
(152.767,198,o),
(175.768,206,o),
(210.768,206,cs),
(721.768,206,l),
(726.897,247,ls),
(733.026,296,o),
(723.406,347,o),
(697.159,385,cs),
(669.912,423,o),
(629.04,448,o),
(570.04,448,cs),
(518.04,448,o),
(467.538,428,o),
(426.659,389,cs),
(385.781,350,o),
(355.651,293,o),
(346.519,220,cs),
(337.638,149,o),
(350.633,93,o),
(380.755,54,cs),
(410.751,14,o),
(454.999,-8,o),
(510.999,-8,cs),
(542.999,-8,o),
(576.75,-2,o),
(606.626,13,cs),
(636.377,27,o),
(664.004,48,o),
(684.507,76,c),
(642.886,119,l),
(627.509,100,o),
(607.633,85,o),
(586.257,74,cs),
(563.881,63,o),
(539.13,57,o),
(515.13,57,cs),
(476.13,57,o),
(447.131,73,o),
(428.759,102,cs),
(410.261,130,o),
(402.39,171,o),
(408.77,222,cs),
(414.899,271,o),
(434.902,311,o),
(462.405,339,cs),
(489.907,367,o),
(524.909,383,o),
(560.909,383,cs),
(595.909,383,o),
(622.158,369,o),
(639.155,345,cs),
(656.153,321,o),
(664.151,289,o),
(659.647,253,cs),
(654.894,215,l),
(698.399,267,l),
(212.399,267,ls),
(156.399,267,o),
(113.272,250,o),
(85.145,225,cs),
(57.018,200,o),
(40.64,165,o),
(36.261,130,cs),
(30.883,87,o),
(44.63,53,o),
(70.628,29,cs),
(95.625,5,o),
(134.999,-8,o),
(181.999,-8,cs)
);
}
);
width = 784;
},
{
layerId = "6FC0E451-EFB7-4D7C-9E66-A10B69A48177";
shapes = (
{
closed = 1;
nodes = (
(214,-8,o),
(259,5,o),
(296,38,cs),
(332,70,o),
(360,126,o),
(371,210,c),
(380,250,l),
(391,327,o),
(373,376,o),
(346,402,cs),
(319,428,o),
(282,435,o),
(253,435,cs),
(225,435,o),
(197,428,o),
(174,417,cs),
(150,405,o),
(130,392,o),
(113,377,c),
(131,355,l),
(163,387,o),
(208,408,o),
(249,408,cs),
(284,408,o),
(312,393,o),
(333,367,cs),
(353,341,o),
(362,301,o),
(357,256,cs),
(352,213,ls),
(345,160,o),
(328,112,o),
(298,77,cs),
(268,42,o),
(228,21,o),
(177,21,cs),
(150,21,o),
(125,31,o),
(109,47,cs),
(93,63,o),
(86,88,o),
(90,117,cs),
(93,137,o),
(100,161,o),
(123,180,cs),
(146,199,o),
(183,211,o),
(240,211,cs),
(686,211,l),
(692,259,ls),
(697,296,o),
(693,339,o),
(672,374,cs),
(651,409,o),
(615,435,o),
(556,435,cs),
(509,435,o),
(465,416,o),
(430,380,cs),
(394,344,o),
(368,289,o),
(359,216,cs),
(350,144,o),
(363,89,o),
(388,50,cs),
(413,11,o),
(454,-8,o),
(502,-8,cs),
(526,-8,o),
(557,-2,o),
(588,10,cs),
(619,22,o),
(650,43,o),
(675,71,c),
(654,91,l),
(639,71,o),
(613,53,o),
(588,41,cs),
(563,28,o),
(535,21,o),
(510,21,cs),
(467,21,o),
(431,41,o),
(409,75,cs),
(387,109,o),
(376,158,o),
(383,214,cs),
(390,269,o),
(412,318,o),
(442,352,cs),
(472,386,o),
(512,406,o),
(553,406,cs),
(598,406,o),
(627,386,o),
(644,357,cs),
(661,328,o),
(665,287,o),
(660,244,c),
(655,210,l),
(668,242,l),
(230,242,ls),
(179,242,o),
(140,227,o),
(109,204,cs),
(78,180,o),
(59,148,o),
(55,113,cs),
(51,78,o),
(61,48,o),
(82,27,cs),
(102,6,o),
(133,-8,o),
(170,-8,cs)
);
}
);
width = 784;
},
{
layerId = "FDA1CA61-DAB6-440F-86AE-A1833308297E";
shapes = (
{
closed = 1;
nodes = (
(247,-11,o),
(306,15,o),
(347,63,cs),
(387,110,o),
(410,177,o),
(410,261,c),
(419,289,l),
(419,348,o),
(398,395,o),
(362,427,cs),
(325,459,o),
(272,477,o),
(209,477,cs),
(172,477,o),
(135,471,o),
(102,460,cs),
(69,449,o),
(41,435,o),
(21,416,c),
(58,304,l),
(101,333,o),
(140,350,o),
(192,350,cs),
(232,350,o),
(258,340,o),
(274,324,cs),
(290,307,o),
(295,284,o),
(295,257,cs),
(295,208,ls),
(295,180,o),
(283,159,o),
(266,144,cs),
(249,129,o),
(225,122,o),
(200,122,cs),
(183,122,o),
(168,126,o),
(160,133,cs),
(151,140,o),
(146,149,o),
(146,161,cs),
(146,176,o),
(153,184,o),
(164,189,cs),
(175,193,o),
(192,195,o),
(209,195,cs),
(792,195,l),
(792,221,ls),
(792,297,o),
(769,362,o),
(729,407,cs),
(688,451,o),
(628,477,o),
(555,477,cs),
(482,477,o),
(419,452,o),
(375,408,cs),
(330,364,o),
(304,302,o),
(304,229,cs),
(304,161,o),
(329,103,o),
(374,61,cs),
(418,19,o),
(482,-7,o),
(559,-7,cs),
(610,-7,o),
(653,2,o),
(692,19,cs),
(731,35,o),
(764,59,o),
(789,88,c),
(702,168,l),
(686,152,o),
(667,139,o),
(645,131,cs),
(623,122,o),
(599,117,o),
(574,117,cs),
(535,117,o),
(504,128,o),
(484,149,cs),
(463,170,o),
(451,200,o),
(451,240,cs),
(451,276,o),
(460,303,o),
(477,322,cs),
(493,341,o),
(517,350,o),
(548,350,cs),
(579,350,o),
(601,341,o),
(616,327,cs),
(631,313,o),
(638,294,o),
(638,274,cs),
(638,227,l),
(740,281,l),
(176,281,ls),
(112,281,o),
(65,269,o),
(34,246,cs),
(2,222,o),
(-14,187,o),
(-14,142,cs),
(-14,93,o),
(7,53,o),
(40,28,cs),
(73,3,o),
(120,-11,o),
(172,-11,cs)
);
}
);
width = 784;
},
{
layerId = "C0F60499-8BC0-4CEA-B9B1-C7852A3AB7A6";
shapes = (
{
closed = 1;
nodes = (
(247,-10,o),
(303,14,o),
(343,58,cs),
(383,102,o),
(405,168,o),
(405,252,c),
(410,282,l),
(410,345,o),
(390,391,o),
(355,422,cs),
(320,453,o),
(272,469,o),
(216,469,cs),
(176,469,o),
(137,461,o),
(105,447,cs),
(72,433,o),
(44,411,o),
(28,386,c),
(72,298,l),
(107,335,o),
(144,357,o),
(200,357,cs),
(237,357,o),
(264,348,o),
(281,330,cs),
(297,312,o),
(304,288,o),
(304,257,cs),
(304,209,ls),
(304,177,o),
(293,151,o),
(275,133,cs),
(257,115,o),
(232,105,o),
(205,105,cs),
(186,105,o),
(169,110,o),
(157,119,c),
(144,127,o),
(136,139,o),
(136,155,cs),
(136,170,o),
(143,180,o),
(155,188,cs),
(167,195,o),
(186,198,o),
(207,198,cs),
(772,198,l),
(772,228,ls),
(772,297,o),
(751,358,o),
(713,401,cs),
(675,444,o),
(618,470,o),
(549,470,cs),
(481,470,o),
(422,446,o),
(380,404,cs),
(338,362,o),
(312,300,o),
(312,227,cs),
(312,158,o),
(336,99,o),
(378,58,cs),
(420,17,o),
(479,-7,o),
(551,-7,cs),
(596,-7,o),
(638,1,o),
(674,17,cs),
(710,33,o),
(740,56,o),
(764,85,c),
(687,155,l),
(672,138,o),
(654,125,o),
(632,116,cs),
(610,107,o),
(586,102,o),
(561,102,cs),
(522,102,o),
(491,114,o),
(470,137,cs),
(449,160,o),
(437,192,o),
(437,235,cs),
(437,274,o),
(447,305,o),
(466,326,cs),
(485,347,o),
(511,359,o),
(543,359,cs),
(575,359,o),
(599,348,o),
(615,332,cs),
(631,315,o),
(640,293,o),
(640,269,cs),
(640,224,l),
(725,277,l),
(181,277,ls),
(120,277,o),
(74,264,o),
(44,240,cs),
(14,216,o),
(-1,182,o),
(-1,139,cs),
(-1,91,o),
(19,53,o),
(51,29,cs),
(83,4,o),
(128,-10,o),
(179,-10,cs)
);
}
);
width = 784;
},
{
layerId = "A6FAFB92-F521-4DD4-A95F-C39B9C67A836";
shapes = (
{
closed = 1;
nodes = (
(268,-8,o),
(315,9,o),
(350,46,cs),
(385,83,o),
(406,142,o),
(406,226,c),
(403,262,l),
(403,334,o),
(380,380,o),
(348,408,cs),
(315,436,o),
(273,446,o),
(233,446,cs),
(201,446,o),
(171,440,o),
(144,426,cs),
(117,412,o),
(93,392,o),
(72,365,c),
(109,308,l),
(136,351,o),
(171,376,o),
(224,376,cs),
(257,376,o),
(289,366,o),
(311,346,cs),
(333,326,o),
(346,296,o),
(346,256,cs),
(346,212,ls),
(346,165,o),
(334,127,o),
(314,100,cs),
(293,72,o),
(261,57,o),
(221,57,cs),
(194,57,o),
(170,64,o),
(154,77,cs),
(137,90,o),
(126,109,o),
(126,133,cs),
(126,152,o),
(132,170,o),
(147,184,cs),
(162,198,o),
(184,206,o),
(219,206,cs),
(730,206,l),
(730,247,ls),
(730,296,o),
(714,347,o),
(683,385,cs),
(651,423,o),
(607,448,o),
(548,448,cs),
(496,448,o),
(448,428,o),
(412,389,cs),
(376,350,o),
(353,293,o),
(353,220,cs),
(353,149,o),
(373,93,o),
(408,54,cs),
(443,14,o),
(490,-8,o),
(546,-8,cs),
(578,-8,o),
(611,-2,o),
(639,13,cs),
(667,27,o),
(692,48,o),
(709,76,c),
(662,119,l),
(649,100,o),
(631,85,o),
(611,74,cs),
(590,63,o),
(566,57,o),
(542,57,cs),
(503,57,o),
(472,73,o),
(450,102,cs),
(428,130,o),
(415,171,o),
(415,222,cs),
(415,271,o),
(430,311,o),
(454,339,cs),
(478,367,o),
(511,383,o),
(547,383,cs),
(582,383,o),
(610,369,o),
(630,345,cs),
(650,321,o),
(662,289,o),
(662,253,cs),
(662,215,l),
(699,267,l),
(213,267,ls),
(157,267,o),
(116,250,o),
(91,225,cs),
(66,200,o),
(54,165,o),
(54,130,cs),
(54,87,o),
(72,53,o),
(101,29,cs),
(129,5,o),
(170,-8,o),
(217,-8,cs)
);
}
);
width = 784;
},
{
layerId = "EB11814A-7CD7-4F83-85D3-A70914269335";
shapes = (
{
closed = 1;
nodes = (
(249,-8,o),
(292,5,o),
(325,38,cs),
(357,70,o),
(379,126,o),
(379,210,c),
(383,250,l),
(383,327,o),
(360,376,o),
(330,402,cs),
(300,428,o),
(262,435,o),
(233,435,cs),
(205,435,o),
(178,428,o),
(156,417,cs),
(134,405,o),
(115,392,o),
(100,377,c),
(121,355,l),
(149,387,o),
(191,408,o),
(232,408,cs),
(267,408,o),
(297,393,o),
(321,367,cs),
(345,341,o),
(359,301,o),
(359,256,cs),
(359,213,ls),
(359,160,o),
(347,112,o),
(322,77,cs),
(297,42,o),
(259,21,o),
(208,21,cs),
(181,21,o),
(156,31,o),
(138,47,cs),
(120,63,o),
(109,88,o),
(109,117,cs),
(109,137,o),
(114,161,o),
(135,180,cs),
(155,199,o),
(191,211,o),
(248,211,cs),
(694,211,l),
(694,259,ls),
(694,296,o),
(684,339,o),
(659,374,cs),
(634,409,o),
(595,435,o),
(536,435,cs),
(489,435,o),
(447,416,o),
(416,380,cs),
(385,344,o),
(366,289,o),
(366,216,cs),
(366,144,o),
(386,89,o),
(416,50,cs),
(446,11,o),
(489,-8,o),
(537,-8,cs),
(561,-8,o),
(592,-2,o),
(621,10,cs),
(650,22,o),
(679,43,o),
(700,71,c),
(677,91,l),
(664,71,o),
(641,53,o),
(617,41,cs),
(593,28,o),
(566,21,o),
(541,21,cs),
(498,21,o),
(460,41,o),
(433,75,cs),
(406,109,o),
(390,158,o),
(390,214,cs),
(390,269,o),
(406,318,o),
(432,352,cs),
(458,386,o),
(495,406,o),
(536,406,cs),
(581,406,o),
(613,386,o),
(634,357,cs),
(654,328,o),
(663,287,o),
(663,244,cs),
(663,210,l),
(672,242,l),
(234,242,ls),
(183,242,o),
(145,227,o),
(118,204,cs),
(90,180,o),
(75,148,o),
(75,113,cs),
(75,78,o),
(89,48,o),
(113,27,cs),
(136,6,o),
(168,-8,o),
(205,-8,cs)
);
}
);
width = 784;
}
);
leftKerningGroup = a2;
rightKerningGroup = b;
unicode = 230;
},
{
glyphname = b;
layers = (
{
layerId = "F6B38B84-4AA5-4989-9E13-2A308B5F1025";
shapes = (
{
closed = 1;
nodes = (
(164,0,l),
(178,111,l),
(189,126,l),
(215,339,l),
(216,346,l),
(261,700,l),
(96,700,l),
(51,346,l),
(50,339,l),
(8,0,l)
);
},
{
closed = 1;
nodes = (
(463,-7,o),
(537,100,o),
(555,236,c),
(569,357,o),
(519,477,o),
(381,477,cs),
(286,477,o),
(220,432,o),
(199,339,c),
(187,240,l),
(203,240,l),
(210,296,o),
(243,336,o),
(301,336,cs),
(361,336,o),
(386,290,o),
(378,235,cs),
(369,175,o),
(336,131,o),
(274,131,cs),
(253,131,o),
(232,139,o),
(219,156,cs),
(206,172,o),
(198,198,o),
(202,234,c),
(181,234,l),
(168,129,l),
(171,92,o),
(184,57,o),
(210,33,cs),
(236,8,o),
(272,-7,o),
(320,-7,cs)
);
}
);
width = 582;
},
{
layerId = "FF7033E7-E079-48F6-9418-777F925FA922";
shapes = (
{
closed = 1;
nodes = (
(154,0,l),
(168,111,l),
(178,126,l),
(203,331,l),
(204,338,l),
(250,700,l),
(109,700,l),
(63,338,l),
(62,331,l),
(21,0,l)
);
},
{
closed = 1;
nodes = (
(440,-7,o),
(530,99,o),
(547,232,cs),
(562,351,o),
(493,470,o),
(363,470,cs),
(278,470,o),
(185,428,o),
(168,341,c),
(155,237,l),
(192,237,l),
(200,305,o),
(239,348,o),
(308,348,cs),
(378,348,o),
(405,295,o),
(397,231,cs),
(388,161,o),
(350,112,o),
(277,112,cs),
(249,112,o),
(225,123,o),
(210,143,cs),
(194,163,o),
(186,193,o),
(191,230,c),
(149,230,l),
(136,124,l),
(139,88,o),
(158,55,o),
(188,32,cs),
(218,8,o),
(258,-7,o),
(303,-7,cs)
);
}
);
width = 582;
},
{
layerId = "C6F2FD9D-3429-4F2B-9903-30CCFB382AAD";
shapes = (
{
closed = 1;
nodes = (
(121,0,l),
(135,111,l),
(141,126,l),
(164,309,l),
(165,316,l),
(213,700,l),
(141,700,l),
(93,316,l),
(92,309,l),
(53,0,l)
);
},
{
closed = 1;
nodes = (
(420,-8,o),
(507,84,o),
(522,220,cs),
(536,346,o),
(472,448,o),
(337,448,cs),
(263,448,o),
(180,418,o),
(159,345,c),
(144,227,l),
(153,227,l),
(165,322,o),
(223,381,o),
(320,381,cs),
(418,381,o),
(456,311,o),
(447,221,c),
(433,124,o),
(382,59,o),
(281,59,cs),
(233,59,o),
(198,79,o),
(177,109,cs),
(156,139,o),
(148,178,o),
(152,217,c),
(138,217,l),
(125,111,l),
(128,78,o),
(144,48,o),
(171,27,cs),
(198,6,o),
(236,-8,o),
(280,-8,cs)
);
}
);
width = 582;
},
{
layerId = "6FC0E451-EFB7-4D7C-9E66-A10B69A48177";
shapes = (
{
closed = 1;
nodes = (
(88,0,l),
(104,131,l),
(105,126,l),
(126,296,l),
(127,303,l),
(177,700,l),
(146,700,l),
(96,303,l),
(95,296,l),
(58,0,l)
);
},
{
closed = 1;
nodes = (
(396,-8,o),
(478,83,o),
(493,213,cs),
(507,333,o),
(442,435,o),
(314,435,cs),
(206,435,o),
(144,371,o),
(109,269,c),
(117,222,l),
(117,222,l),
(129,334,o),
(200,406,o),
(314,406,cs),
(427,406,o),
(476,321,o),
(462,216,cs),
(447,102,o),
(387,20,o),
(269,20,cs),
(210,20,o),
(168,48,o),
(143,84,cs),
(118,120,o),
(110,166,o),
(115,209,c),
(110,209,l),
(96,163,l),
(100,118,o),
(115,75,o),
(143,43,cs),
(171,11,o),
(211,-8,o),
(263,-8,cs)
);
}
);
width = 582;
},
{
layerId = "FDA1CA61-DAB6-440F-86AE-A1833308297E";
shapes = (
{
closed = 1;
nodes = (
(198,0,l),
(198,111,l),
(207,126,l),
(207,339,l),
(207,346,l),
(207,700,l),
(42,700,l),
(42,346,l),
(42,339,l),
(42,0,l)
);
},
{
closed = 1;
nodes = (
(491,-7,o),
(559,113,o),
(559,236,cs),
(559,360,o),
(491,477,o),
(355,477,cs),
(271,477,o),
(198,427,o),
(191,339,c),
(191,240,l),
(207,240,l),
(207,293,o),
(237,336,o),
(293,336,cs),
(352,336,o),
(383,290,o),
(383,235,cs),
(383,180,o),
(351,131,o),
(292,131,cs),
(271,131,o),
(249,139,o),
(234,156,c),
(218,172,o),
(207,198,o),
(207,234,c),
(186,234,l),
(186,129,l),
(193,92,o),
(211,57,o),
(240,33,c),
(268,8,o),
(307,-7,o),
(355,-7,cs)
);
}
);
width = 582;
},
{
layerId = "C0F60499-8BC0-4CEA-B9B1-C7852A3AB7A6";
shapes = (
{
closed = 1;
nodes = (
(188,0,l),
(188,111,l),
(196,126,l),
(196,331,l),
(196,338,l),
(196,700,l),
(55,700,l),
(55,338,l),
(55,331,l),
(55,0,l)
);
},
{
closed = 1;
nodes = (
(465,-7,o),
(552,112,o),
(552,232,cs),
(552,354,o),
(467,470,o),
(338,470,cs),
(264,470,o),
(166,424,o),
(159,341,c),
(159,237,l),
(196,237,l),
(196,298,o),
(234,348,o),
(298,348,cs),
(367,348,o),
(402,296,o),
(402,231,cs),
(402,167,o),
(365,112,o),
(297,112,cs),
(269,112,o),
(244,123,o),
(226,143,cs),
(208,163,o),
(196,193,o),
(196,230,c),
(154,230,l),
(154,124,l),
(162,88,o),
(185,55,o),
(218,32,c),
(250,8,o),
(293,-7,o),
(338,-7,cs)
);
}
);
width = 582;
},
{
layerId = "A6FAFB92-F521-4DD4-A95F-C39B9C67A836";
shapes = (
{
closed = 1;
nodes = (
(155,0,l),
(155,111,l),
(159,126,l),
(159,309,l),
(159,316,l),
(159,700,l),
(87,700,l),
(87,316,l),
(87,309,l),
(87,0,l)
);
},
{
closed = 1;
nodes = (
(444,-8,o),
(528,95,o),
(528,220,cs),
(528,347,o),
(447,448,o),
(315,448,cs),
(253,448,o),
(162,416,o),
(150,345,c),
(150,227,l),
(159,227,l),
(159,314,o),
(217,381,o),
(306,381,cs),
(401,381,o),
(453,312,o),
(453,221,cs),
(453,133,o),
(402,59,o),
(308,59,cs),
(260,59,o),
(222,79,o),
(198,109,cs),
(173,139,o),
(159,178,o),
(159,217,c),
(145,217,l),
(145,111,l),
(152,78,o),
(173,48,o),
(202,27,cs),
(231,6,o),
(271,-8,o),
(315,-8,cs)
);
}
);
width = 582;
},
{
layerId = "EB11814A-7CD7-4F83-85D3-A70914269335";
shapes = (
{
closed = 1;
nodes = (
(122,0,l),
(122,131,l),
(123,126,l),
(123,296,l),
(123,303,l),
(123,700,l),
(92,700,l),
(92,303,l),
(92,296,l),
(92,0,l)
);
},
{
closed = 1;
nodes = (
(421,-8,o),
(500,96,o),
(500,213,cs),
(500,334,o),
(420,435,o),
(294,435,cs),
(195,435,o),
(128,361,o),
(109,269,c),
(123,222,l),
(123,222,l),
(123,325,o),
(191,406,o),
(297,406,cs),
(411,406,o),
(469,324,o),
(469,216,cs),
(469,113,o),
(412,20,o),
(300,20,cs),
(241,20,o),
(197,48,o),
(167,84,cs),
(137,120,o),
(123,166,o),
(123,209,c),
(118,209,l),
(110,163,l),
(119,118,o),
(140,75,o),
(172,43,cs),
(204,11,o),
(246,-8,o),
(298,-8,cs)
);
}
);
width = 582;
}
);
leftKerningGroup = b2;
rightKerningGroup = b;
unicode = 98;
},
{
glyphname = c;
layers = (
{
layerId = "F6B38B84-4AA5-4989-9E13-2A308B5F1025";
shapes = (
{
closed = 1;
nodes = (
(309.124,-7,o),
(421.378,35,o),
(459.007,80,q),
(376.765,174,l),
(353.264,154,o),
(310.261,130,o),
(282.261,130,qs),
(259.261,130,o),
(226.263,146,o),
(206.89,175,o),
(199.769,214,o),
(202.521,236,qs),
(205.023,256,o),
(219.776,294,o),
(245.404,323,o),
(281.53,340,o),
(305.53,340,qs),
(334.53,340,o),
(375.403,315,o),
(392.151,297,q),
(485.536,404,l),
(475.412,419,o),
(440.789,446,o),
(394.166,465,o),
(337.667,477,o),
(305.667,477,qs),
(251.667,477,o),
(156.539,444,o),
(82.659,381,o),
(33.276,290,o),
(26.02,232,qs),
(19.016,176,o),
(43.883,87,o),
(101.252,26,o),
(189.124,-7,o),
(245.124,-7,qs)
);
}
);
width = 499;
},
{
layerId = "FF7033E7-E079-48F6-9418-777F925FA922";
shapes = (
{
closed = 1;
nodes = (
(309.124,-7,o),
(416.378,35,o),
(452.632,77,q),
(380.764,158,l),
(358.137,137,o),
(307.885,111,o),
(276.885,111,qs),
(250.885,111,o),
(212.136,129,o),
(187.264,162,o),
(177.893,207,o),
(181.146,233,qs),
(184.273,258,o),
(203.652,301,o),
(235.654,333,o),
(277.906,351,o),
(303.906,351,qs),
(335.906,351,o),
(380.654,325,o),
(398.152,305,q),
(480.91,399,l),
(469.787,414,o),
(435.039,440,o),
(390.416,459,o),
(335.792,470,o),
(305.792,470,qs),
(253.792,470,o),
(160.664,437,o),
(87.033,376,o),
(38.775,286,o),
(31.645,229,qs),
(24.89,175,o),
(49.008,88,o),
(104.252,26,o),
(191.124,-7,o),
(246.124,-7,qs)
);
}
);
width = 499;
},
{
layerId = "C6F2FD9D-3429-4F2B-9903-30CCFB382AAD";
shapes = (
{
closed = 1;
nodes = (
(306.999,-8,o),
(400.378,35,o),
(432.506,68,q),
(393.135,113,l),
(370.008,88,o),
(302.13,57,o),
(261.13,57,qs),
(226.13,57,o),
(170.132,81,o),
(131.636,125,o),
(115.266,186,o),
(119.895,223,qs),
(124.648,261,o),
(157.028,320,o),
(205.157,361,o),
(264.909,383,o),
(296.909,383,qs),
(334.909,383,o),
(397.156,353,o),
(415.904,327,q),
(464.909,383,l),
(451.785,398,o),
(416.912,423,o),
(375.914,439,o),
(329.04,448,o),
(304.04,448,qs),
(256.04,448,o),
(169.162,417,o),
(100.907,359,o),
(54.399,275,o),
(47.77,222,qs),
(41.64,173,o),
(63.133,89,o),
(114.377,27,o),
(194.999,-8,o),
(246.999,-8,qs)
);
}
);
width = 499;
},
{
layerId = "6FC0E451-EFB7-4D7C-9E66-A10B69A48177";
shapes = (
{
closed = 1;
nodes = (
(300,-8,o),
(387,34,o),
(417,61,q),
(400,81,l),
(375,55,o),
(294,21,o),
(248,21,qs),
(207,21,o),
(139,49,o),
(96,101,o),
(74,174,o),
(79,218,qs),
(85,264,o),
(126,335,o),
(183,382,o),
(255,406,o),
(292,406,qs),
(334,406,o),
(407,377,o),
(431,348,q),
(451,371,l),
(437,387,o),
(400,411,o),
(361,427,o),
(319,435,o),
(297,435,qs),
(253,435,o),
(169,405,o),
(101,348,o),
(57,268,o),
(50,218,q),
(45,173,o),
(64,90,o),
(115,28,o),
(192,-8,o),
(243,-8,qs)
);
}
);
width = 499;
},
{
layerId = "FDA1CA61-DAB6-440F-86AE-A1833308297E";
shapes = (
{
closed = 1;
nodes = (
(344,-7,o),
(451,35,o),
(483,80,q),
(389,174,l),
(368,154,o),
(328,130,o),
(300,130,qs),
(277,130,o),
(242,146,o),
(219,175,o),
(207,214,o),
(207,236,qs),
(207,256,o),
(217,294,o),
(239,323,o),
(273,340,o),
(297,340,qs),
(326,340,o),
(370,315,o),
(389,297,q),
(469,404,l),
(457,419,o),
(419,446,o),
(370,465,o),
(312,477,o),
(280,477,qs),
(226,477,o),
(135,444,o),
(69,381,o),
(31,290,o),
(31,232,qs),
(31,176,o),
(67,87,o),
(132,26,o),
(224,-7,o),
(280,-7,qs)
);
}
);
width = 499;
},
{
layerId = "C0F60499-8BC0-4CEA-B9B1-C7852A3AB7A6";
shapes = (
{
closed = 1;
nodes = (
(344,-7,o),
(446,35,o),
(477,77,q),
(395,158,l),
(375,137,o),
(328,111,o),
(297,111,qs),
(271,111,o),
(230,129,o),
(201,162,o),
(186,207,o),
(186,233,qs),
(186,258,o),
(200,301,o),
(228,333,o),
(268,351,o),
(294,351,qs),
(326,351,o),
(374,325,o),
(394,305,q),
(465,399,l),
(452,414,o),
(414,440,o),
(367,459,o),
(311,470,o),
(281,470,qs),
(229,470,o),
(140,437,o),
(74,376,o),
(37,286,o),
(37,229,qs),
(37,175,o),
(72,88,o),
(135,26,o),
(226,-7,o),
(281,-7,qs)
);
}
);
width = 499;
},
{
layerId = "A6FAFB92-F521-4DD4-A95F-C39B9C67A836";
shapes = (
{
closed = 1;
nodes = (
(342,-8,o),
(430,35,o),
(458,68,q),
(413,113,l),
(393,88,o),
(329,57,o),
(288,57,qs),
(253,57,o),
(194,81,o),
(150,125,o),
(126,186,o),
(126,223,qs),
(126,261,o),
(151,320,o),
(194,361,o),
(251,383,o),
(283,383,qs),
(321,383,o),
(387,353,o),
(409,327,q),
(451,383,l),
(436,398,o),
(398,423,o),
(355,439,o),
(307,448,o),
(282,448,qs),
(234,448,o),
(151,417,o),
(90,359,o),
(54,275,o),
(54,222,qs),
(54,173,o),
(86,89,o),
(145,27,o),
(230,-8,o),
(282,-8,qs)
);
}
);
width = 499;
},
{
layerId = "EB11814A-7CD7-4F83-85D3-A70914269335";
shapes = (
{
closed = 1;
nodes = (
(335,-8,o),
(417,34,o),
(443,61,q),
(424,81,l),
(402,55,o),
(325,21,o),
(279,21,qs),
(238,21,o),
(167,49,o),
(117,101,o),
(86,174,o),
(86,218,qs),
(86,264,o),
(118,335,o),
(169,382,o),
(238,406,o),
(275,406,qs),
(317,406,o),
(394,377,o),
(421,348,q),
(439,371,l),
(423,387,o),
(383,411,o),
(342,427,o),
(299,435,o),
(277,435,qs),
(233,435,o),
(152,405,o),
(91,348,o),
(57,268,o),
(57,218,qs),
(57,173,o),
(87,90,o),
(145,28,o),
(227,-8,o),
(278,-8,qs)
);
}
);
width = 499;
}
);
leftKerningGroup = a2;
rightKerningGroup = c;
unicode = 99;
},
{
glyphname = d;
layers = (
{
layerId = "F6B38B84-4AA5-4989-9E13-2A308B5F1025";
shapes = (
{
closed = 1;
nodes = (
(349,0,l),
(505,0,l),
(547.405,339,l),
(548.281,346,l),
(592.562,700,l),
(427.562,700,l),
(383.281,346,l),
(382.405,339,l),
(355.761,126,l),
(362.885,111,l)
);
},
{
closed = 1;
nodes = (
(287.124,-7,o),
(347.503,36,o),
(377.136,129,c),
(390.271,234,l),
(369.271,234,l),
(362.141,177,o),
(333.387,131,o),
(271.387,131,cs),
(247.387,131,o),
(225.637,141,o),
(211.764,158,cs),
(196.89,175,o),
(189.268,202,o),
(193.396,235,cs),
(200.651,293,o),
(235.03,336,o),
(296.03,336,cs),
(319.03,336,o),
(339.029,328,o),
(353.028,312,cs),
(367.026,296,o),
(374.024,272,o),
(370.021,240,c),
(386.021,240,l),
(398.405,339,l),
(402.033,376,o),
(388.411,411,o),
(363.539,436,cs),
(338.666,461,o),
(299.667,477,o),
(251.667,477,cs),
(109.667,477,o),
(34.283,370,o),
(17.521,236,cs),
(8.89,167,o),
(21.134,105,o),
(51.755,62,cs),
(82.377,19,o),
(130.124,-7,o),
(191.124,-7,cs)
);
}
);
width = 582;
},
{
layerId = "FF7033E7-E079-48F6-9418-777F925FA922";
shapes = (
{
closed = 1;
nodes = (
(359,0,l),
(492,0,l),
(533.404,331,l),
(534.28,338,l),
(579.562,700,l),
(438.562,700,l),
(393.28,338,l),
(392.404,331,l),
(366.761,126,l),
(372.885,111,l)
);
},
{
closed = 1;
nodes = (
(288.124,-7,o),
(380.254,42,o),
(408.511,124,c),
(421.77,230,l),
(379.77,230,l),
(371.389,163,o),
(335.01,112,o),
(264.01,112,cs),
(235.01,112,o),
(210.386,123,o),
(194.013,144,c),
(176.514,164,o),
(169.267,194,o),
(173.895,231,cs),
(182.652,301,o),
(219.531,348,o),
(292.531,348,cs),
(321.531,348,o),
(347.155,337,o),
(362.778,318,cs),
(378.276,298,o),
(384.774,270,o),
(380.646,237,c),
(417.646,237,l),
(430.655,341,l),
(432.033,376,o),
(414.911,407,o),
(385.913,431,cs),
(356.915,455,o),
(315.792,470,o),
(267.792,470,cs),
(131.792,470,o),
(40.532,364,o),
(24.02,232,cs),
(15.139,161,o),
(33.759,102,o),
(68.505,60,cs),
(103.252,18,o),
(153.124,-7,o),
(208.124,-7,cs)
);
}
);
width = 582;
},
{
layerId = "C6F2FD9D-3429-4F2B-9903-30CCFB382AAD";
shapes = (
{
closed = 1;
nodes = (
(393,0,l),
(461,0,l),
(499.652,309,l),
(500.528,316,l),
(548.562,700,l),
(476.562,700,l),
(428.528,316,l),
(427.652,309,l),
(404.761,126,l),
(406.885,111,l)
);
},
{
closed = 1;
nodes = (
(313.999,-8,o),
(389.628,29,o),
(416.885,111,c),
(430.144,217,l),
(416.144,217,l),
(403.511,124,o),
(343.38,59,o),
(247.38,59,cs),
(204.38,59,o),
(169.382,75,o),
(148.009,104,cs),
(126.512,132,o),
(116.64,173,o),
(122.645,221,cs),
(134.903,319,o),
(188.659,381,o),
(289.659,381,cs),
(337.659,381,o),
(372.282,362,o),
(393.78,334,cs),
(414.277,306,o),
(422.399,267,o),
(417.395,227,c),
(426.395,227,l),
(441.155,345,l),
(440.158,369,o),
(425.41,395,o),
(399.912,415,cs),
(374.413,435,o),
(337.04,448,o),
(289.04,448,cs),
(148.04,448,o),
(64.782,358,o),
(47.519,220,cs),
(38.638,149,o),
(56.508,92,o),
(90.63,53,cs),
(124.626,13,o),
(175.999,-8,o),
(231.999,-8,cs)
);
}
);
width = 582;
},
{
layerId = "6FC0E451-EFB7-4D7C-9E66-A10B69A48177";
shapes = (
{
closed = 1;
nodes = (
(426,0,l),
(456,0,l),
(493,296,l),
(494,303,l),
(544,700,l),
(513,700,l),
(463,303,l),
(462,296,l),
(441,126,l),
(440,111,l)
);
},
{
closed = 1;
nodes = (
(359,-8,o),
(423,58,o),
(458,163,c),
(456,209,l),
(451,209,l),
(438,100,o),
(362,20,o),
(251,20,cs),
(199,20,o),
(159,40,o),
(135,75,cs),
(110,110,o),
(99,157,o),
(106,216,cs),
(120,334,o),
(180,406,o),
(302,406,cs),
(361,406,o),
(402,383,o),
(426,348,c),
(449,312,o),
(458,267,o),
(453,222,c),
(453,222,l),
(473,269,l),
(469,313,o),
(454,353,o),
(427,384,cs),
(400,415,o),
(361,435,o),
(308,435,cs),
(174,435,o),
(91,344,o),
(75,213,cs),
(66,141,o),
(85,87,o),
(119,49,cs),
(153,11,o),
(198,-8,o),
(249,-8,cs)
);
}
);
width = 582;
},
{
layerId = "FDA1CA61-DAB6-440F-86AE-A1833308297E";
shapes = (
{
closed = 1;
nodes = (
(383,0,l),
(539,0,l),
(539,339,l),
(539,346,l),
(539,700,l),
(374,700,l),
(374,346,l),
(374,339,l),
(374,126,l),
(383,111,l)
);
},
{
closed = 1;
nodes = (
(313,-7,o),
(379,43,o),
(395,129,c),
(395,234,l),
(374,234,l),
(374,181,o),
(348,131,o),
(289,131,cs),
(265,131,o),
(242,141,o),
(226,158,cs),
(209,175,o),
(198,202,o),
(198,235,cs),
(198,289,o),
(230,336,o),
(288,336,cs),
(311,336,o),
(332,328,o),
(348,312,cs),
(364,296,o),
(374,272,o),
(374,240,c),
(390,240,l),
(390,339,l),
(389,376,o),
(371,411,o),
(343,436,cs),
(315,461,o),
(274,477,o),
(226,477,cs),
(90,477,o),
(22,360,o),
(22,236,cs),
(22,167,o),
(42,105,o),
(78,62,cs),
(114,19,o),
(165,-7,o),
(226,-7,cs)
);
}
);
width = 582;
},
{
layerId = "C0F60499-8BC0-4CEA-B9B1-C7852A3AB7A6";
shapes = (
{
closed = 1;
nodes = (
(393,0,l),
(526,0,l),
(526,331,l),
(526,338,l),
(526,700,l),
(385,700,l),
(385,338,l),
(385,331,l),
(385,126,l),
(393,111,l)
);
},
{
closed = 1;
nodes = (
(323,-7,o),
(409,42,o),
(427,124,c),
(427,230,l),
(385,230,l),
(385,168,o),
(352,112,o),
(284,112,cs),
(255,112,o),
(229,123,o),
(210,144,c),
(190,164,o),
(179,194,o),
(179,231,cs),
(179,296,o),
(214,348,o),
(283,348,cs),
(312,348,o),
(339,337,o),
(357,318,cs),
(375,298,o),
(385,270,o),
(385,237,c),
(422,237,l),
(422,341,l),
(419,376,o),
(398,407,o),
(366,431,cs),
(334,455,o),
(291,470,o),
(243,470,cs),
(115,470,o),
(29,353,o),
(29,232,cs),
(29,161,o),
(55,102,o),
(95,60,cs),
(135,18,o),
(188,-7,o),
(243,-7,cs)
);
}
);
width = 582;
},
{
layerId = "A6FAFB92-F521-4DD4-A95F-C39B9C67A836";
shapes = (
{
closed = 1;
nodes = (
(427,0,l),
(495,0,l),
(495,309,l),
(495,316,l),
(495,700,l),
(423,700,l),
(423,316,l),
(423,309,l),
(423,126,l),
(427,111,l)
);
},
{
closed = 1;
nodes = (
(341,-8,o),
(421,34,o),
(437,111,c),
(437,217,l),
(423,217,l),
(423,131,o),
(363,59,o),
(274,59,cs),
(231,59,o),
(194,75,o),
(169,104,cs),
(144,132,o),
(129,173,o),
(129,221,cs),
(129,312,o),
(181,381,o),
(276,381,cs),
(324,381,o),
(361,362,o),
(386,334,cs),
(410,306,o),
(423,267,o),
(423,227,c),
(432,227,l),
(432,345,l),
(428,369,o),
(410,395,o),
(382,415,cs),
(354,435,o),
(315,448,o),
(267,448,cs),
(135,448,o),
(54,347,o),
(54,220,cs),
(54,149,o),
(79,92,o),
(118,53,cs),
(157,13,o),
(211,-8,o),
(267,-8,cs)
);
}
);
width = 582;
},
{
layerId = "EB11814A-7CD7-4F83-85D3-A70914269335";
shapes = (
{
closed = 1;
nodes = (
(460,0,l),
(490,0,l),
(490,296,l),
(490,303,l),
(490,700,l),
(459,700,l),
(459,303,l),
(459,296,l),
(459,126,l),
(460,111,l)
);
},
{
closed = 1;
nodes = (
(386,-8,o),
(453,68,o),
(472,163,c),
(464,209,l),
(459,209,l),
(459,108,o),
(387,20,o),
(282,20,cs),
(230,20,o),
(188,40,o),
(159,75,cs),
(130,110,o),
(113,157,o),
(113,216,cs),
(113,323,o),
(172,406,o),
(285,406,cs),
(344,406,o),
(388,383,o),
(416,348,cs),
(444,312,o),
(459,267,o),
(459,222,c),
(459,222,l),
(473,269,l),
(464,313,o),
(444,353,o),
(413,384,cs),
(382,415,o),
(341,435,o),
(288,435,cs),
(164,435,o),
(82,333,o),
(82,213,cs),
(82,141,o),
(107,87,o),
(146,49,cs),
(185,11,o),
(233,-8,o),
(284,-8,cs)
);
}
);
width = 582;
}
);
leftKerningGroup = a2;
rightKerningGroup = d;
unicode = 100;
},
{
glyphname = eth;
layers = (
{
layerId = "F6B38B84-4AA5-4989-9E13-2A308B5F1025";
shapes = (
{
closed = 1;
nodes = (
(294,-7,o),
(399,26,o),
(480,95,o),
(532,199,o),
(541,270,qs),
(549,333,o),
(524,444,o),
(472,536,o),
(400,611,o),
(322,668,o),
(243,707,o),
(212,717,q),
(127,611,l),
(177,592,o),
(265,536,o),
(332,461,o),
(373,365,o),
(375,306,q),
(410,321,l),
(387,382,o),
(309,440,o),
(247,440,qs),
(197,440,o),
(112,404,o),
(46,342,o),
(3,258,o),
(-3,209,qs),
(-10,154,o),
(20,73,o),
(84,19,o),
(176,-7,o),
(231,-7,qs)
);
},
{
closed = 1;
nodes = (
(233,136,o),
(198,147,o),
(179,168,o),
(172,198,o),
(174,217,qs),
(176,235,o),
(190,265,o),
(216,286,o),
(252,297,o),
(276,297,qs),
(301,297,o),
(335,285,o),
(354,264,o),
(360,233,o),
(358,214,qs),
(355,192,o),
(338,162,o),
(312,144,o),
(278,136,o),
(258,136,qs)
);
},
{
closed = 1;
nodes = (
(496,598,l),
(463,684,l),
(151,533,l),
(184,448,l)
);
}
);
width = 547;
},
{
layerId = "FF7033E7-E079-48F6-9418-777F925FA922";
shapes = (
{
closed = 1;
nodes = (
(292,-7,o),
(391,25,o),
(468,91,o),
(519,194,o),
(528,265,qs),
(536,327,o),
(516,436,o),
(469,528,o),
(404,604,o),
(331,663,o),
(255,704,o),
(222,715,q),
(150,626,l),
(201,604,o),
(287,542,o),
(352,460,o),
(388,359,o),
(387,297,q),
(423,326,l),
(398,386,o),
(318,442,o),
(259,442,qs),
(211,442,o),
(126,408,o),
(59,347,o),
(17,263,o),
(11,213,qs),
(4,158,o),
(33,76,o),
(93,21,o),
(182,-7,o),
(235,-7,qs)
);
},
{
closed = 1;
nodes = (
(231,117,o),
(191,132,o),
(167,159,o),
(158,197,o),
(160,219,qs),
(163,241,o),
(181,277,o),
(211,304,o),
(253,319,o),
(280,319,qs),
(306,319,o),
(344,305,o),
(368,278,o),
(376,240,o),
(373,216,qs),
(370,190,o),
(350,153,o),
(319,129,o),
(281,117,o),
(258,117,qs)
);
},
{
closed = 1;
nodes = (
(498,603,l),
(468,680,l),
(157,530,l),
(187,453,l)
);
}
);
width = 547;
},
{
layerId = "C6F2FD9D-3429-4F2B-9903-30CCFB382AAD";
shapes = (
{
closed = 1;
nodes = (
(283,-8,o),
(364,18,o),
(432,78,o),
(481,177,o),
(490,250,qs),
(497,307,o),
(488,412,o),
(459,505,o),
(413,585,o),
(355,650,o),
(288,696,o),
(252,710,q),
(214,669,l),
(265,641,o),
(349,561,o),
(405,459,o),
(429,339,o),
(421,271,q),
(458,340,l),
(427,398,o),
(345,448,o),
(292,448,qs),
(249,448,o),
(167,418,o),
(100,360,o),
(54,275,o),
(48,220,qs),
(41,167,o),
(63,83,o),
(116,24,o),
(194,-8,o),
(242,-8,qs)
);
},
{
closed = 1;
nodes = (
(219,57,o),
(165,83,o),
(131,127,o),
(116,188,o),
(120,222,qs),
(124,255,o),
(152,314,o),
(197,357,o),
(255,383,o),
(289,383,qs),
(320,383,o),
(371,360,o),
(405,317,o),
(419,256,o),
(414,218,qs),
(410,181,o),
(381,122,o),
(338,80,o),
(283,57,o),
(252,57,qs)
);
},
{
closed = 1;
nodes = (
(503,617,l),
(484,666,l),
(174,517,l),
(193,468,l)
);
}
);
width = 547;
},
{
layerId = "6FC0E451-EFB7-4D7C-9E66-A10B69A48177";
shapes = (
{
closed = 1;
nodes = (
(268,-8,o),
(341,14,o),
(408,75,o),
(461,181,o),
(471,265,qs),
(477,312,o),
(475,404,o),
(457,489,o),
(424,565,o),
(376,631,o),
(312,687,o),
(272,707,q),
(256,680,l),
(304,656,o),
(383,580,o),
(432,474,o),
(450,338,o),
(440,255,q),
(465,308,l),
(436,379,o),
(346,435,o),
(297,435,qs),
(259,435,o),
(183,405,o),
(119,348,o),
(74,266,o),
(68,212,qs),
(62,164,o),
(80,84,o),
(124,25,o),
(191,-8,o),
(237,-8,qs)
);
},
{
closed = 1;
nodes = (
(204,21,o),
(146,52,o),
(107,107,o),
(90,179,o),
(95,219,qs),
(100,258,o),
(133,325,o),
(180,376,o),
(245,406,o),
(283,406,qs),
(316,406,o),
(378,380,o),
(422,330,o),
(444,260,o),
(438,215,qs),
(433,174,o),
(396,102,o),
(343,51,o),
(278,21,o),
(241,21,qs)
);
},
{
closed = 1;
nodes = (
(501,629,l),
(491,654,l),
(184,506,l),
(194,481,l)
);
}
);
width = 547;
},
{
layerId = "FDA1CA61-DAB6-440F-86AE-A1833308297E";
shapes = (
{
closed = 1;
nodes = (
(329,-7,o),
(430,26,o),
(502,95,o),
(541,199,o),
(541,270,qs),
(541,333,o),
(502,444,o),
(439,536,o),
(358,611,o),
(272,668,o),
(189,707,o),
(156,717,q),
(85,611,l),
(137,592,o),
(232,536,o),
(308,461,o),
(361,365,o),
(371,306,q),
(404,321,l),
(373,382,o),
(288,440,o),
(226,440,qs),
(176,440,o),
(95,404,o),
(37,342,o),
(5,258,o),
(5,209,qs),
(5,154,o),
(45,73,o),
(116,19,o),
(211,-7,o),
(266,-7,qs)
);
},
{
closed = 1;
nodes = (
(250,136,o),
(214,147,o),
(192,168,o),
(181,198,o),
(181,217,qs),
(181,235,o),
(191,265,o),
(214,286,o),
(249,297,o),
(273,297,qs),
(298,297,o),
(333,285,o),
(355,264,o),
(365,233,o),
(365,214,qs),
(365,192,o),
(352,162,o),
(328,144,o),
(295,136,o),
(275,136,qs)
);
},
{
closed = 1;
nodes = (
(455,598,l),
(411,684,l),
(118,533,l),
(162,448,l)
);
}
);
width = 547;
},
{
layerId = "C0F60499-8BC0-4CEA-B9B1-C7852A3AB7A6";
shapes = (
{
closed = 1;
nodes = (
(327,-7,o),
(422,25,o),
(491,91,o),
(529,194,o),
(529,265,qs),
(529,327,o),
(495,436,o),
(437,528,o),
(362,604,o),
(282,663,o),
(201,704,o),
(167,715,q),
(106,626,l),
(159,604,o),
(253,542,o),
(328,460,o),
(377,359,o),
(384,297,q),
(416,326,l),
(384,386,o),
(297,442,o),
(238,442,qs),
(190,442,o),
(109,408,o),
(50,347,o),
(18,263,o),
(18,213,qs),
(18,158,o),
(57,76,o),
(124,21,o),
(217,-7,o),
(270,-7,qs)
);
},
{
closed = 1;
nodes = (
(250,117,o),
(208,132,o),
(181,159,o),
(167,197,o),
(167,219,qs),
(167,241,o),
(180,277,o),
(207,304,o),
(247,319,o),
(274,319,qs),
(300,319,o),
(340,305,o),
(367,278,o),
(380,240,o),
(380,216,qs),
(380,190,o),
(365,153,o),
(337,129,o),
(300,117,o),
(277,117,qs)
);
},
{
closed = 1;
nodes = (
(457,603,l),
(417,680,l),
(125,530,l),
(164,453,l)
);
}
);
width = 547;
},
{
layerId = "A6FAFB92-F521-4DD4-A95F-C39B9C67A836";
shapes = (
{
closed = 1;
nodes = (
(318,-8,o),
(396,18,o),
(456,78,o),
(493,177,o),
(493,250,qs),
(493,307,o),
(470,412,o),
(430,505,o),
(374,585,o),
(308,650,o),
(235,696,o),
(197,710,q),
(164,669,l),
(219,641,o),
(313,561,o),
(382,459,o),
(421,339,o),
(421,271,q),
(449,340,l),
(411,398,o),
(323,448,o),
(270,448,qs),
(227,448,o),
(149,418,o),
(89,360,o),
(54,275,o),
(54,220,qs),
(54,167,o),
(87,83,o),
(147,24,o),
(229,-8,o),
(277,-8,qs)
);
},
{
closed = 1;
nodes = (
(246,57,o),
(189,83,o),
(149,127,o),
(126,188,o),
(126,222,qs),
(126,255,o),
(147,314,o),
(186,357,o),
(241,383,o),
(275,383,qs),
(306,383,o),
(360,360,o),
(399,317,o),
(421,256,o),
(421,218,qs),
(421,181,o),
(400,122,o),
(362,80,o),
(310,57,o),
(279,57,qs)
);
},
{
closed = 1;
nodes = (
(460,617,l),
(435,666,l),
(143,517,l),
(168,468,l)
);
}
);
width = 547;
},
{
layerId = "EB11814A-7CD7-4F83-85D3-A70914269335";
shapes = (
{
closed = 1;
nodes = (
(303,-8,o),
(373,14,o),
(433,75,o),
(472,181,o),
(472,265,qs),
(472,312,o),
(458,404,o),
(430,489,o),
(387,565,o),
(331,631,o),
(260,687,o),
(218,707,q),
(205,680,l),
(256,656,o),
(344,580,o),
(407,474,o),
(442,338,o),
(442,255,q),
(460,308,l),
(423,379,o),
(326,435,o),
(277,435,qs),
(239,435,o),
(166,405,o),
(109,348,o),
(75,266,o),
(75,212,qs),
(75,164,o),
(103,84,o),
(155,25,o),
(226,-8,o),
(272,-8,qs)
);
},
{
closed = 1;
nodes = (
(235,21,o),
(173,52,o),
(128,107,o),
(102,179,o),
(102,219,qs),
(102,258,o),
(126,325,o),
(167,376,o),
(228,406,o),
(266,406,qs),
(299,406,o),
(364,380,o),
(415,330,o),
(445,260,o),
(445,215,qs),
(445,174,o),
(417,102,o),
(371,51,o),
(309,21,o),
(272,21,qs)
);
},
{
closed = 1;
nodes = (
(456,629,l),
(443,654,l),
(155,506,l),
(168,481,l)
);
}
);
width = 547;
}
);
leftKerningGroup = a2;
rightKerningGroup = b;
unicode = 240;
},
